<?xml version="1.0" encoding="iso-8859-1"?>
<!-- Generator: Adobe Illustrator 19.0.0, SVG Export Plug-In . SVG Version: 6.00 Build 0)  -->
<svg version="1.1" id="Capa_1" xmlns="http://www.w3.org/2000/svg" xmlns:xlink="http://www.w3.org/1999/xlink" x="0px" y="0px"
	 viewBox="0 0 480.19 480.19" style="enable-background:new 0 0 480.19 480.19;" xml:space="preserve">
<path style="fill:#03DDD7;" d="M301.91,71.381c-3.488,0.6-6.976,1.232-10.488,1.92c-0.168,0.032-0.344,0.072-0.52,0.104
	c-10.288,2.04-20.616,4.496-30.92,7.416c-0.952,0.272-1.904,0.52-2.856,0.8c-2.536,0.744-5.064,1.544-7.584,2.344
	c-1.616,0.512-3.232,1.024-4.848,1.56c-1.512,0.504-3.024,0.992-4.528,1.52c-0.768,0.272-1.536,0.576-2.304,0.856
	c-1.88,0.672-3.744,1.368-5.616,2.08c-2.096,0.8-4.192,1.6-6.28,2.448c-2.12,0.856-4.224,1.768-6.328,2.68
	c-1.832,0.792-3.68,1.56-5.496,2.392c-3.576,1.632-7.12,3.344-10.632,5.128c-1.208,0.616-2.4,1.28-3.608,1.912
	c-2.888,1.528-5.768,3.088-8.6,4.728c-1.416,0.816-2.8,1.688-4.2,2.536c-2.392,1.448-4.768,2.92-7.112,4.456
	c-1.44,0.944-2.864,1.912-4.288,2.888c-2.288,1.568-4.552,3.184-6.784,4.84c-1.352,1-2.712,2.008-4.048,3.048
	c-2.368,1.84-4.696,3.752-7,5.696c-1.112,0.936-2.24,1.84-3.336,2.8c-0.8,0.704-1.592,1.424-2.384,2.144
	c-2.52,2.288-5.024,4.608-7.456,7.032c-3.184,3.184-6.224,6.48-9.176,9.832c-0.96,1.096-1.864,2.224-2.8,3.336
	c-1.944,2.304-3.856,4.624-5.696,7c-1.04,1.336-2.04,2.688-3.048,4.048c-1.656,2.24-3.272,4.496-4.84,6.784
	c-0.976,1.424-1.944,2.848-2.888,4.288c-1.536,2.344-3.008,4.72-4.456,7.112c-0.848,1.4-1.72,2.784-2.536,4.2
	c-1.64,2.832-3.2,5.712-4.728,8.6c-0.632,1.2-1.296,2.384-1.912,3.592c-1.792,3.512-3.504,7.064-5.136,10.648
	c-0.824,1.808-1.592,3.648-2.384,5.472c-0.912,2.112-1.824,4.224-2.688,6.352c-0.84,2.08-1.648,4.184-2.448,6.28
	c-0.712,1.872-1.408,3.736-2.08,5.616c-0.272,0.768-0.584,1.528-0.848,2.296c-0.528,1.496-1.008,3-1.512,4.504
	c-0.544,1.632-1.064,3.272-1.584,4.912c-0.792,2.504-1.592,5.008-2.32,7.52c-0.288,0.984-0.544,1.976-0.824,2.96
	c-2.904,10.24-5.352,20.52-7.376,30.752c-0.04,0.208-0.088,0.408-0.128,0.616c-0.68,3.472-1.312,6.944-1.904,10.4
	c-0.064,0.368-0.128,0.744-0.192,1.112c-0.6,3.544-1.16,7.088-1.664,10.6c-11.832,81.696-0.264,153.512-0.264,153.512
	s212.504,34.408,322.352-75.44c2.416-2.416,4.68-4.944,6.952-7.456c44.72-49.304,63.328-116.368,70.12-176
	c8.592-75.456-1.632-138.896-1.632-138.896s-63.424-10.208-138.88-1.616c-4.832,0.552-9.696,1.176-14.616,1.888
	c-3.528,0.512-7.08,1.072-10.648,1.672C302.582,71.269,302.246,71.325,301.91,71.381z"/>
<path style="fill:#1881D1;" d="M69.534,313.573c0-0.008,0-0.008,0-0.016c0.512-3.52,1.072-7.056,1.664-10.6
	c0.064-0.368,0.128-0.744,0.192-1.112c0.592-3.456,1.224-6.92,1.904-10.4c0.04-0.208,0.088-0.408,0.128-0.616
	c2.024-10.232,4.472-20.512,7.376-30.752c0.28-0.984,0.536-1.976,0.824-2.96c0.736-2.512,1.528-5.016,2.32-7.52
	c0.52-1.64,1.04-3.28,1.584-4.912c0.504-1.504,0.992-3.008,1.512-4.504c0.272-0.768,0.576-1.528,0.848-2.296
	c0.672-1.88,1.368-3.752,2.08-5.616c0.8-2.096,1.6-4.192,2.448-6.28c0.864-2.128,1.776-4.24,2.688-6.352
	c0.792-1.824,1.552-3.656,2.384-5.472c1.632-3.584,3.352-7.128,5.136-10.648c0.616-1.208,1.272-2.392,1.912-3.592
	c1.528-2.888,3.088-5.768,4.728-8.6c0.816-1.416,1.688-2.8,2.536-4.2c1.448-2.392,2.92-4.768,4.456-7.112
	c0.944-1.44,1.912-2.864,2.888-4.288c1.568-2.288,3.184-4.552,4.84-6.784c1-1.352,2.008-2.712,3.048-4.048
	c1.84-2.368,3.752-4.696,5.696-7c0.936-1.112,1.84-2.24,2.8-3.336c2.952-3.352,5.984-6.648,9.176-9.832
	c2.424-2.424,4.928-4.744,7.456-7.032c0.792-0.72,1.576-1.44,2.384-2.144c1.096-0.96,2.224-1.864,3.336-2.8
	c2.304-1.944,4.624-3.856,7-5.696c1.336-1.04,2.688-2.04,4.048-3.048c2.24-1.656,4.496-3.272,6.784-4.84
	c1.424-0.976,2.848-1.944,4.288-2.888c2.344-1.536,4.72-3.008,7.112-4.456c1.4-0.848,2.784-1.72,4.2-2.536
	c2.832-1.64,5.712-3.2,8.6-4.728c1.2-0.64,2.392-1.296,3.608-1.912c3.512-1.792,7.056-3.496,10.632-5.128
	c1.816-0.832,3.664-1.6,5.496-2.392c2.104-0.912,4.208-1.824,6.328-2.68c2.08-0.84,4.184-1.648,6.28-2.448
	c1.864-0.712,3.736-1.408,5.616-2.08c0.768-0.272,1.528-0.584,2.304-0.856c1.504-0.528,3.016-1.016,4.528-1.52
	c1.608-0.536,3.232-1.048,4.848-1.56c2.528-0.8,5.048-1.6,7.584-2.344c0.952-0.28,1.904-0.528,2.856-0.8
	c10.296-2.92,20.632-5.384,30.92-7.416c0.176-0.032,0.344-0.072,0.52-0.104c3.504-0.688,7-1.32,10.488-1.92
	c0.336-0.056,0.672-0.12,1.008-0.176c3.56-0.6,7.112-1.16,10.648-1.672c0.008,0,0.008,0,0.016,0
	c-47.472-36.032-107.504-51.76-161.416-57.904c-75.456-8.6-138.896,1.632-138.896,1.632s-10.232,63.44-1.632,138.896
	C17.782,206.085,33.518,266.117,69.534,313.573z"/>
<g>
	<path style="fill:#243766;" d="M468.35,61.373c-2.208-0.352-54.832-8.696-121.872-3.544c-10.544,0.808-20.824,1.936-30.864,3.336
		C200.19-23.811,19.686,4.133,11.998,5.373c-3.4,0.552-6.072,3.224-6.624,6.624c-1.24,7.688-29.192,188.176,55.792,303.616
		c-1.392,10.04-2.52,20.32-3.336,30.864c-5.144,67.032,3.192,119.664,3.544,121.872c0.552,3.4,3.216,6.072,6.624,6.624
		c1.688,0.272,32.912,5.216,77.536,5.216c13.672,0,28.616-0.464,44.336-1.672c89.408-6.856,161.136-34.952,207.416-81.232
		c46.288-46.28,74.376-118,81.232-207.416c5.144-67.032-3.192-119.664-3.544-121.872C474.422,64.597,471.75,61.925,468.35,61.373z
		 M461.366,200.173h-113.88l113.64-113.64C463.39,108.661,466.206,151.485,461.366,200.173z M171.486,376.173l72-72h194.2
		c-10.136,25.952-23.92,50.672-42.584,72H171.486z M75.222,449.813c-2.688-26.272-6.152-81.704,3.344-141.44
		c0.784-4.936,1.624-9.816,2.552-14.592c0.68-3.488,1.416-6.984,2.192-10.48c1.064-4.824,2.192-9.576,3.416-14.232
		c0.848-3.248,1.768-6.496,2.712-9.728c1.36-4.664,2.784-9.264,4.304-13.744c1.008-2.976,2.088-5.92,3.184-8.872
		c1.648-4.408,3.344-8.76,5.152-12.976c1.144-2.688,2.376-5.336,3.608-7.992c1.832-3.928,3.72-7.784,5.696-11.536
		c1.208-2.304,2.456-4.592,3.736-6.864c2.4-4.224,4.888-8.336,7.48-12.32c0.928-1.44,1.84-2.888,2.808-4.304
		c3.256-4.768,6.656-9.352,10.2-13.76c0.872-1.088,1.784-2.16,2.68-3.232c1.888-2.256,3.912-4.352,5.888-6.504v223.624
		L75.222,449.813z M20.822,160.173h99.816c-1.944,2.52-3.888,5.048-5.752,7.68c-1.56,2.2-3.032,4.504-4.536,6.776
		c-1.44,2.192-2.864,4.408-4.256,6.664c-6.072,9.832-11.592,20.312-16.576,31.408c-0.432,0.968-0.856,1.952-1.28,2.928
		c-2.344,5.384-4.584,10.888-6.68,16.552h-44.68C29.014,208.301,23.942,183.773,20.822,160.173z M132.862,144.173H18.982
		c-4.824-48.656-2.016-91.496,0.24-113.64L132.862,144.173z M258.374,89.733c5.624-1.656,11.28-3.136,16.928-4.512
		c2.232-0.544,4.448-1.104,6.712-1.608c5.88-1.32,11.744-2.472,17.592-3.52c2.296-0.416,4.592-0.824,6.92-1.208
		c4.576-0.744,9.12-1.408,13.648-2.008v127.976l-72,72V92.933c0.768-0.248,1.536-0.48,2.304-0.728
		C253.086,91.365,255.702,90.525,258.374,89.733z M160.174,141.517c1.192-1.048,2.304-2.168,3.528-3.192
		c1.096-0.92,2.192-1.848,3.304-2.744c4.36-3.512,8.904-6.872,13.616-10.096c1.528-1.04,3.088-2.024,4.64-3.024
		c3.744-2.432,7.608-4.76,11.56-7.016c2.728-1.552,5.48-3.04,8.264-4.488c3.288-1.72,6.648-3.368,10.072-4.976
		c3.792-1.768,7.624-3.456,11.48-5.056c1.816-0.752,3.68-1.472,5.528-2.2v194.128l-72,72V141.517H160.174z M215.622,88.245
		c-0.976,0.424-1.96,0.848-2.928,1.28c-11.096,4.984-21.568,10.504-31.408,16.576c-2.256,1.384-4.472,2.808-6.664,4.256
		c-2.272,1.504-4.576,2.968-6.776,4.536c-2.632,1.864-5.16,3.8-7.68,5.752V20.789c23.6,3.128,48.128,8.2,72,16.064v44.712
		C226.51,83.661,221.006,85.893,215.622,88.245z M259.486,288.173l72-72h128.016c-3.128,23.6-8.192,48.12-16.064,72H259.486z
		 M449.806,75.229L336.174,188.861V75.021C384.854,70.181,427.67,72.973,449.806,75.229z M289.798,65.541
		c-5.44,1.08-10.8,2.248-16.064,3.512c-3.52,0.832-6.976,1.728-10.408,2.648c-3.84,1.032-7.656,2.096-11.4,3.232
		c-1.232,0.368-2.536,0.68-3.752,1.064v-33.36c15.464,6.04,30.504,13.344,44.632,22.248
		C291.774,65.077,290.822,65.341,289.798,65.541z M144.174,18.949v113.912L30.526,19.213C52.662,16.941,95.51,14.125,144.174,18.949
		z M64.886,292.805c-8.896-14.128-16.192-29.168-22.232-44.632h33.344c-0.384,1.224-0.696,2.52-1.064,3.752
		c-1.136,3.736-2.192,7.552-3.232,11.4c-0.912,3.432-1.808,6.888-2.648,10.408c-1.264,5.264-2.432,10.624-3.512,16.064
		C65.342,290.821,65.078,291.773,64.886,292.805z M86.542,461.117l68.944-68.944h223.872
		C289.702,474.029,136.126,466.173,86.542,461.117z"/>
	<rect x="312.174" y="344.173" style="fill:#243766;" width="16" height="16"/>
	<rect x="344.174" y="344.173" style="fill:#243766;" width="16" height="16"/>
	<rect x="376.174" y="344.173" style="fill:#243766;" width="16" height="16"/>
</g>
<g>
</g>
<g>
</g>
<g>
</g>
<g>
</g>
<g>
</g>
<g>
</g>
<g>
</g>
<g>
</g>
<g>
</g>
<g>
</g>
<g>
</g>
<g>
</g>
<g>
</g>
<g>
</g>
<g>
</g>
</svg>
