<?xml version="1.0" encoding="iso-8859-1"?>
<!-- Generator: Adobe Illustrator 19.0.0, SVG Export Plug-In . SVG Version: 6.00 Build 0)  -->
<svg version="1.1" id="Capa_1" xmlns="http://www.w3.org/2000/svg" xmlns:xlink="http://www.w3.org/1999/xlink" x="0px" y="0px"
	 viewBox="0 0 480 480" style="enable-background:new 0 0 480 480;" xml:space="preserve">
<polygon style="fill:#FFA244;" points="304,264 272,264 208,264 176,264 160,264 160,424 320,472 320,264 "/>
<polygon style="fill:#17B2B0;" points="48,264 48,131.368 8,144 8,472 160,424 160,264 "/>
<polygon style="fill:#68E8BB;" points="160,264 176,264 208,264 208,200 272,200 272,264 304,264 320,264 432,264 432,108.632 
	432,64 304,64 304,8 176,8 176,72 48,72 48,131.368 48,264 "/>
<polygon style="fill:#17B2B0;" points="432,264 320,264 320,472 472,424 472,96 432,108.632 "/>
<rect x="208" y="200" style="fill:#DCDCDC;" width="64" height="64"/>
<g>
	<rect x="200" y="32" style="fill:#143446;" width="16" height="32"/>
	<rect x="232" y="32" style="fill:#143446;" width="16" height="32"/>
	<rect x="264" y="32" style="fill:#143446;" width="16" height="32"/>
	<rect x="200" y="88" style="fill:#143446;" width="16" height="32"/>
	<rect x="232" y="88" style="fill:#143446;" width="16" height="32"/>
	<rect x="264" y="88" style="fill:#143446;" width="16" height="32"/>
	<rect x="200" y="144" style="fill:#143446;" width="16" height="32"/>
	<rect x="232" y="144" style="fill:#143446;" width="16" height="32"/>
	<rect x="264" y="144" style="fill:#143446;" width="16" height="32"/>
	<rect x="328" y="88" style="fill:#143446;" width="16" height="32"/>
	<rect x="360" y="88" style="fill:#143446;" width="16" height="32"/>
	<rect x="392" y="88" style="fill:#143446;" width="16" height="32"/>
	<path style="fill:#143446;" d="M476.728,89.544c-2.056-1.504-4.712-1.936-7.144-1.168L440,97.72V64c0-4.424-3.584-8-8-8H312V8
		c0-4.424-3.584-8-8-8H176c-4.416,0-8,3.576-8,8v56H48c-4.416,0-8,3.576-8,8v53.504L5.592,136.368C2.264,137.424,0,140.504,0,144
		v328c0,2.544,1.216,4.944,3.272,6.456C4.664,479.472,6.32,480,8,480c0.808,0,1.624-0.128,2.408-0.376l149.64-47.256l157.648,47.296
		c0.76,0.224,1.536,0.336,2.304,0.336c0.808,0,1.624-0.128,2.408-0.376l0.064-0.024c0.016-0.008,0.032-0.008,0.048-0.016
		l151.888-47.968c3.328-1.04,5.592-4.12,5.592-7.616V96C480,93.456,478.784,91.056,476.728,89.544z M424,72v36.632V256H320h-8V72
		H424z M184,16h112v48v192h-16v-56c0-4.424-3.584-8-8-8h-64c-4.416,0-8,3.576-8,8v56h-16V72V16z M264,256h-48v-48h48V256z M56,80
		h112v176h-8H56V131.368V80z M16,149.856l24-7.576V264c0,4.424,3.584,8,8,8h104v146.144L16,461.088V149.856z M168,272h8h32h64h32h8
		v189.248l-144-43.2V272z M464,418.144l-136,42.944V272h104c4.416,0,8-3.576,8-8V114.496l24-7.576V418.144z"/>
	<rect x="328" y="144" style="fill:#143446;" width="16" height="32"/>
	<rect x="360" y="144" style="fill:#143446;" width="16" height="32"/>
	<rect x="392" y="144" style="fill:#143446;" width="16" height="32"/>
	<rect x="328" y="200" style="fill:#143446;" width="16" height="32"/>
	<rect x="360" y="200" style="fill:#143446;" width="16" height="32"/>
	<rect x="392" y="200" style="fill:#143446;" width="16" height="32"/>
	<rect x="72" y="96" style="fill:#143446;" width="16" height="32"/>
	<rect x="104" y="96" style="fill:#143446;" width="16" height="32"/>
	<rect x="136" y="96" style="fill:#143446;" width="16" height="32"/>
	<rect x="72" y="152" style="fill:#143446;" width="16" height="32"/>
	<rect x="104" y="152" style="fill:#143446;" width="16" height="32"/>
	<rect x="136" y="152" style="fill:#143446;" width="16" height="32"/>
	<rect x="72" y="208" style="fill:#143446;" width="16" height="32"/>
	<rect x="104" y="208" style="fill:#143446;" width="16" height="32"/>
	<rect x="136" y="208" style="fill:#143446;" width="16" height="32"/>
</g>
<g>
</g>
<g>
</g>
<g>
</g>
<g>
</g>
<g>
</g>
<g>
</g>
<g>
</g>
<g>
</g>
<g>
</g>
<g>
</g>
<g>
</g>
<g>
</g>
<g>
</g>
<g>
</g>
<g>
</g>
</svg>
