<?xml version="1.0" encoding="iso-8859-1"?>
<!-- Generator: Adobe Illustrator 19.0.0, SVG Export Plug-In . SVG Version: 6.00 Build 0)  -->
<svg version="1.1" id="Capa_1" xmlns="http://www.w3.org/2000/svg" xmlns:xlink="http://www.w3.org/1999/xlink" x="0px" y="0px"
	 viewBox="0 0 479.984 479.984" style="enable-background:new 0 0 479.984 479.984;" xml:space="preserve">
<g>
	<circle style="fill:#689CB0;" cx="160" cy="427.992" r="40"/>
	<circle style="fill:#689CB0;" cx="360" cy="427.992" r="40"/>
</g>
<path style="fill:#94D8E3;" d="M80,43.992h368l-40,256H120L80,43.992z"/>
<path style="fill:#F2CF77;" d="M420.816,223.08c-2.952-0.888-6-1.536-9.096-2.048c-0.688-0.112-1.376-0.224-2.064-0.312
	c-3.16-0.44-6.376-0.728-9.656-0.728c-14.808,0-28.56,4.48-40,12.144c-19.288,12.92-32,34.896-32,59.856
	c0,2.704,0.176,5.368,0.472,8c3.984,35.992,34.472,64,71.528,64c39.768,0,72-32.232,72-72
	C472,259.472,450.424,232.008,420.816,223.08z"/>
<g>
	<path style="fill:#474747;" d="M429.808,217.808l34.08-204.504c0.08-0.432,0.112-0.872,0.112-1.312v-8h-16v7.336l-4.112,24.664
		H84.104l-4.216-25.32c-0.64-3.848-3.976-6.68-7.888-6.68H0v16h65.224l46.616,279.672l-23.6,94.384
		c-0.6,2.392-0.056,4.92,1.456,6.864s3.84,3.08,6.304,3.08h22.496c-4.104,7.072-6.496,15.256-6.496,24c0,26.472,21.528,48,48,48
		s48-21.528,48-48c0-8.744-2.392-16.928-6.496-24h116.992c-4.104,7.072-6.496,15.256-6.496,24c0,26.472,21.528,48,48,48
		s48-21.528,48-48c0-8.744-2.392-16.928-6.496-24H424v-16h-37.52c-7.6-5.048-16.696-8-26.48-8s-18.88,2.952-26.48,8H186.472
		c-7.6-5.048-16.696-8-26.48-8s-18.88,2.952-26.48,8h-27.28l20-80H321.6c7.432,36.472,39.752,64,78.384,64c44.112,0,80-35.888,80-80
		C480,258.416,459.192,229.664,429.808,217.808L429.808,217.808z M360,395.992c17.648,0,32,14.352,32,32s-14.352,32-32,32
		s-32-14.352-32-32S342.352,395.992,360,395.992z M160,395.992c17.648,0,32,14.352,32,32s-14.352,32-32,32s-32-14.352-32-32
		S142.352,395.992,160,395.992z M407.64,212.376c-2.536-0.24-5.088-0.384-7.64-0.384c-11.376,0-22.192,2.424-32,6.728v-38.728
		h51.888l-5.552,33.304c-1.144-0.208-2.304-0.312-3.456-0.472C409.8,212.672,408.736,212.48,407.64,212.376z M352,163.992h-48v-48
		h48V163.992z M368,115.992h62.56l-8,48H368V115.992z M288,163.992h-48v-48h48V163.992z M304,99.992v-48h48v48H304z M288,99.992h-48
		v-48h48V99.992z M224,99.992h-48v-48h48V99.992z M224,115.992v48h-48v-48H224z M224,179.992v48h-48v-48H224z M160,163.992h-54.56
		l-8-48H160V163.992z M160,179.992v48h-43.888l-8-48H160z M160,243.992v48h-33.224l-8-48H160z M176,243.992h48v48h-48V243.992z
		 M240,243.992h48v48h-48V243.992z M240,227.992v-48h48v48H240z M304,179.992h48v48h-48V179.992z M433.224,99.992H368v-48h73.224
		L433.224,99.992z M160,51.992v48H94.776l-8-48H160z M304,291.992v-48h32.152c-10.088,13.392-16.152,29.976-16.152,48H304z
		 M400,355.992c-32.88,0-60.016-24.928-63.576-56.872c-0.256-2.344-0.424-4.72-0.424-7.128c0-35.288,28.712-64,64-64
		c2.824,0,5.64,0.248,8.432,0.624c0.648,0.088,1.28,0.192,1.92,0.296c2.64,0.432,5.256,0.992,7.84,1.76
		C444.64,238.528,464,263.024,464,291.992C464,327.28,435.288,355.992,400,355.992z"/>
	<path style="fill:#474747;" d="M152,419.992h16v16h-16V419.992z"/>
	<path style="fill:#474747;" d="M352,419.992h16v16h-16V419.992z"/>
	<path style="fill:#474747;" d="M392,304.68l-18.344-18.344l-11.312,11.312l24,24c1.56,1.56,3.608,2.344,5.656,2.344
		s4.096-0.784,5.656-2.344l48-48l-11.312-11.312L392,304.68z"/>
</g>
<g>
</g>
<g>
</g>
<g>
</g>
<g>
</g>
<g>
</g>
<g>
</g>
<g>
</g>
<g>
</g>
<g>
</g>
<g>
</g>
<g>
</g>
<g>
</g>
<g>
</g>
<g>
</g>
<g>
</g>
</svg>
