<?xml version="1.0" encoding="iso-8859-1"?>
<!-- Generator: Adobe Illustrator 19.0.0, SVG Export Plug-In . SVG Version: 6.00 Build 0)  -->
<svg version="1.1" id="Capa_1" xmlns="http://www.w3.org/2000/svg" xmlns:xlink="http://www.w3.org/1999/xlink" x="0px" y="0px"
	 viewBox="0 0 488.004 488.004" style="enable-background:new 0 0 488.004 488.004;" xml:space="preserve">
<path style="fill:#FFA244;" d="M168.002,268.002v40h32v112h40h40v-112h32v-40c0-26.512-21.488-48-48-48h-24h-24
	C189.49,220.002,168.002,241.49,168.002,268.002z"/>
<circle style="fill:#68E8BB;" cx="64.002" cy="380.002" r="32"/>
<g>
	<circle style="fill:#17B2B0;" cx="64.002" cy="44.002" r="32"/>
	<path style="fill:#17B2B0;" d="M120.002,116.002c0-22.088-17.912-40-40-40h-16h-16c-22.088,0-40,17.912-40,40v24h112V116.002z"/>
	<circle style="fill:#17B2B0;" cx="416.002" cy="44.002" r="32"/>
	<path style="fill:#17B2B0;" d="M432.002,76.002h-16h-16c-22.088,0-40,17.912-40,40v24h112v-24
		C472.002,93.914,454.09,76.002,432.002,76.002z"/>
</g>
<path style="fill:#68E8BB;" d="M120.002,452.002c0-22.088-17.912-40-40-40h-16h-16c-22.088,0-40,17.912-40,40v24h112V452.002z"/>
<circle style="fill:#FFA244;" cx="240.002" cy="180.002" r="40"/>
<g>
	<circle style="fill:#DCDCDC;" cx="416.002" cy="380.002" r="32"/>
	<path style="fill:#DCDCDC;" d="M432.002,412.002h-16h-16c-22.088,0-40,17.912-40,40v24h112v-24
		C472.002,429.914,454.09,412.002,432.002,412.002z"/>
</g>
<g>
	<path style="fill:#143446;" d="M8.002,148.002h112c4.424,0,8-3.576,8-8v-24c0-21.576-14.312-39.864-33.944-45.888
		c6.112-7.032,9.944-16.088,9.944-26.112c0-22.056-17.944-40-40-40s-40,17.944-40,40c0,10.024,3.832,19.08,9.944,26.112
		C14.314,76.138,0.002,94.426,0.002,116.002v24C0.002,144.426,3.578,148.002,8.002,148.002z M64.002,20.002
		c13.232,0,24,10.768,24,24s-10.768,24-24,24s-24-10.768-24-24S50.77,20.002,64.002,20.002z M16.002,116.002
		c0-17.648,14.352-32,32-32h32c17.648,0,32,14.352,32,32v16h-96V116.002z"/>
	<path style="fill:#143446;" d="M352.002,116.002v24c0,4.424,3.576,8,8,8h112c4.424,0,8-3.576,8-8v-24
		c0-21.576-14.312-39.864-33.944-45.888c6.112-7.032,9.944-16.088,9.944-26.112c0-22.056-17.944-40-40-40s-40,17.944-40,40
		c0,10.024,3.832,19.08,9.944,26.112C366.314,76.138,352.002,94.426,352.002,116.002z M416.002,20.002c13.232,0,24,10.768,24,24
		s-10.768,24-24,24s-24-10.768-24-24S402.77,20.002,416.002,20.002z M368.002,116.002c0-17.648,14.352-32,32-32h32
		c17.648,0,32,14.352,32,32v16h-96V116.002z"/>
	<path style="fill:#143446;" d="M8.002,484.002h112c4.424,0,8-3.576,8-8v-24c0-21.576-14.312-39.864-33.944-45.888
		c6.112-7.032,9.944-16.088,9.944-26.112c0-22.056-17.944-40-40-40s-40,17.944-40,40c0,10.024,3.832,19.08,9.944,26.112
		c-19.632,6.024-33.944,24.312-33.944,45.888v24C0.002,480.426,3.578,484.002,8.002,484.002z M64.002,356.002
		c13.232,0,24,10.768,24,24s-10.768,24-24,24s-24-10.768-24-24S50.77,356.002,64.002,356.002z M16.002,452.002
		c0-17.648,14.352-32,32-32h32c17.648,0,32,14.352,32,32v16h-96V452.002z"/>
	<path style="fill:#143446;" d="M446.058,406.114c6.112-7.032,9.944-16.088,9.944-26.112c0-22.056-17.944-40-40-40s-40,17.944-40,40
		c0,10.024,3.832,19.08,9.944,26.112c-19.632,6.024-33.944,24.312-33.944,45.888v24c0,4.424,3.576,8,8,8h112c4.424,0,8-3.576,8-8
		v-24C480.002,430.426,465.69,412.138,446.058,406.114z M416.002,356.002c13.232,0,24,10.768,24,24s-10.768,24-24,24
		s-24-10.768-24-24S402.77,356.002,416.002,356.002z M464.002,468.002h-96v-16c0-17.648,14.352-32,32-32h32
		c17.648,0,32,14.352,32,32V468.002z"/>
	<path style="fill:#143446;" d="M200.002,428.002h80c4.424,0,8-3.576,8-8v-104h24c4.424,0,8-3.576,8-8v-40
		c0-27.208-19.52-49.928-45.28-54.944c8.208-8.616,13.28-20.24,13.28-33.056c0-26.472-21.528-48-48-48s-48,21.528-48,48
		c0,12.816,5.072,24.44,13.28,33.056c-25.76,5.016-45.28,27.736-45.28,54.944v40c0,4.424,3.576,8,8,8h24v104
		C192.002,424.426,195.578,428.002,200.002,428.002z M240.002,148.002c17.648,0,32,14.352,32,32s-14.352,32-32,32s-32-14.352-32-32
		S222.354,148.002,240.002,148.002z M176.002,300.002v-32c0-22.056,17.944-40,40-40h48c22.056,0,40,17.944,40,40v32h-16v-40h-16v152
		h-24v-96h-16v96h-24v-104v-48h-16v40H176.002z"/>
	<path style="fill:#143446;" d="M445.658,198.346l-11.312,11.312l26.344,26.344H352.002v16H460.69l-26.344,26.344l11.312,11.312
		l40-40c3.128-3.128,3.128-8.184,0-11.312L445.658,198.346z"/>
	<path style="fill:#143446;" d="M42.346,289.658l11.312-11.312l-26.344-26.344h100.688v-16H27.314l26.344-26.344l-11.312-11.312
		l-40,40c-3.128,3.128-3.128,8.184,0,11.312L42.346,289.658z"/>
	<path style="fill:#143446;" d="M352.002,332.002h-16v12.688l-18.344-18.344l-11.312,11.312l18.344,18.344h-12.688v16h32
		c4.424,0,8-3.576,8-8V332.002z"/>
	<path style="fill:#143446;" d="M168.002,356.002h-12.688l18.344-18.344l-11.312-11.312l-18.344,18.344v-12.688h-16v32
		c0,4.424,3.576,8,8,8h32V356.002z"/>
	<path style="fill:#143446;" d="M309.658,193.658l18.344-18.344v12.688h16v-32c0-4.424-3.576-8-8-8h-32v16h12.688l-18.344,18.344
		L309.658,193.658z"/>
	<path style="fill:#143446;" d="M176.002,148.002h-32c-4.424,0-8,3.576-8,8v32h16v-12.688l18.344,18.344l11.312-11.312
		l-18.344-18.344h12.688V148.002z"/>
</g>
<g>
</g>
<g>
</g>
<g>
</g>
<g>
</g>
<g>
</g>
<g>
</g>
<g>
</g>
<g>
</g>
<g>
</g>
<g>
</g>
<g>
</g>
<g>
</g>
<g>
</g>
<g>
</g>
<g>
</g>
</svg>
