<?xml version="1.0" encoding="iso-8859-1"?>
<!-- Generator: Adobe Illustrator 19.0.0, SVG Export Plug-In . SVG Version: 6.00 Build 0)  -->
<svg version="1.1" id="Capa_1" xmlns="http://www.w3.org/2000/svg" xmlns:xlink="http://www.w3.org/1999/xlink" x="0px" y="0px"
	 viewBox="0 0 480 480" style="enable-background:new 0 0 480 480;" xml:space="preserve">
<path style="fill:#11222B;" d="M40,424h149.392l-11.432,40H136v16h48h112h48v-16h-41.968L290.6,424H440c22.056,0,40-17.944,40-40V40
	c0-22.056-17.944-40-40-40H40C17.944,0,0,17.944,0,40v344C0,406.056,17.944,424,40,424z M285.392,464h-90.784l11.432-40h67.928
	L285.392,464z M440,408H280h-80H40c-13.232,0-24-10.768-24-24v-8h448v8C464,397.232,453.232,408,440,408z M40,16h400
	c13.232,0,24,10.768,24,24v320H16V40C16,26.768,26.768,16,40,16z"/>
<path style="fill:#E07A5F;" d="M208,48.264V144l57.36-76.488C248.064,56.184,228.496,49.624,208,48.264z"/>
<path style="fill:#11222B;" d="M197.472,175.592C198.304,175.864,199.16,176,200,176c2.472,0,4.856-1.152,6.4-3.2l76.712-102.288
	c2.656-3.536,1.936-8.544-1.592-11.192C257.728,41.448,229.544,32,200,32c-4.416,0-8,3.584-8,8v128
	C192,171.448,194.2,174.496,197.472,175.592z M208,48.264c20.496,1.352,40.064,7.92,57.36,19.248L208,144V48.264z"/>
<path style="fill:#E07A5F;" d="M333.632,138.568c-7.168-17.52-18.368-33.016-32.84-45.44L244.4,168.312L333.632,138.568z"/>
<path style="fill:#11222B;" d="M216.144,188.672c1.528,2.136,3.968,3.328,6.488,3.328c0.84,0,1.696-0.136,2.528-0.408
	l121.368-40.456c4.192-1.4,6.456-5.928,5.056-10.12c-8.744-26.232-25.152-48.952-47.44-65.696c-1.696-1.272-3.824-1.8-5.936-1.528
	c-2.104,0.304-4,1.424-5.272,3.12L216.232,179.2C214.128,182,214.096,185.84,216.144,188.672z M333.632,138.568L244.4,168.312
	l56.392-75.184C315.264,105.552,326.456,121.04,333.632,138.568z"/>
<path style="fill:#41D3BD;" d="M69.552,252.512L160,180.16V64.264C97.552,68.4,48,120.52,48,184
	C48,208.816,55.424,232.344,69.552,252.512z"/>
<path style="fill:#11222B;" d="M68.112,271.92c1.752,0,3.52-0.576,4.992-1.752L173,190.248c1.896-1.52,3-3.816,3-6.248V56
	c0-4.416-3.584-8-8-8C93.008,48,32,109.008,32,184c0,31.168,10.328,60.528,29.864,84.92C63.44,270.888,65.768,271.92,68.112,271.92z
	 M160,64.264V180.16l-90.448,72.36C55.424,232.344,48,208.816,48,184C48,120.52,97.552,68.4,160,64.264z"/>
<path style="fill:#41D3BD;" d="M93.048,289c22.744,24.88,54.552,39,88.448,39c29.368,0,57.128-10.48,79.008-29.672l-79.608-79.608
	L93.048,289z"/>
<path style="fill:#11222B;" d="M73.64,287.04c-0.232,2.112,0.384,4.224,1.712,5.88c26,32.464,64.688,51.08,106.144,51.08
	c36.328,0,70.48-14.152,96.168-39.832c3.128-3.128,3.128-8.184,0-11.312l-90.512-90.512c-2.872-2.888-7.48-3.152-10.656-0.592
	L76.6,281.672C74.936,283,73.872,284.928,73.64,287.04z M181.496,328c-33.896,0-65.696-14.12-88.448-39l87.848-70.28l79.608,79.608
	C238.624,317.52,210.864,328,181.496,328z"/>
<path style="fill:#39B7A1;" d="M348.064,186.2l-101.256,33.752l75.512,75.512c19.2-21.872,29.68-49.632,29.68-79.008
	C352,206.296,350.68,196.152,348.064,186.2z"/>
<g>
	<path style="fill:#11222B;" d="M229.472,208.864c-2.632,0.88-4.616,3.056-5.256,5.752s0.168,5.536,2.128,7.496l90.504,90.504
		c1.56,1.56,3.608,2.344,5.656,2.344s4.096-0.784,5.656-2.344c25.688-25.68,39.84-59.832,39.84-96.16
		c0-14.512-2.368-28.976-7.04-42.992c-1.392-4.192-5.912-6.472-10.12-5.056L229.472,208.864z M246.808,219.952L348.064,186.2
		c2.616,9.952,3.936,20.096,3.936,30.256c0,29.376-10.48,57.136-29.672,79.008L246.808,219.952z"/>
	<rect x="432" y="328" style="fill:#11222B;" width="16" height="16"/>
	<rect x="400" y="328" style="fill:#11222B;" width="16" height="16"/>
	<rect x="368" y="328" style="fill:#11222B;" width="16" height="16"/>
</g>
<g>
	<rect x="368" y="40" style="fill:#E07A5F;" width="16" height="16"/>
	<rect x="368" y="72" style="fill:#E07A5F;" width="16" height="16"/>
	<rect x="368" y="104" style="fill:#E07A5F;" width="16" height="16"/>
	<rect x="368" y="136" style="fill:#E07A5F;" width="16" height="16"/>
	<rect x="400" y="40" style="fill:#E07A5F;" width="48" height="16"/>
	<rect x="400" y="72" style="fill:#E07A5F;" width="48" height="16"/>
	<rect x="400" y="104" style="fill:#E07A5F;" width="48" height="16"/>
	<rect x="400" y="136" style="fill:#E07A5F;" width="48" height="16"/>
</g>
<g>
</g>
<g>
</g>
<g>
</g>
<g>
</g>
<g>
</g>
<g>
</g>
<g>
</g>
<g>
</g>
<g>
</g>
<g>
</g>
<g>
</g>
<g>
</g>
<g>
</g>
<g>
</g>
<g>
</g>
</svg>
