<?xml version="1.0" encoding="iso-8859-1"?>
<!-- Generator: Adobe Illustrator 19.0.0, SVG Export Plug-In . SVG Version: 6.00 Build 0)  -->
<svg version="1.1" id="Capa_1" xmlns="http://www.w3.org/2000/svg" xmlns:xlink="http://www.w3.org/1999/xlink" x="0px" y="0px"
	 viewBox="0 0 480 480" style="enable-background:new 0 0 480 480;" xml:space="preserve">
<path style="fill:#EFC062;" d="M189.416,256c12.48,5.12,26.472,8,41.128,8H232h16h1.456c14.656,0,28.648-2.88,41.128-8
	c2.312-0.944,4.568-2.008,6.784-3.12c2.136-1.088,4.224-2.248,6.248-3.456c0.496-0.296,1.04-0.56,1.528-0.864
	C328.592,234,344,210.48,344,184V88c0-44-42.544-80-94.544-80h-18.912C178.544,8,136,44,136,88v96c0,26.4,15.32,49.92,38.76,64.48
	c0.472,0.304,1,0.552,1.48,0.84c2.064,1.248,4.192,2.432,6.384,3.552C184.84,253.976,187.088,255.032,189.416,256z"/>
<path style="fill:#F7EEDA;" d="M303.616,249.424L303.616,249.424c-2.024,1.208-4.112,2.36-6.248,3.456
	c-2.216,1.112-4.472,2.184-6.784,3.12c-12.48,5.12-26.472,8-41.128,8H248h-16h-1.456c-14.656,0-28.648-2.88-41.128-8
	c-2.328-0.968-4.576-2.024-6.784-3.128c-2.192-1.112-4.32-2.296-6.384-3.552C131.728,254.24,8,276.168,8,368v104h104v-72V296h256
	v104v72h96.64c4.08,0,7.36-3.28,7.36-7.36V368C472,276.816,348,254.456,303.616,249.424z"/>
<path style="fill:#EA7E73;" d="M368,296H112v104v72h256v-72V296z M240,408c-17.672,0-32-14.328-32-32s14.328-32,32-32
	s32,14.328,32,32S257.672,408,240,408z"/>
<circle style="fill:#F7EEDA;" cx="240" cy="376" r="32"/>
<g>
	<path style="fill:#122333;" d="M240,336c-22.056,0-40,17.944-40,40s17.944,40,40,40s40-17.944,40-40S262.056,336,240,336z M240,400
		c-13.232,0-24-10.768-24-24s10.768-24,24-24s24,10.768,24,24S253.232,400,240,400z"/>
	<path style="fill:#122333;" d="M323.888,244.192C341.656,227.976,352,206.496,352,184V88c0-48.52-46-88-102.544-88h-18.904
		C174,0,128,39.48,128,88v96c0,22.448,10.288,43.888,27.936,60.048C102.664,252.784,0,280.952,0,368v104c0,4.416,3.584,8,8,8h104
		h256h96.64c8.472,0,15.36-6.888,15.36-15.36V368C480,281.456,377.176,253.072,323.888,244.192z M144,184V88
		c0-39.696,38.824-72,86.544-72h18.904C297.176,16,336,48.304,336,88v96c0,22.528-13.112,44.128-35.056,57.752
		c-0.464,0.288-0.936,0.512-1.408,0.792c-0.008,0-0.008,0-0.016,0.008c-2.056,1.224-4.032,2.312-5.976,3.296c-2,1-4,1.944-6,2.752
		c-11.8,4.84-24.968,7.4-38.088,7.4h-18.904c-3.28,0-6.56-0.16-9.824-0.472c-9.792-0.944-19.408-3.288-28.232-6.912
		c-2.184-0.904-4.24-1.88-6.248-2.888c-1.992-1.016-3.952-2.096-5.848-3.248c-0.016-0.008-0.024-0.008-0.04-0.016
		c-0.44-0.264-0.936-0.512-1.368-0.784C157.08,228.08,144,206.52,144,184z M120,464V304h240v160H120z M464,464h-88v-56h24
		c4.416,0,8-3.584,8-8v-48h-16v40h-16v-96c0-4.416-3.584-8-8-8H112c-4.416,0-8,3.584-8,8v96H88v-40H72v48c0,4.416,3.584,8,8,8h24v56
		H16v-96c0-84.336,117.944-105.624,158.496-110.424c0.2,0.112,0.416,0.192,0.608,0.296c3.528,1.96,7.224,3.84,11.272,5.528
		c13.912,5.704,28.768,8.6,44.168,8.6h18.904c3.848,0,7.664-0.184,11.44-0.544c11.328-1.08,22.288-3.776,32.704-8.048
		c2.208-0.904,4.432-1.944,6.68-3.064c1.224-0.608,2.432-1.264,3.648-1.928c0.472-0.256,0.928-0.472,1.4-0.744
		C345.912,262.608,464,284.216,464,368V464z"/>
	<path style="fill:#122333;" d="M205.656,154.344L179.312,128l26.344-26.344l-11.312-11.312l-32,32
		c-3.128,3.128-3.128,8.184,0,11.312l32,32L205.656,154.344z"/>
	<path style="fill:#122333;" d="M285.656,165.656l32-32c3.128-3.128,3.128-8.184,0-11.312l-32-32l-11.312,11.312L300.688,128
		l-26.344,26.344L285.656,165.656z"/>
	
		<rect x="191.992" y="111.993" transform="matrix(-0.3848 0.923 -0.923 -0.3848 448.6335 -59.0386)" style="fill:#122333;" width="104" height="16"/>
	<rect x="336" style="fill:#122333;" width="24" height="16"/>
	<rect x="400" style="fill:#122333;" width="80" height="16"/>
	<rect x="392" y="144" style="fill:#122333;" width="80" height="16"/>
	<rect x="368" y="192" style="fill:#122333;" width="64" height="16"/>
	<rect x="360" y="48" style="fill:#122333;" width="72" height="16"/>
	<rect x="432" y="96" style="fill:#122333;" width="48" height="16"/>
	<rect x="464" y="48" style="fill:#122333;" width="16" height="16"/>
	<rect x="464" y="192" style="fill:#122333;" width="16" height="16"/>
	<rect x="368" y="96" style="fill:#122333;" width="24" height="16"/>
</g>
<g>
</g>
<g>
</g>
<g>
</g>
<g>
</g>
<g>
</g>
<g>
</g>
<g>
</g>
<g>
</g>
<g>
</g>
<g>
</g>
<g>
</g>
<g>
</g>
<g>
</g>
<g>
</g>
<g>
</g>
</svg>
