<?xml version="1.0" encoding="iso-8859-1"?>
<!-- Generator: Adobe Illustrator 19.0.0, SVG Export Plug-In . SVG Version: 6.00 Build 0)  -->
<svg version="1.1" id="Capa_1" xmlns="http://www.w3.org/2000/svg" xmlns:xlink="http://www.w3.org/1999/xlink" x="0px" y="0px"
	 viewBox="0 0 480 480" style="enable-background:new 0 0 480 480;" xml:space="preserve">
<circle style="fill:#3FE7EF;" cx="260" cy="360" r="32"/>
<path style="fill:#F8CF26;" d="M89.104,121.088c1.952,1.072,3.968,2.016,6.032,2.832c0.184,0.072,0.376,0.136,0.552,0.2
	c12.936,4.96,27.68,4.96,40.616,0c0.184-0.072,0.376-0.128,0.552-0.2c2.064-0.816,4.08-1.76,6.032-2.832
	C160.224,111.56,172,93.136,172,72c0-30.88-25.128-56-56-56S60,41.12,60,72C60,93.136,71.776,111.56,89.104,121.088z M92,72
	c0,13.232,10.768,24,24,24v16c-22.056,0-40-17.944-40-40H92z"/>
<g>
	<circle style="fill:#3FE7EF;" cx="340" cy="360" r="32"/>
	<circle style="fill:#3FE7EF;" cx="420" cy="360" r="32"/>
</g>
<polygon style="fill:#F8CF26;" points="108.688,213.368 116,220.688 123.312,213.368 116,176.792 "/>
<path style="fill:#E0634B;" d="M316,240v-32h-64c-2.904,0-5.584-1.576-6.992-4.12l-26.28-47.312
	C211.672,143.88,198.272,136,183.76,136h-34.8c-0.456,0.232-0.936,0.392-1.4,0.616c-1.864,0.912-3.76,1.752-5.712,2.504
	c-0.504,0.192-1,0.376-1.512,0.552c-4.704,1.696-9.624,2.92-14.728,3.608l14.232,71.152c0.52,2.624-0.296,5.336-2.184,7.224l-16,16
	c-1.56,1.56-3.608,2.344-5.656,2.344s-4.096-0.784-5.656-2.344l-16-16c-1.888-1.888-2.712-4.6-2.184-7.224l14.232-71.152
	c-5.104-0.688-10.024-1.912-14.728-3.608c-0.504-0.176-1.008-0.36-1.512-0.552c-1.944-0.752-3.848-1.592-5.704-2.504
	c-0.456-0.224-0.944-0.384-1.4-0.616H60c-22.056,0-40,17.944-40,40v120h32v-8v-8V168h16v104h96v-96c0-3.416,2.168-6.456,5.408-7.568
	c3.232-1.104,6.824-0.04,8.904,2.656l53.6,68.912H316z"/>
<polygon style="fill:#F8CF26;" points="68,304 68,464 108,464 108,320 124,320 124,464 164,464 164,288 68,288 "/>
<g>
	<path style="fill:#3FE7EF;" d="M428,408h-16c-13.232,0-24,10.768-24,24v48h64v-48C452,418.768,441.232,408,428,408z"/>
	<path style="fill:#3FE7EF;" d="M268,408h-16c-13.232,0-24,10.768-24,24v48h64v-48C292,418.768,281.232,408,268,408z"/>
	<path style="fill:#3FE7EF;" d="M348,408h-16c-13.232,0-24,10.768-24,24v48h64v-48C372,418.768,361.232,408,348,408z"/>
</g>
<path d="M228,256h96c4.424,0,8-3.584,8-8v-48c0-4.416-3.576-8-8-8h-67.288l-24-43.2c-9.88-17.768-28.632-28.8-48.952-28.8h-14.248
	C180.968,107.248,188,90.448,188,72c0-39.696-32.296-72-72-72S44,32.304,44,72c0,18.448,7.032,35.248,18.488,48H60
	c-30.872,0-56,25.12-56,56v128c0,4.416,3.576,8,8,8h40v160c0,4.416,3.576,8,8,8h112c4.424,0,8-3.584,8-8V280v-80.68l41.688,53.592
	C223.2,254.856,225.528,256,228,256z M60,72c0-30.88,25.128-56,56-56s56,25.12,56,56c0,21.136-11.776,39.56-29.104,49.088
	c-1.952,1.072-3.968,2.016-6.032,2.832c-0.184,0.072-0.376,0.136-0.552,0.2c-12.936,4.96-27.68,4.96-40.616,0
	c-0.184-0.072-0.376-0.128-0.552-0.2c-2.064-0.816-4.08-1.76-6.032-2.832C71.776,111.56,60,93.136,60,72z M123.312,213.368
	l-7.312,7.32l-7.312-7.32L116,176.792L123.312,213.368z M164,464h-40V320h-16v144H68V304v-16h96V464z M178.312,171.088
	c-2.088-2.696-5.672-3.76-8.904-2.656c-3.24,1.112-5.408,4.152-5.408,7.568v96H68V168H52v112v8v8H20V176c0-22.056,17.944-40,40-40
	h23.04c0.456,0.232,0.944,0.392,1.4,0.616c1.864,0.912,3.76,1.752,5.704,2.504c0.504,0.192,1.008,0.376,1.512,0.552
	c4.704,1.696,9.624,2.92,14.728,3.608l-14.232,71.152c-0.52,2.624,0.296,5.336,2.184,7.224l16,16
	c1.568,1.56,3.616,2.344,5.664,2.344s4.096-0.784,5.656-2.344l16-16c1.888-1.888,2.712-4.6,2.184-7.224l-14.232-71.152
	c5.104-0.688,10.024-1.912,14.728-3.608c0.504-0.176,1.008-0.36,1.512-0.552c1.952-0.752,3.848-1.592,5.712-2.504
	c0.456-0.224,0.944-0.376,1.4-0.616h34.8c14.512,0,27.912,7.88,34.968,20.568l26.28,47.312c1.408,2.544,4.088,4.12,6.992,4.12h64v32
	h-84.088L178.312,171.088z"/>
<path d="M468,360c0-26.472-21.528-48-48-48c-16.688,0-31.392,8.568-40,21.52c-8.608-12.96-23.312-21.52-40-21.52
	s-31.392,8.568-40,21.52c-8.608-12.96-23.312-21.52-40-21.52c-26.472,0-48,21.528-48,48c0,15.552,7.464,29.352,18.96,38.128
	C219.624,405.2,212,417.688,212,432v48h8h8v-48c0-13.232,10.768-24,24-24h16c13.232,0,24,10.768,24,24v48h16v-48
	c0-13.232,10.768-24,24-24h16c13.232,0,24,10.768,24,24v48h16v-48c0-13.232,10.768-24,24-24h16c13.232,0,24,10.768,24,24v48h8h8v-48
	c0-14.312-7.624-26.8-18.96-33.872C460.536,389.352,468,375.552,468,360z M380,386.48c2.976,4.48,6.696,8.4,10.96,11.656
	c-4.272,2.664-7.96,6.096-10.96,10.12c-3-4.024-6.688-7.456-10.96-10.12C373.304,394.872,377.024,390.952,380,386.48z M340,328
	c17.648,0,32,14.352,32,32s-14.352,32-32,32s-32-14.352-32-32S322.352,328,340,328z M300,386.48c2.976,4.48,6.696,8.4,10.96,11.656
	c-4.272,2.664-7.96,6.096-10.96,10.12c-3-4.024-6.688-7.456-10.96-10.12C293.304,394.872,297.024,390.952,300,386.48z M228,360
	c0-17.648,14.352-32,32-32s32,14.352,32,32s-14.352,32-32,32S228,377.648,228,360z M420,392c-17.648,0-32-14.352-32-32
	s14.352-32,32-32s32,14.352,32,32S437.648,392,420,392z"/>
<path d="M116,112V96c-13.232,0-24-10.768-24-24H76C76,94.056,93.944,112,116,112z"/>
<g>
	<rect x="188" style="fill:#3FE7EF;" width="288" height="16"/>
	<rect x="204" y="40" style="fill:#3FE7EF;" width="272" height="16"/>
	<rect x="204" y="80" style="fill:#3FE7EF;" width="272" height="16"/>
	<rect x="244" y="120" style="fill:#3FE7EF;" width="232" height="16"/>
	<rect x="268" y="160" style="fill:#3FE7EF;" width="208" height="16"/>
	<rect x="348" y="200" style="fill:#3FE7EF;" width="128" height="16"/>
	<rect x="348" y="240" style="fill:#3FE7EF;" width="128" height="16"/>
</g>
<g>
</g>
<g>
</g>
<g>
</g>
<g>
</g>
<g>
</g>
<g>
</g>
<g>
</g>
<g>
</g>
<g>
</g>
<g>
</g>
<g>
</g>
<g>
</g>
<g>
</g>
<g>
</g>
<g>
</g>
</svg>
