<?xml version="1.0" encoding="iso-8859-1"?>
<!-- Generator: Adobe Illustrator 19.0.0, SVG Export Plug-In . SVG Version: 6.00 Build 0)  -->
<svg version="1.1" id="Capa_1" xmlns="http://www.w3.org/2000/svg" xmlns:xlink="http://www.w3.org/1999/xlink" x="0px" y="0px"
	 viewBox="0 0 490.208 490.208" style="enable-background:new 0 0 490.208 490.208;" xml:space="preserve">
<g>
	<path style="fill:#62B8B1;" d="M349.528,126.502l19.608-19.608c4.672-4.68,4.672-12.296,0-16.976
		c-4.672-4.672-12.296-4.672-16.968,0l-31.936,31.944L337.2,138.83l12.144-12.144C349.4,126.63,349.472,126.566,349.528,126.502z"/>
	<path style="fill:#62B8B1;" d="M377.624,138.006c-4.488-4.488-12.296-4.544-16.84-0.128l-12.272,12.264l16.968,16.968
		l12.144-12.144C382.304,150.294,382.304,142.686,377.624,138.006z"/>
	<path style="fill:#62B8B1;" d="M324.568,89.918c0-3.2-1.248-6.216-3.512-8.488c-4.528-4.528-12.44-4.528-16.968,0l-12.144,12.144
		l16.976,16.976l12.144-12.144C323.328,96.134,324.568,93.134,324.568,89.918z"/>
	<path style="fill:#62B8B1;" d="M265.44,67.07l13.488,13.488c0.616-3.696-0.28-7.592-3.128-10.44
		C273.072,67.39,269.144,66.51,265.44,67.07z"/>
</g>
<polygon style="fill:#71D3CC;" points="395.032,436.966 275.032,316.966 219.032,316.966 147.032,244.966 171.032,236.966 
	187.032,220.966 67.032,100.966 91.032,76.966 75.032,52.966 99.032,28.966 123.032,44.966 131.032,20.966 163.032,28.966 
	187.032,12.966 203.032,20.966 371.032,180.966 371.032,220.966 483.032,332.966 "/>
<polygon style="fill:#62B8B1;" points="3.032,348.966 131.032,212.966 139.032,172.966 195.032,236.966 163.032,236.966 
	155.032,252.966 219.032,316.966 219.032,324.966 107.032,436.966 "/>
<g>
	<path style="fill:#1C2121;" d="M279.416,307.326c-1.504-1.504-3.536-2.344-5.656-2.344h-53.256l-59.168-59.168
		c12.032-7.144,28.736-5.208,38.888,4.944l16.968,16.968c3.128,3.128,8.184,3.128,11.312,0c1.56-1.56,2.344-3.608,2.344-5.656
		s-0.784-4.096-2.344-5.656L81.432,109.334c-2.272-2.264-3.512-5.28-3.512-8.488s1.248-6.216,3.512-8.488
		c4.528-4.528,12.432-4.528,16.968,0l113.136,113.136c3.128,3.128,8.184,3.128,11.312,0s3.128-8.184,0-11.312L89.912,61.246
		c-2.264-2.264-3.512-5.272-3.512-8.488c0-3.2,1.248-6.216,3.512-8.488c4.536-4.52,12.44-4.536,16.976,0l132.936,132.936
		c3.128,3.128,8.184,3.128,11.312,0c1.56-1.56,2.344-3.608,2.344-5.656s-0.784-4.096-2.344-5.656L134.88,49.646
		c-4.656-4.68-4.648-12.272,0.016-16.944c4.68-4.664,12.296-4.68,16.976,0l116.232,116.232c3.128,3.128,8.184,3.128,11.312,0
		s3.128-8.184,0-11.312l-96.168-96.168c-2.264-2.272-3.512-5.288-3.512-8.488s1.248-6.216,3.52-8.488
		c4.528-4.528,12.432-4.528,16.968,0L303.248,127.51l0.008,0.008l0.008,0.008l58.656,58.656v30.632c0,2.128,0.84,4.16,2.344,5.656
		l114.632,114.624l11.312-11.312l-112.28-112.28V182.87c0-1.528-0.568-2.936-1.368-4.2l12.384-12.384
		c10.92-10.912,10.92-28.68,0-39.592c-2.984-2.984-6.52-5.208-10.384-6.584l1.896-1.896c10.912-10.92,10.912-28.68,0-39.6
		c-10.92-10.92-28.688-10.92-39.6,0l-1.896,1.896c-1.376-3.856-3.6-7.4-6.584-10.384c-10.272-10.272-28.016-10.64-38.672-0.88
		c-1.344-3.816-3.544-7.392-6.584-10.432c-8.92-8.92-23.376-10.224-34.048-4.104l-41.536-41.536
		c-10.576-10.576-29.024-10.576-39.6,0c-3.032,3.032-5.224,6.6-6.576,10.4l-2.176-2.176c-10.92-10.92-28.68-10.92-39.6,0
		c-3.04,3.048-5.24,6.632-6.584,10.448c-10.672-9.504-28.208-9.056-38.4,1.136c-5.288,5.288-8.192,12.32-8.192,19.8
		c0,7.488,2.912,14.512,8.2,19.8l1.904,1.904c-3.864,1.376-7.4,3.6-10.384,6.584c-5.288,5.28-8.2,12.312-8.2,19.8
		c0,7.48,2.912,14.504,8.2,19.8l58.024,58.024c-0.808,1.272-1.368,2.672-1.368,4.2v30.632L0,340.262l11.312,11.312L140.424,222.47
		c1.504-1.504,2.344-3.528,2.344-5.656v-23.52l32.152,32.152c-11.816,0.648-22.832,5.552-31.264,13.992
		c-3.128,3.128-3.128,8.184,0,11.312l67.88,67.88c0.424,0.424,0.96,0.656,1.456,0.976L103.64,428.966h-28.6v16h112
		c3.032,0,5.8-1.712,7.16-4.424l8.84-17.688l16.84,33.688c1.488,2.968,4.672,4.688,7.944,4.384c3.304-0.328,6.056-2.656,6.928-5.856
		l15.344-56.272l17.112,79.848c0.76,3.52,3.784,6.112,7.384,6.304c0.152,0.008,0.296,0.016,0.448,0.016
		c3.424,0,6.496-2.184,7.584-5.472l17.888-53.68l7.36,14.728c1.36,2.712,4.128,4.424,7.16,4.424h112v-16h-25.984L279.416,307.326z
		 M377.624,154.974l-12.144,12.144l-16.968-16.968l12.272-12.264c4.552-4.424,12.352-4.36,16.84,0.128
		C382.304,142.686,382.304,150.294,377.624,154.974z M352.168,89.918c4.672-4.672,12.296-4.672,16.968,0
		c4.68,4.68,4.68,12.296,0,16.976l-19.608,19.608c-0.064,0.064-0.128,0.128-0.192,0.184l-12.144,12.144l-16.968-16.968
		L352.168,89.918z M304.088,81.438c4.52-4.528,12.432-4.528,16.968,0c2.272,2.264,3.512,5.28,3.512,8.488s-1.248,6.216-3.512,8.488
		l-12.144,12.144l-16.976-16.976L304.088,81.438z M275.8,70.126c2.84,2.848,3.744,6.744,3.128,10.44L265.44,67.078
		C269.144,66.51,273.072,67.39,275.8,70.126z M306.192,401.39c-1.448-2.896-4.536-4.664-7.72-4.4c-3.224,0.224-6,2.376-7.024,5.448
		L276.72,446.63l-17.864-83.344c-0.776-3.6-3.912-6.216-7.608-6.32c-3.592,0.168-6.968,2.336-7.936,5.896l-18.488,67.8
		l-14.64-29.272c-2.712-5.424-11.6-5.424-14.312,0l-13.784,27.576h-55.832L234.24,320.982h36.2l107.992,107.984h-58.448
		L306.192,401.39z"/>
	<rect x="43.032" y="428.966" style="fill:#1C2121;" width="16" height="16"/>
	<rect x="3.032" y="428.966" style="fill:#1C2121;" width="24" height="16"/>
	<rect x="443.032" y="428.966" style="fill:#1C2121;" width="40" height="16"/>
</g>
<g>
</g>
<g>
</g>
<g>
</g>
<g>
</g>
<g>
</g>
<g>
</g>
<g>
</g>
<g>
</g>
<g>
</g>
<g>
</g>
<g>
</g>
<g>
</g>
<g>
</g>
<g>
</g>
<g>
</g>
</svg>
