<?xml version="1.0" encoding="iso-8859-1"?>
<!-- Generator: Adobe Illustrator 19.0.0, SVG Export Plug-In . SVG Version: 6.00 Build 0)  -->
<svg version="1.1" id="Capa_1" xmlns="http://www.w3.org/2000/svg" xmlns:xlink="http://www.w3.org/1999/xlink" x="0px" y="0px"
	 viewBox="0 0 512 512" style="enable-background:new 0 0 512 512;" xml:space="preserve">
<g>
	<rect x="344" y="240" style="fill:#E2B624;" width="64" height="32"/>
	<path style="fill:#E2B624;" d="M80,495.96c0-3.48-1.32-6.856-2.184-10.168c-0.192-0.736-0.48-1.488-0.696-2.224
		c-0.376-1.264-0.88-2.496-1.328-3.728c-0.296-0.816-0.608-1.648-0.928-2.448c-0.464-1.192-1-2.352-1.536-3.512
		c-0.376-0.808-0.76-1.608-1.16-2.392c-0.568-1.128-1.168-2.232-1.8-3.32c-0.44-0.768-0.912-1.512-1.376-2.264
		c-0.672-1.072-1.344-2.136-2.072-3.168c-0.488-0.696-1.016-1.36-1.52-2.032c-0.784-1.032-1.552-2.072-2.384-3.064
		c-0.408-0.488-0.864-0.936-1.288-1.416c-1.864-2.096-3.848-4.08-5.952-5.952c-0.472-0.424-0.92-0.872-1.408-1.28
		c-0.984-0.832-2.024-1.6-3.056-2.384c-0.68-0.512-1.344-1.04-2.04-1.528c-1.032-0.72-2.096-1.4-3.168-2.072
		c-0.744-0.464-1.496-0.936-2.256-1.376c-1.088-0.632-2.2-1.224-3.328-1.8c-0.784-0.4-1.584-0.776-2.384-1.152
		c-1.16-0.536-2.328-1.064-3.52-1.536c-0.792-0.32-1.608-0.6-2.424-0.888c-1.24-0.448-2.48-0.896-3.752-1.272
		c-0.728-0.216-1.472-0.376-2.208-0.568c-3.336-0.864-6.736-1.552-10.232-1.944V472c0,13.232,10.768,24,24,24h40
		C80,495.984,80,495.968,80,495.96z"/>
	<polygon style="fill:#E2B624;" points="124.944,456 171.056,456 148,409.888 	"/>
</g>
<rect x="232" y="184" style="fill:#CC6C45;" width="48" height="112"/>
<g>
	
		<rect x="50.455" y="293.362" transform="matrix(-0.7071 0.7071 -0.7071 -0.7071 415.7963 443.7506)" style="fill:#E2B624;" width="131.079" height="29.256"/>
	<path style="fill:#E2B624;" d="M26.224,245.576c0.736-0.192,1.48-0.352,2.208-0.568c1.272-0.376,2.504-0.824,3.744-1.272
		c0.816-0.288,1.632-0.576,2.432-0.896c1.184-0.472,2.352-1,3.504-1.528c0.808-0.376,1.608-0.752,2.392-1.152
		c1.128-0.576,2.24-1.168,3.328-1.8c0.768-0.44,1.512-0.904,2.256-1.376c1.072-0.672,2.136-1.344,3.168-2.072
		c0.696-0.488,1.36-1.016,2.04-1.528c1.032-0.784,2.072-1.552,3.056-2.384c0.488-0.408,0.936-0.856,1.408-1.28
		c2.096-1.864,4.08-3.848,5.952-5.952c0.424-0.48,0.872-0.928,1.288-1.416c0.832-0.984,1.608-2.032,2.384-3.064
		c0.512-0.672,1.032-1.344,1.52-2.032c0.728-1.032,1.4-2.096,2.072-3.168c0.472-0.744,0.936-1.496,1.376-2.264
		c0.632-1.088,1.224-2.2,1.792-3.32c0.4-0.792,0.784-1.592,1.16-2.4c0.536-1.152,1.056-2.312,1.528-3.496
		c0.32-0.808,0.608-1.632,0.904-2.456c0.44-1.232,0.888-2.464,1.264-3.728c0.216-0.728,0.616-1.48,0.816-2.224
		C78.68,190.904,80,187.52,80,184.04c0-0.016,0-0.032,0-0.04H40c-13.232,0-24,10.768-24,24v8v31.528
		C19.496,247.136,22.896,246.448,26.224,245.576z"/>
	<path style="fill:#E2B624;" d="M483.568,434.992c-1.272,0.376-2.512,0.824-3.752,1.272c-0.808,0.288-1.624,0.568-2.424,0.888
		c-1.192,0.48-2.36,1-3.52,1.536c-0.8,0.368-1.6,0.752-2.384,1.152c-1.128,0.576-2.24,1.168-3.328,1.8
		c-0.768,0.44-1.512,0.904-2.256,1.376c-1.072,0.672-2.136,1.344-3.168,2.072c-0.696,0.488-1.36,1.016-2.04,1.528
		c-1.032,0.784-2.072,1.552-3.056,2.384c-0.488,0.408-0.936,0.856-1.408,1.28c-2.096,1.864-4.08,3.848-5.952,5.952
		c-0.424,0.48-0.872,0.928-1.288,1.416c-0.832,0.984-1.608,2.032-2.384,3.064c-0.512,0.672-1.032,1.344-1.52,2.032
		c-0.728,1.032-1.4,2.096-2.072,3.168c-0.472,0.744-0.936,1.496-1.376,2.264c-0.632,1.088-1.224,2.2-1.8,3.32
		c-0.4,0.792-0.784,1.592-1.16,2.392c-0.536,1.152-1.056,2.32-1.528,3.504c-0.32,0.808-0.608,1.632-0.896,2.448
		c-0.44,1.232-0.888,2.464-1.264,3.728c-0.216,0.728-0.616,1.48-0.816,2.224C433.32,489.096,432,492.48,432,495.96
		c0,0.016,0,0.032,0,0.04h40c13.232,0,24-10.768,24-24v-39.528c-3.496,0.392-6.896,1.08-10.224,1.952
		C485.04,434.616,484.296,434.784,483.568,434.992z"/>
</g>
<path style="fill:#80CBED;" d="M216,376v-72V184H95.592c-0.184,2-0.488,3.96-0.808,5.92c-0.12,0.768-0.208,1.544-0.352,2.304
	c-0.336,1.8-0.768,3.56-1.216,5.32c-0.224,0.88-0.432,1.768-0.68,2.632c-0.48,1.688-1.032,3.336-1.608,4.976
	c-0.312,0.896-0.632,1.784-0.976,2.664c-0.624,1.6-1.288,3.176-2.008,4.728c-0.392,0.856-0.808,1.696-1.224,2.544
	c-0.768,1.536-1.552,3.056-2.4,4.536c-0.448,0.784-0.936,1.544-1.408,2.312c-0.92,1.488-1.84,2.968-2.84,4.4
	c-0.44,0.632-0.928,1.232-1.384,1.856c-1.12,1.512-2.232,3.016-3.44,4.456c-0.016,0.016-0.032,0.032-0.048,0.056
	C72,236.48,68.48,240,64.688,243.2c-0.016,0.016-0.032,0.032-0.056,0.048c-1.432,1.208-2.944,2.328-4.456,3.44
	c-0.624,0.456-1.216,0.944-1.856,1.384c-1.432,1-2.912,1.92-4.4,2.84c-0.768,0.472-1.528,0.96-2.312,1.408
	c-1.48,0.848-3,1.64-4.536,2.4c-0.84,0.416-1.688,0.832-2.544,1.224c-1.552,0.712-3.128,1.384-4.728,2.008
	c-0.88,0.344-1.768,0.664-2.664,0.976c-1.64,0.576-3.296,1.128-4.976,1.608c-0.872,0.248-1.752,0.456-2.632,0.68
	c-1.76,0.448-3.52,0.88-5.32,1.216c-0.76,0.144-1.536,0.232-2.304,0.352c-1.944,0.32-3.904,0.632-5.904,0.808V416.4
	c2,0.184,3.96,0.488,5.92,0.808c0.768,0.12,1.544,0.208,2.304,0.352c1.8,0.336,3.56,0.768,5.32,1.216
	c0.88,0.224,1.768,0.432,2.632,0.68c1.688,0.48,3.336,1.032,4.976,1.608c0.896,0.312,1.784,0.632,2.664,0.976
	c1.6,0.624,3.168,1.288,4.72,2c0.864,0.392,1.712,0.808,2.56,1.232c1.536,0.768,3.048,1.552,4.528,2.4
	c0.784,0.448,1.536,0.928,2.304,1.4c1.496,0.92,2.976,1.84,4.408,2.848c0.624,0.44,1.224,0.92,1.84,1.376
	c1.512,1.12,3.024,2.24,4.464,3.448c0.016,0.016,0.032,0.032,0.056,0.048C68.48,440,72,443.52,75.2,447.312
	c0.016,0.016,0.032,0.032,0.048,0.056c1.208,1.432,2.32,2.936,3.432,4.44c0.464,0.624,0.952,1.232,1.4,1.864
	c1,1.424,1.92,2.904,2.832,4.392c0.472,0.776,0.96,1.536,1.416,2.32c0.848,1.48,1.64,3,2.4,4.528
	c0.416,0.84,0.832,1.688,1.224,2.544c0.712,1.552,1.384,3.128,2.008,4.728c0.344,0.88,0.664,1.768,0.976,2.664
	c0.576,1.64,1.128,3.296,1.608,4.976c0.248,0.872,0.456,1.752,0.68,2.632c0.448,1.76,0.88,3.52,1.216,5.32
	c0.144,0.76,0.232,1.536,0.352,2.296c0.312,1.96,0.624,3.92,0.808,5.92H216V376z M190.808,468.2c-1.456,2.36-4.032,3.8-6.808,3.8
	h-72c-2.776,0-5.352-1.44-6.808-3.8s-1.592-5.304-0.352-7.784l36-72c2.712-5.424,11.6-5.424,14.312,0l36,72
	C192.392,462.896,192.264,465.84,190.808,468.2z M189.656,277.656l-104,104C84.096,383.216,82.048,384,80,384
	s-4.096-0.784-5.656-2.344l-32-32c-3.128-3.128-3.128-8.184,0-11.312l104-104c3.128-3.128,8.184-3.128,11.312,0l32,32
	C192.784,269.472,192.784,274.528,189.656,277.656z"/>
<g>
	<rect x="232" y="384" style="fill:#CC6C45;" width="48" height="112"/>
	<rect x="232" y="312" style="fill:#CC6C45;" width="48" height="56"/>
</g>
<path style="fill:#E2B624;" d="M176,40v72h16V40c0-4.424,3.584-8,8-8h112c4.416,0,8,3.576,8,8v72h16V40c0-13.232-10.768-24-24-24
	H200c-1.656,0-3.272,0.168-4.832,0.488C184.248,18.728,176,28.416,176,40z"/>
<path style="fill:#CC6C45;" d="M20.592,173.248c0.48-0.272,0.96-0.536,1.448-0.792c1.368-0.696,2.752-1.336,4.208-1.872
	c1.032-0.392,2.104-0.68,3.176-0.992c1.104-0.304,2.176-0.656,3.312-0.864C35.096,168.28,37.512,168,40,168h184h64h184
	c2.488,0,4.904,0.28,7.256,0.736c1.136,0.208,2.216,0.56,3.312,0.864c1.072,0.304,2.144,0.6,3.176,0.992
	c1.456,0.536,2.84,1.176,4.208,1.872c0.488,0.256,0.968,0.512,1.448,0.792c1.6,0.896,3.136,1.856,4.592,2.96V104
	c0-13.232-10.768-24-24-24H352v40c0,4.424-3.584,8-8,8h-32c-4.416,0-8-3.576-8-8V80h-96v40c0,4.424-3.576,8-8,8h-32
	c-4.416,0-8-3.576-8-8V80H40c-13.232,0-24,10.768-24,24v72.208C17.456,175.104,18.992,174.144,20.592,173.248z M464,112h16v16h-16
	V112z M432,112h16v16h-16V112z M400,112h16v16h-16V112z M368,112h16v16h-16V112z M232,120c0-13.232,10.768-24,24-24s24,10.768,24,24
	v8c0,13.232-10.768,24-24,24s-24-10.768-24-24V120z M128,112h16v16h-16V112z M96,112h16v16H96V112z M64,112h16v16H64V112z M32,112
	h16v16H32V112z"/>
<rect x="344.026" y="343.978" transform="matrix(-0.7071 0.7071 -0.7071 -0.7071 880.4584 387.2574)" style="fill:#E2B624;" width="32" height="63.999"/>
<path style="fill:#80CBED;" d="M417.208,490.08c0.12-0.768,0.208-1.536,0.352-2.296c0.336-1.8,0.768-3.56,1.216-5.32
	c0.224-0.88,0.432-1.768,0.68-2.632c0.48-1.688,1.032-3.336,1.608-4.976c0.312-0.896,0.632-1.784,0.976-2.664
	c0.624-1.6,1.288-3.168,2-4.72c0.392-0.864,0.816-1.712,1.232-2.56c0.76-1.528,1.544-3.04,2.392-4.52
	c0.456-0.792,0.944-1.56,1.416-2.336c0.912-1.48,1.832-2.96,2.824-4.384c0.448-0.64,0.936-1.248,1.4-1.872
	c1.112-1.504,2.224-3.008,3.432-4.44c0.016-0.016,0.032-0.032,0.048-0.056C440,443.52,443.52,440,447.312,436.8
	c0.016-0.016,0.032-0.032,0.056-0.048c1.432-1.208,2.936-2.32,4.44-3.432c0.624-0.464,1.232-0.952,1.872-1.4
	c1.424-1,2.896-1.912,4.384-2.824c0.776-0.48,1.544-0.968,2.336-1.416c1.48-0.848,2.984-1.632,4.52-2.392
	c0.848-0.424,1.696-0.84,2.56-1.232c1.552-0.712,3.128-1.376,4.72-2c0.88-0.344,1.768-0.664,2.664-0.976
	c1.64-0.576,3.296-1.128,4.976-1.608c0.872-0.248,1.752-0.456,2.632-0.68c1.76-0.448,3.52-0.88,5.32-1.216
	c0.76-0.144,1.536-0.232,2.296-0.352c1.96-0.312,3.92-0.624,5.92-0.808V263.592c-2-0.184-3.96-0.488-5.92-0.808
	c-0.768-0.12-1.536-0.208-2.296-0.352c-1.8-0.336-3.56-0.768-5.32-1.216c-0.88-0.224-1.768-0.432-2.632-0.68
	c-1.688-0.48-3.336-1.032-4.976-1.608c-0.896-0.312-1.784-0.632-2.664-0.976c-1.6-0.624-3.176-1.288-4.728-2.008
	c-0.856-0.392-1.696-0.808-2.544-1.224c-1.536-0.768-3.048-1.552-4.528-2.4c-0.784-0.456-1.552-0.936-2.32-1.416
	c-1.488-0.912-2.96-1.832-4.392-2.832c-0.64-0.448-1.24-0.936-1.864-1.4c-1.504-1.112-3.008-2.224-4.44-3.432
	c-0.016-0.016-0.032-0.032-0.056-0.048C443.52,240,440,236.48,436.8,232.688c-0.016-0.016-0.032-0.032-0.048-0.056
	c-1.216-1.44-2.328-2.952-3.448-4.464c-0.456-0.616-0.936-1.208-1.376-1.84c-1-1.432-1.928-2.92-2.848-4.408
	c-0.472-0.768-0.952-1.52-1.4-2.304c-0.848-1.48-1.632-2.992-2.4-4.528c-0.424-0.848-0.84-1.696-1.232-2.56
	c-0.712-1.552-1.376-3.128-2-4.72c-0.344-0.88-0.664-1.768-0.976-2.664c-0.576-1.64-1.128-3.296-1.608-4.976
	c-0.248-0.872-0.456-1.752-0.68-2.632c-0.448-1.76-0.88-3.52-1.216-5.32c-0.144-0.76-0.232-1.536-0.352-2.304
	c-0.312-1.96-0.624-3.92-0.808-5.92H296v120v72v120h120.408C416.584,494,416.896,492.04,417.208,490.08z M328,232
	c0-4.424,3.584-8,8-8h80c4.416,0,8,3.576,8,8v48c0,4.424-3.584,8-8,8h-80c-4.416,0-8-3.576-8-8V232z M410.912,392.968
	l-33.944,33.944c-1.504,1.504-3.536,2.344-5.656,2.344s-4.16-0.84-5.656-2.344l-56.568-56.568c-3.128-3.128-3.128-8.184,0-11.312
	l33.944-33.944c3-3,8.312-3,11.312,0l56.568,56.568C414.032,384.784,414.032,389.84,410.912,392.968z"/>
<path style="fill:#E2B624;" d="M472,184h-40c0,0.016,0,0.032,0,0.04c0,3.48,1.32,6.856,2.184,10.168
	c0.192,0.736,0.48,1.488,0.696,2.224c0.376,1.264,0.88,2.496,1.32,3.728c0.296,0.824,0.608,1.648,0.928,2.456
	c0.472,1.184,1.008,2.344,1.544,3.496c0.376,0.808,0.76,1.608,1.168,2.4c0.568,1.128,1.168,2.232,1.8,3.32
	c0.44,0.768,0.912,1.512,1.376,2.264c0.672,1.072,1.344,2.136,2.072,3.168c0.488,0.696,1.016,1.36,1.52,2.032
	c0.784,1.032,1.552,2.072,2.384,3.064c0.408,0.488,0.864,0.936,1.288,1.416c1.864,2.096,3.848,4.08,5.952,5.952
	c0.472,0.424,0.92,0.872,1.408,1.28c0.984,0.832,2.024,1.6,3.056,2.384c0.68,0.512,1.344,1.04,2.04,1.528
	c1.032,0.72,2.096,1.4,3.168,2.072c0.744,0.464,1.496,0.936,2.256,1.376c1.088,0.632,2.2,1.224,3.328,1.8
	c0.792,0.4,1.592,0.784,2.392,1.152c1.152,0.536,2.32,1.056,3.504,1.528c0.8,0.32,1.616,0.6,2.432,0.896
	c1.24,0.44,2.48,0.896,3.744,1.272c0.728,0.216,1.472,0.376,2.208,0.568c3.328,0.872,6.728,1.568,10.224,1.952V216v-8
	C496,194.768,485.232,184,472,184z"/>
<path style="fill:#CC6C45;" d="M256,136c4.408,0,8-3.584,8-8v-8c0-4.416-3.592-8-8-8c-4.408,0-8,3.584-8,8v8
	C248,132.416,251.592,136,256,136z"/>
<g>
	<path style="fill:#0B1716;" d="M472,64H352V40c0-22.056-17.944-40-40-40H200c-22.056,0-40,17.944-40,40v24H40
		C17.944,64,0,81.944,0,104v104v8v256c0,22.056,17.944,40,40,40h184h64h184c22.056,0,40-17.944,40-40V216v-8V104
		C512,81.944,494.056,64,472,64z M200,16h112c13.232,0,24,10.768,24,24v72h-16V40c0-4.424-3.584-8-8-8H200c-4.416,0-8,3.576-8,8v72
		l0,0h-16V40c0-11.584,8.248-21.272,19.168-23.512C196.728,16.168,198.352,16,200,16z M304,64h-96V48h96V64z M40,80h120l0,0v40
		c0,4.424,3.584,8,8,8h32c4.416,0,8-3.576,8-8V80h96v40c0,4.424,3.584,8,8,8h32c4.416,0,8-3.576,8-8V80h120
		c13.232,0,24,10.768,24,24v72.208c-1.456-1.104-2.992-2.064-4.592-2.96c-0.48-0.272-0.96-0.536-1.448-0.792
		c-1.368-0.696-2.752-1.336-4.208-1.872c-1.04-0.384-2.104-0.688-3.176-0.992c-1.104-0.304-2.176-0.656-3.312-0.864
		C476.896,168.296,474.488,168,472,168H288h-64H40c-2.488,0-4.896,0.296-7.256,0.736c-1.136,0.208-2.216,0.56-3.312,0.864
		c-1.072,0.296-2.144,0.608-3.176,0.992c-1.456,0.536-2.84,1.176-4.208,1.872c-0.496,0.248-0.968,0.52-1.448,0.792
		c-1.6,0.896-3.136,1.856-4.592,2.96V104C16,90.768,26.768,80,40,80z M94.792,490.08c-0.12-0.768-0.208-1.536-0.352-2.296
		c-0.336-1.8-0.768-3.56-1.216-5.32c-0.224-0.88-0.432-1.768-0.68-2.632c-0.48-1.688-1.032-3.336-1.608-4.976
		c-0.312-0.896-0.632-1.784-0.976-2.664c-0.624-1.6-1.288-3.176-2.008-4.728c-0.392-0.856-0.808-1.704-1.224-2.544
		c-0.768-1.536-1.552-3.048-2.4-4.528c-0.448-0.784-0.936-1.552-1.416-2.32c-0.912-1.488-1.832-2.96-2.832-4.392
		c-0.448-0.64-0.936-1.24-1.4-1.864c-1.112-1.504-2.224-3.008-3.432-4.44c-0.016-0.016-0.032-0.032-0.048-0.056
		c-3.2-3.8-6.72-7.32-10.512-10.52c-0.016-0.016-0.032-0.032-0.056-0.048c-1.44-1.216-2.952-2.328-4.464-3.448
		c-0.616-0.456-1.208-0.936-1.84-1.376c-1.432-1-2.92-1.928-4.408-2.848c-0.768-0.472-1.52-0.952-2.304-1.4
		c-1.48-0.848-2.992-1.632-4.528-2.4c-0.848-0.424-1.696-0.84-2.56-1.232c-1.552-0.712-3.128-1.376-4.72-2
		c-0.88-0.344-1.768-0.664-2.664-0.976c-1.64-0.576-3.296-1.128-4.976-1.608c-0.872-0.248-1.752-0.456-2.632-0.68
		c-1.76-0.448-3.52-0.88-5.32-1.216c-0.76-0.144-1.536-0.232-2.304-0.352c-1.952-0.32-3.912-0.632-5.912-0.808V263.592
		c2-0.184,3.96-0.488,5.92-0.808c0.768-0.12,1.544-0.208,2.304-0.352c1.8-0.336,3.56-0.768,5.32-1.216
		c0.88-0.224,1.768-0.432,2.632-0.68c1.688-0.48,3.336-1.032,4.976-1.608c0.896-0.312,1.784-0.632,2.664-0.976
		c1.6-0.624,3.176-1.288,4.728-2.008c0.856-0.392,1.696-0.808,2.544-1.224c1.536-0.768,3.056-1.552,4.536-2.4
		c0.784-0.448,1.544-0.936,2.312-1.408c1.488-0.92,2.968-1.84,4.4-2.84c0.632-0.44,1.232-0.928,1.856-1.384
		c1.512-1.12,3.016-2.232,4.456-3.44c0.016-0.016,0.032-0.032,0.056-0.048C68.48,240,72,236.48,75.2,232.688
		c0.016-0.016,0.032-0.032,0.048-0.056c1.208-1.432,2.328-2.944,3.44-4.456c0.456-0.624,0.944-1.216,1.384-1.856
		c1-1.432,1.92-2.912,2.84-4.4c0.472-0.768,0.96-1.528,1.408-2.312c0.848-1.48,1.64-3,2.4-4.536c0.416-0.84,0.832-1.688,1.224-2.544
		c0.712-1.552,1.384-3.128,2.008-4.728c0.344-0.88,0.664-1.768,0.976-2.664c0.576-1.64,1.128-3.296,1.608-4.976
		c0.248-0.872,0.456-1.752,0.68-2.632c0.448-1.76,0.88-3.52,1.216-5.32c0.144-0.76,0.232-1.536,0.352-2.304
		c0.312-1.96,0.624-3.92,0.808-5.92H216v120v72v120H95.592C95.416,494,95.104,492.04,94.792,490.08z M232,312h48v56h-48V312z
		 M280,296h-48V184h48V296z M16,208c0-13.232,10.768-24,24-24h40c0,0.016,0,0.032,0,0.04c0,3.48-1.32,6.856-2.184,10.168
		c-0.192,0.736-0.48,1.488-0.696,2.224c-0.376,1.264-0.88,2.496-1.32,3.728c-0.296,0.824-0.608,1.648-0.928,2.456
		c-0.472,1.184-1.008,2.344-1.544,3.496c-0.376,0.808-0.76,1.608-1.168,2.4c-0.576,1.128-1.168,2.232-1.8,3.32
		c-0.44,0.768-0.912,1.512-1.376,2.264c-0.672,1.072-1.344,2.136-2.072,3.168c-0.488,0.696-1.016,1.36-1.52,2.032
		c-0.784,1.032-1.552,2.072-2.384,3.064c-0.408,0.488-0.864,0.936-1.288,1.416c-1.864,2.096-3.848,4.08-5.952,5.952
		c-0.472,0.424-0.92,0.872-1.408,1.28c-0.992,0.832-2.024,1.6-3.056,2.384c-0.68,0.512-1.344,1.04-2.04,1.528
		c-1.032,0.728-2.096,1.4-3.168,2.072c-0.744,0.464-1.496,0.936-2.256,1.376c-1.088,0.632-2.2,1.224-3.328,1.8
		c-0.792,0.4-1.592,0.784-2.392,1.152c-1.16,0.536-2.32,1.056-3.504,1.528c-0.8,0.32-1.616,0.6-2.432,0.896
		c-1.24,0.448-2.48,0.896-3.744,1.272c-0.728,0.216-1.472,0.376-2.208,0.568c-3.336,0.864-6.736,1.552-10.232,1.944l0,0V216V208z
		 M16,472v-39.528l0,0c3.496,0.392,6.896,1.08,10.224,1.952c0.736,0.192,1.48,0.352,2.208,0.568
		c1.272,0.376,2.512,0.824,3.752,1.272c0.808,0.288,1.624,0.568,2.424,0.888c1.192,0.48,2.36,1,3.52,1.536
		c0.8,0.368,1.6,0.752,2.384,1.152c1.128,0.576,2.24,1.168,3.328,1.8c0.768,0.44,1.512,0.904,2.256,1.376
		c1.072,0.672,2.136,1.344,3.168,2.072c0.696,0.488,1.36,1.016,2.04,1.528c1.032,0.784,2.072,1.552,3.056,2.384
		c0.488,0.408,0.936,0.856,1.408,1.28c2.096,1.864,4.08,3.848,5.952,5.952c0.424,0.48,0.872,0.928,1.288,1.416
		c0.832,0.992,1.608,2.032,2.384,3.064c0.512,0.672,1.032,1.344,1.52,2.032c0.728,1.032,1.4,2.096,2.072,3.168
		c0.472,0.744,0.936,1.496,1.376,2.264c0.632,1.088,1.224,2.2,1.8,3.32c0.4,0.792,0.784,1.592,1.16,2.392
		c0.536,1.152,1.056,2.312,1.528,3.504c0.32,0.808,0.608,1.632,0.896,2.448c0.44,1.232,0.888,2.464,1.264,3.728
		c0.216,0.728,0.616,1.48,0.816,2.224C78.68,489.096,80,492.48,80,495.96c0,0.016,0,0.032,0,0.04H40C26.768,496,16,485.232,16,472z
		 M232,496V384h48v112H232z M296,376v-72V184h120.408c0.184,2,0.488,3.96,0.808,5.92c0.12,0.768,0.208,1.544,0.352,2.304
		c0.336,1.8,0.768,3.56,1.216,5.32c0.224,0.88,0.432,1.768,0.68,2.632c0.48,1.688,1.032,3.336,1.608,4.976
		c0.312,0.896,0.632,1.784,0.976,2.664c0.624,1.6,1.288,3.168,2,4.72c0.392,0.864,0.808,1.712,1.232,2.56
		c0.768,1.536,1.552,3.048,2.4,4.528c0.448,0.784,0.928,1.536,1.4,2.304c0.92,1.496,1.84,2.976,2.848,4.408
		c0.44,0.624,0.92,1.224,1.376,1.84c1.12,1.512,2.24,3.024,3.448,4.464c0.016,0.016,0.032,0.032,0.048,0.056
		c3.2,3.784,6.72,7.304,10.512,10.504c0.016,0.016,0.032,0.032,0.056,0.048c1.432,1.208,2.936,2.32,4.44,3.432
		c0.624,0.464,1.232,0.952,1.864,1.4c1.424,1,2.904,1.92,4.392,2.832c0.768,0.472,1.536,0.96,2.32,1.416
		c1.48,0.848,3,1.64,4.528,2.4c0.84,0.416,1.688,0.832,2.544,1.224c1.552,0.712,3.128,1.384,4.728,2.008
		c0.88,0.344,1.768,0.664,2.664,0.976c1.64,0.576,3.296,1.128,4.976,1.608c0.872,0.248,1.752,0.456,2.632,0.68
		c1.76,0.448,3.52,0.88,5.32,1.216c0.76,0.144,1.536,0.232,2.296,0.352c1.96,0.312,3.92,0.624,5.92,0.808v152.808
		c-2,0.184-3.96,0.488-5.92,0.808c-0.768,0.12-1.536,0.208-2.296,0.352c-1.8,0.336-3.56,0.768-5.32,1.216
		c-0.88,0.224-1.768,0.432-2.632,0.68c-1.688,0.48-3.336,1.032-4.976,1.608c-0.896,0.312-1.784,0.632-2.664,0.976
		c-1.6,0.624-3.168,1.288-4.72,2c-0.864,0.392-1.712,0.816-2.56,1.232c-1.528,0.76-3.04,1.544-4.52,2.392
		c-0.792,0.456-1.56,0.944-2.336,1.416c-1.48,0.912-2.96,1.832-4.384,2.824c-0.64,0.448-1.248,0.936-1.872,1.4
		c-1.504,1.112-3.008,2.224-4.44,3.432c-0.016,0.016-0.032,0.032-0.056,0.048C443.52,440,440,443.52,436.8,447.312
		c-0.016,0.016-0.032,0.032-0.048,0.056c-1.208,1.432-2.32,2.936-3.432,4.44c-0.464,0.624-0.952,1.232-1.4,1.872
		c-1,1.424-1.912,2.896-2.824,4.384c-0.48,0.776-0.968,1.544-1.416,2.336c-0.848,1.48-1.632,2.984-2.392,4.52
		c-0.424,0.848-0.84,1.696-1.232,2.56c-0.712,1.552-1.376,3.128-2,4.72c-0.344,0.88-0.664,1.768-0.976,2.664
		c-0.576,1.64-1.128,3.296-1.608,4.976c-0.248,0.872-0.456,1.752-0.68,2.632c-0.448,1.76-0.88,3.52-1.216,5.32
		c-0.144,0.76-0.232,1.536-0.352,2.296c-0.312,1.96-0.624,3.92-0.808,5.92H296V376z M496,472c0,13.232-10.768,24-24,24h-40
		c0-0.016,0-0.032,0-0.04c0-3.48,1.32-6.856,2.184-10.168c0.192-0.736,0.48-1.488,0.696-2.224c0.376-1.264,0.88-2.496,1.328-3.728
		c0.296-0.816,0.608-1.648,0.928-2.448c0.472-1.184,1.008-2.344,1.544-3.504c0.376-0.808,0.76-1.608,1.16-2.392
		c0.576-1.128,1.168-2.232,1.8-3.32c0.44-0.768,0.912-1.512,1.376-2.264c0.672-1.072,1.344-2.136,2.072-3.168
		c0.488-0.696,1.016-1.36,1.52-2.032c0.784-1.032,1.552-2.072,2.384-3.064c0.408-0.488,0.864-0.936,1.288-1.416
		c1.864-2.096,3.848-4.08,5.952-5.952c0.472-0.424,0.92-0.872,1.408-1.28c0.992-0.832,2.024-1.6,3.056-2.384
		c0.68-0.512,1.344-1.04,2.04-1.528c1.032-0.728,2.096-1.4,3.168-2.072c0.744-0.464,1.496-0.936,2.256-1.376
		c1.096-0.632,2.2-1.224,3.328-1.8c0.784-0.4,1.584-0.776,2.384-1.152c1.16-0.536,2.328-1.064,3.52-1.536
		c0.792-0.32,1.608-0.6,2.424-0.888c1.24-0.448,2.48-0.896,3.752-1.272c0.728-0.216,1.472-0.376,2.208-0.568
		c3.328-0.872,6.728-1.568,10.224-1.952l0,0L496,472L496,472z M496,247.528L496,247.528c-3.496-0.392-6.896-1.08-10.224-1.952
		c-0.736-0.192-1.48-0.352-2.208-0.568c-1.272-0.376-2.504-0.824-3.744-1.272c-0.816-0.288-1.632-0.576-2.432-0.896
		c-1.192-0.472-2.352-0.992-3.504-1.528c-0.808-0.376-1.608-0.752-2.392-1.152c-1.128-0.576-2.232-1.168-3.328-1.8
		c-0.768-0.44-1.512-0.904-2.256-1.376c-1.072-0.672-2.136-1.344-3.168-2.072c-0.696-0.488-1.36-1.016-2.04-1.528
		c-1.032-0.784-2.072-1.552-3.056-2.384c-0.488-0.408-0.936-0.856-1.408-1.28c-2.096-1.864-4.08-3.848-5.952-5.952
		c-0.424-0.48-0.872-0.928-1.288-1.416c-0.832-0.992-1.608-2.032-2.384-3.064c-0.512-0.672-1.032-1.344-1.52-2.032
		c-0.728-1.032-1.4-2.096-2.072-3.168c-0.472-0.744-0.936-1.496-1.376-2.264c-0.632-1.088-1.224-2.192-1.792-3.32
		c-0.4-0.792-0.784-1.592-1.16-2.4c-0.536-1.152-1.056-2.312-1.528-3.496c-0.32-0.808-0.608-1.632-0.904-2.456
		c-0.44-1.232-0.888-2.464-1.264-3.728c-0.216-0.728-0.616-1.48-0.816-2.224c-0.864-3.296-2.184-6.68-2.184-10.16
		c0-0.016,0-0.032,0-0.04h40c13.232,0,24,10.768,24,24v8V247.528z"/>
	<path style="fill:#0B1716;" d="M354.344,325.088c-3-3-8.312-3-11.312,0l-33.944,33.944c-3.128,3.128-3.128,8.184,0,11.312
		l56.568,56.568c1.504,1.504,3.536,2.344,5.656,2.344s4.152-0.84,5.656-2.344l33.944-33.944c3.128-3.128,3.128-8.184,0-11.312
		L354.344,325.088z M371.312,409.944l-45.256-45.256l22.632-22.632l45.256,45.256L371.312,409.944z"/>
	<path style="fill:#0B1716;" d="M336,288h80c4.416,0,8-3.576,8-8v-48c0-4.424-3.584-8-8-8h-80c-4.416,0-8,3.576-8,8v48
		C328,284.424,331.584,288,336,288z M344,240h64v32h-64V240z"/>
	<path style="fill:#0B1716;" d="M155.152,388.424c-2.712-5.424-11.6-5.424-14.312,0l-36,72c-1.24,2.48-1.104,5.424,0.352,7.784
		C106.648,470.56,109.224,472,112,472h72c2.776,0,5.352-1.44,6.808-3.8s1.592-5.304,0.352-7.784L155.152,388.424z M124.944,456
		L148,409.888L171.056,456H124.944z"/>
	<path style="fill:#0B1716;" d="M157.656,234.344c-3.128-3.128-8.184-3.128-11.312,0l-104,104c-3.128,3.128-3.128,8.184,0,11.312
		l32,32C75.904,383.216,77.952,384,80,384s4.096-0.784,5.656-2.344l104-104c3.128-3.128,3.128-8.184,0-11.312L157.656,234.344z
		 M80,364.688L59.312,344L152,251.312L172.688,272L80,364.688z"/>
	<rect x="32" y="112" style="fill:#0B1716;" width="16" height="16"/>
	<rect x="64" y="112" style="fill:#0B1716;" width="16" height="16"/>
	<rect x="96" y="112" style="fill:#0B1716;" width="16" height="16"/>
	<rect x="128" y="112" style="fill:#0B1716;" width="16" height="16"/>
	<rect x="368" y="112" style="fill:#0B1716;" width="16" height="16"/>
	<rect x="400" y="112" style="fill:#0B1716;" width="16" height="16"/>
	<rect x="432" y="112" style="fill:#0B1716;" width="16" height="16"/>
	<rect x="464" y="112" style="fill:#0B1716;" width="16" height="16"/>
	<path style="fill:#0B1716;" d="M256,152c13.232,0,24-10.768,24-24v-8c0-13.232-10.768-24-24-24s-24,10.768-24,24v8
		C232,141.232,242.768,152,256,152z M248,120c0-4.416,3.592-8,8-8c4.408,0,8,3.584,8,8v8c0,4.416-3.592,8-8,8c-4.408,0-8-3.584-8-8
		V120z"/>
</g>
<g>
</g>
<g>
</g>
<g>
</g>
<g>
</g>
<g>
</g>
<g>
</g>
<g>
</g>
<g>
</g>
<g>
</g>
<g>
</g>
<g>
</g>
<g>
</g>
<g>
</g>
<g>
</g>
<g>
</g>
</svg>
