<?xml version="1.0" encoding="iso-8859-1"?>
<!-- Generator: Adobe Illustrator 19.0.0, SVG Export Plug-In . SVG Version: 6.00 Build 0)  -->
<svg version="1.1" id="Layer_1" xmlns="http://www.w3.org/2000/svg" xmlns:xlink="http://www.w3.org/1999/xlink" x="0px" y="0px"
	 viewBox="0 0 480 480" style="enable-background:new 0 0 480 480;" xml:space="preserve">
<path style="fill:#95D8C6;" d="M340,148c0-8.184-4.944-15.24-12-18.328v36.656C335.056,163.24,340,156.184,340,148z"/>
<path style="fill:#EFA022;" d="M52.944,273.552c0.016,0.016,0.04,0.016,0.056,0.032c1.312,0.976,2.688,1.808,4.096,2.56
	c0.176,0.096,0.344,0.192,0.52,0.28c1.368,0.696,2.776,1.28,4.208,1.76c0.24,0.08,0.488,0.152,0.736,0.224
	c6.152,1.912,12.744,1.912,18.896,0c0.248-0.08,0.496-0.144,0.736-0.232c1.432-0.488,2.84-1.064,4.208-1.76
	c0.176-0.088,0.344-0.192,0.52-0.28c1.408-0.752,2.784-1.584,4.096-2.56c0.016-0.016,0.04-0.016,0.056-0.032
	c6.864-5.136,11.528-12.928,12.568-21.872l-9.968,9.968C92.152,263.16,90.12,264,88,264H64v-16h20.688L104,228.688V200H40v48
	C40,258.48,45.136,267.712,52.944,273.552z"/>
<path style="fill:#95D8C6;" d="M440,288h-5.52c-4.984,3.312-10.608,5.72-16.656,6.984l21.976,95.224
	c0.744,3.24-0.592,6.608-3.36,8.456l-24,16c-1.344,0.888-2.896,1.336-4.44,1.336s-3.096-0.448-4.44-1.344l-24-16
	c-2.768-1.84-4.104-5.208-3.36-8.456l21.976-95.224c-6.048-1.264-11.672-3.672-16.656-6.984H376c-13.232,0-24,10.768-24,24v1.744
	c2.504,5.776,4.472,11.816,5.808,18.104c0.064,0.304,0.152,0.608,0.216,0.912c0.536,2.648,0.944,5.336,1.256,8.056
	c0.064,0.536,0.176,1.072,0.224,1.608c0.312,3.16,0.496,6.352,0.496,9.584v112h104V312C464,298.768,453.232,288,440,288z"/>
<g>
	<path style="fill:#EFD01B;" d="M352,64h32c3.232,0,6.152,1.952,7.392,4.936c1.24,2.992,0.552,6.432-1.736,8.72l-4.84,4.848
		L464,65.528V16H352V64z M432,32h16v16h-16V32z M400,32h16v16h-16V32z M368,32h16v16h-16V32z"/>
	<polygon style="fill:#EFD01B;" points="408,398.384 422.96,388.416 408,323.576 393.04,388.416 	"/>
</g>
<g>
	<path style="fill:#EFA022;" d="M388.944,273.552c0.016,0.016,0.04,0.016,0.056,0.032c1.312,0.976,2.688,1.808,4.096,2.56
		c0.176,0.096,0.344,0.192,0.52,0.28c1.368,0.696,2.776,1.28,4.208,1.76c0.24,0.08,0.488,0.152,0.736,0.224
		c6.152,1.912,12.744,1.912,18.896,0c0.248-0.08,0.496-0.144,0.736-0.232c1.432-0.488,2.84-1.064,4.208-1.76
		c0.176-0.088,0.344-0.192,0.52-0.28c1.408-0.752,2.784-1.584,4.096-2.56c0.016-0.016,0.04-0.016,0.056-0.032
		c6.872-5.136,11.528-12.928,12.568-21.872l-9.968,9.968c-1.52,1.52-3.552,2.36-5.672,2.36h-24v-16h20.688L440,228.688V200h-64v48
		C376,258.48,381.136,267.712,388.944,273.552z"/>
	<path style="fill:#EFA022;" d="M209.992,257.368c2.336,1.072,4.704,2.032,7.112,2.84c0.008,0,0.016,0.008,0.016,0.008
		c14.864,5.016,30.888,5.016,45.752,0c0.008,0,0.008,0,0.016-0.008c2.408-0.816,4.776-1.768,7.112-2.84
		c23.736-10.944,40.488-34.392,41.816-61.872l-26.168,26.168C284.152,223.16,282.12,224,280,224h-64v-16h60.688l26.56-26.56
		C280.528,174.296,264,153.048,264,128v-8h-96v72C168,220.984,185.256,245.96,209.992,257.368z"/>
</g>
<path style="fill:#EFD01B;" d="M280,112v16c0,19.32,13.768,35.48,32,39.192V120v-16c0-22.056-17.944-40-40-40H128v8
	c0,17.648,14.352,32,32,32h112C276.416,104,280,107.584,280,112z"/>
<path style="fill:#95D8C6;" d="M104,288h-5.52c-4.984,3.312-10.608,5.72-16.656,6.984l21.976,95.224
	c0.744,3.24-0.592,6.608-3.36,8.456l-24,16C75.096,415.552,73.544,416,72,416s-3.096-0.448-4.44-1.344l-24-16
	c-2.768-1.84-4.104-5.208-3.36-8.456l21.976-95.224c-6.048-1.256-11.672-3.664-16.656-6.976H40c-13.232,0-24,10.768-24,24v152h104
	V352c0-3.232,0.176-6.424,0.488-9.584c0.056-0.536,0.16-1.072,0.224-1.608c0.312-2.72,0.72-5.408,1.256-8.056
	c0.064-0.304,0.152-0.608,0.216-0.912c1.336-6.288,3.304-12.328,5.808-18.104V312C128,298.768,117.232,288,104,288z"/>
<polygon style="fill:#EFD01B;" points="72,398.384 86.96,388.416 72,323.576 57.04,388.416 "/>
<path style="fill:#95D8C6;" d="M343.336,342.208c-0.28-2.248-0.624-4.488-1.096-6.704c-0.08-0.36-0.168-0.72-0.248-1.08
	c-1.216-5.312-2.952-10.52-5.264-15.592c-0.04-0.08-0.024-0.176-0.056-0.256c-11.12-24.224-33.96-42.048-61.8-45.816
	C264.168,277.4,252.384,280,240,280s-24.168-2.6-34.864-7.24c-27.84,3.768-50.68,21.592-61.8,45.816
	c-0.032,0.08-0.016,0.176-0.056,0.256c-2.32,5.064-4.056,10.28-5.264,15.592c-0.08,0.36-0.176,0.72-0.248,1.08
	c-0.472,2.216-0.816,4.456-1.096,6.704c-0.064,0.552-0.168,1.088-0.224,1.64C136.16,346.544,136,349.264,136,352v112h208V352
	c0-2.736-0.16-5.456-0.44-8.152C343.504,343.296,343.4,342.752,343.336,342.208z M276.8,422.4l-32,24
	c-1.424,1.072-3.112,1.6-4.8,1.6c-1.688,0-3.376-0.528-4.8-1.6l-32-24c-2.752-2.064-3.88-5.664-2.792-8.928l30.064-90.2
	l-18.912-12.608l8.872-13.312L240,310.384l19.56-13.04l8.872,13.312l-18.912,12.608l30.064,90.2
	C280.68,416.736,279.552,420.336,276.8,422.4z"/>
<polygon style="fill:#EFD01B;" points="217.416,413.064 240,430 262.584,413.064 240,345.296 "/>
<path d="M249.52,323.264l18.912-12.608l-8.872-13.312L240,310.384l-19.56-13.04l-8.872,13.312l18.912,12.608l-30.064,90.2
	c-1.088,3.264,0.032,6.864,2.792,8.928l32,24c1.424,1.072,3.112,1.6,4.8,1.6c1.688,0,3.376-0.528,4.8-1.6l32-24
	c2.752-2.064,3.88-5.664,2.792-8.928L249.52,323.264z M240,430l-22.584-16.936L240,345.296l22.584,67.768L240,430z"/>
<path d="M448.856,273.064C453.36,265.76,456,257.192,456,248v-56c0-4.416-3.584-8-8-8h-80c-4.416,0-8,3.584-8,8v56
	c0,9.192,2.64,17.76,7.144,25.064c-11.68,2.664-21.32,10.472-26.64,20.888c-11.496-15.16-27.456-26.76-46.072-32.944
	C314.84,244.88,328,219.976,328,192v-8.968c16-3.656,28-17.944,28-35.032s-12-31.376-28-35.032V104c0-30.88-25.12-56-56-56H120
	c-4.416,0-8,3.584-8,8v16c0,23.736,17.336,43.448,40,47.28V192c0,27.976,13.16,52.88,33.568,69.016
	c-18.616,6.184-34.576,17.784-46.072,32.944c-5.32-10.416-14.952-18.224-26.64-20.888C117.36,265.76,120,257.192,120,248v-56
	c0-4.416-3.584-8-8-8H32c-4.416,0-8,3.584-8,8v56c0,9.192,2.64,17.76,7.144,25.064C13.352,277.12,0,293,0,312v160
	c0,4.424,3.584,8,8,8h120h224h120c4.416,0,8-3.576,8-8V312C480,293,466.648,277.12,448.856,273.064z M422.96,388.416L408,398.384
	l-14.96-9.968l14.96-64.84L422.96,388.416z M376,200h64v28.688L420.688,248H400v16h24c2.12,0,4.152-0.84,5.656-2.344l9.968-9.968
	c-1.04,8.944-5.704,16.728-12.568,21.872c-0.016,0.016-0.04,0.016-0.056,0.032c-1.312,0.976-2.688,1.808-4.096,2.56
	c-0.176,0.096-0.344,0.192-0.52,0.28c-1.368,0.696-2.776,1.28-4.208,1.76c-0.24,0.08-0.488,0.152-0.736,0.232
	c-6.152,1.912-12.744,1.912-18.896,0c-0.248-0.08-0.488-0.144-0.736-0.224c-1.432-0.488-2.84-1.064-4.208-1.76
	c-0.176-0.088-0.344-0.192-0.52-0.28c-1.408-0.752-2.784-1.584-4.096-2.56c-0.016-0.016-0.04-0.016-0.056-0.032
	C381.136,267.712,376,258.48,376,248V200z M340,148c0,8.184-4.944,15.24-12,18.328v-36.656C335.056,132.76,340,139.816,340,148z
	 M128,72v-8h144c22.056,0,40,17.944,40,40v16v47.192c-18.232-3.712-32-19.88-32-39.192v-16c0-4.416-3.584-8-8-8H160
	C142.352,104,128,89.648,128,72z M168,192v-72h96v8c0,25.048,16.528,46.296,39.248,53.44L276.688,208H216v16h64
	c2.12,0,4.152-0.84,5.656-2.344l26.168-26.168c-1.328,27.48-18.08,50.928-41.816,61.872c-2.336,1.072-4.704,2.032-7.112,2.84
	c-0.008,0-0.008,0.008-0.016,0.008c-14.864,5.016-30.888,5.016-45.752,0c-0.008,0-0.008,0-0.016-0.008
	c-2.408-0.816-4.776-1.768-7.112-2.84C185.256,245.96,168,220.984,168,192z M86.96,388.416L72,398.384l-14.96-9.968L72,323.576
	L86.96,388.416z M40,200h64v28.688L84.688,248H64v16h24c2.12,0,4.152-0.84,5.656-2.344l9.968-9.968
	c-1.04,8.944-5.704,16.728-12.568,21.872c-0.016,0.016-0.04,0.016-0.056,0.032c-1.312,0.976-2.688,1.808-4.096,2.56
	c-0.176,0.096-0.344,0.192-0.52,0.28c-1.368,0.696-2.776,1.28-4.208,1.76c-0.24,0.08-0.488,0.152-0.736,0.232
	c-6.152,1.912-12.744,1.912-18.896,0c-0.248-0.08-0.488-0.144-0.736-0.224c-1.432-0.488-2.84-1.064-4.208-1.76
	c-0.176-0.088-0.344-0.192-0.52-0.28c-1.408-0.752-2.784-1.584-4.096-2.56c-0.016-0.016-0.04-0.016-0.056-0.032
	C45.136,267.712,40,258.48,40,248V200z M16,312c0-13.232,10.768-24,24-24h5.52c4.984,3.312,10.608,5.72,16.656,6.984L40.2,390.2
	c-0.744,3.24,0.592,6.608,3.36,8.456l24,16C68.904,415.552,70.456,416,72,416s3.096-0.448,4.44-1.344l24-16
	c2.768-1.84,4.104-5.208,3.36-8.456l-21.976-95.224c6.048-1.264,11.672-3.672,16.656-6.984H104c13.232,0,24,10.768,24,24v1.744
	c-2.504,5.776-4.472,11.816-5.808,18.104c-0.064,0.304-0.152,0.608-0.216,0.912c-0.536,2.648-0.944,5.336-1.256,8.056
	c-0.064,0.536-0.176,1.072-0.224,1.608c-0.32,3.16-0.496,6.352-0.496,9.584v112H16V312z M136,352c0-2.736,0.16-5.456,0.44-8.152
	c0.056-0.552,0.16-1.096,0.224-1.64c0.28-2.248,0.624-4.488,1.096-6.704c0.072-0.36,0.168-0.72,0.248-1.08
	c1.216-5.312,2.952-10.52,5.264-15.592c0.04-0.08,0.024-0.176,0.056-0.256c11.12-24.224,33.96-42.048,61.8-45.816
	C215.832,277.4,227.616,280,240,280s24.168-2.6,34.864-7.24c27.84,3.768,50.68,21.592,61.8,45.816
	c0.032,0.08,0.016,0.176,0.056,0.256c2.32,5.064,4.056,10.28,5.264,15.592c0.08,0.36,0.176,0.72,0.248,1.08
	c0.472,2.216,0.816,4.456,1.096,6.704c0.064,0.552,0.168,1.088,0.232,1.64c0.28,2.696,0.44,5.416,0.44,8.152v112H136V352z M464,464
	H360V352c0-3.232-0.184-6.424-0.496-9.584c-0.056-0.536-0.16-1.072-0.224-1.608c-0.312-2.72-0.72-5.408-1.256-8.056
	c-0.064-0.304-0.152-0.608-0.216-0.912c-1.336-6.288-3.304-12.328-5.808-18.104V312c0-13.232,10.768-24,24-24h5.52
	c4.984,3.312,10.608,5.72,16.656,6.984L376.2,390.208c-0.744,3.24,0.592,6.608,3.36,8.456l24,16c1.344,0.888,2.896,1.336,4.44,1.336
	s3.096-0.448,4.44-1.344l24-16c2.768-1.84,4.104-5.208,3.36-8.456l-21.976-95.224c6.048-1.264,11.672-3.672,16.656-6.984H440
	c13.232,0,24,10.768,24,24V464z"/>
<rect x="400" y="152" width="16" height="16"/>
<rect x="400" y="120" width="16" height="16"/>
<rect x="432" y="120" width="16" height="16"/>
<rect x="368" y="120" width="16" height="16"/>
<rect x="64" y="152" width="16" height="16"/>
<rect x="64" y="120" width="16" height="16"/>
<rect x="96" y="120" width="16" height="16"/>
<rect x="32" y="120" width="16" height="16"/>
<rect x="368" y="32" width="16" height="16"/>
<rect x="400" y="32" width="16" height="16"/>
<rect x="432" y="32" width="16" height="16"/>
<path d="M472,0H344c-4.416,0-8,3.584-8,8v64c0,4.416,3.584,8,8,8h20.688l-10.344,10.344c-2.512,2.504-3.064,6.36-1.368,9.48
	c1.416,2.608,4.136,4.176,7.024,4.176c0.552,0,1.12-0.056,1.672-0.176l112-24C477.36,79.032,480,75.776,480,72V8
	C480,3.584,476.416,0,472,0z M464,65.528l-79.184,16.968l4.84-4.848c2.288-2.288,2.976-5.728,1.736-8.72
	C390.152,65.952,387.232,64,384,64h-32V16h112V65.528z"/>
<g>
</g>
<g>
</g>
<g>
</g>
<g>
</g>
<g>
</g>
<g>
</g>
<g>
</g>
<g>
</g>
<g>
</g>
<g>
</g>
<g>
</g>
<g>
</g>
<g>
</g>
<g>
</g>
<g>
</g>
</svg>
