<?xml version="1.0" encoding="iso-8859-1"?>
<!-- Generator: Adobe Illustrator 19.0.0, SVG Export Plug-In . SVG Version: 6.00 Build 0)  -->
<svg version="1.1" id="Capa_1" xmlns="http://www.w3.org/2000/svg" xmlns:xlink="http://www.w3.org/1999/xlink" x="0px" y="0px"
	 viewBox="0 0 480 480" style="enable-background:new 0 0 480 480;" xml:space="preserve">
<path style="fill:#E07A5F;" d="M440,16H248v72h3.048c6.584,0,13.624-1.616,22.136-5.096c8.352-3.416,17.48-3.824,26.408-1.216
	c13.504,3.936,24.248,15.344,27.36,29.064c2.76,12.168-0.04,24.632-7.68,34.192C311.632,154.512,300.232,160,288,160
	c-4.912,0-9.728-0.912-14.32-2.712c-9.192-3.608-16.704-5.288-23.632-5.288H248v80h80v-3.04c0-6.6-1.616-13.64-5.096-22.152
	c-3.408-8.336-3.832-17.472-1.216-26.408c3.936-13.512,15.344-24.256,29.064-27.368c12.176-2.736,24.64,0.048,34.2,7.696
	C394.512,168.376,400,179.776,400,192c0,4.92-0.912,9.744-2.712,14.32c-3.608,9.184-5.288,16.696-5.288,23.624V232h72V40
	C464,26.768,453.232,16,440,16z"/>
<path style="fill:#41D3BD;" d="M96,228.96c0-6.6-1.616-13.64-5.096-22.152c-3.4-8.344-3.824-17.48-1.216-26.408
	c3.936-13.512,15.344-24.256,29.064-27.368c12.184-2.736,24.64,0.048,34.2,7.696S168,179.776,168,192
	c0,4.92-0.912,9.744-2.712,14.32c-3.608,9.192-5.288,16.704-5.288,23.632V232h72v-88c0-4.424,3.584-8,8-8h10.048
	c9,0,18.36,2.032,29.48,6.4c9.552,3.744,20.832,0.576,27.24-7.44c4.656-5.832,6.288-13.168,4.584-20.68
	c-1.84-8.136-8.216-14.896-16.24-17.232c-5.416-1.592-10.92-1.352-15.888,0.672c-10.496,4.288-19.448,6.28-28.176,6.28H240
	c-4.416,0-8-3.576-8-8V16H40c-13.232,0-24,10.768-24,24v192h80V228.96z"/>
<path style="fill:#11222B;" d="M0,240v200c0,22.056,17.944,40,40,40h200h200c22.056,0,40-17.944,40-40V240V40
	c0-22.056-17.944-40-40-40H240H40C17.944,0,0,17.944,0,40V240z M16,40c0-13.232,10.768-24,24-24h192v80c0,4.424,3.584,8,8,8h11.048
	c8.728,0,17.68-1.992,28.176-6.28c4.968-2.024,10.472-2.264,15.888-0.672c8.016,2.336,14.392,9.104,16.24,17.232
	c1.696,7.504,0.072,14.848-4.584,20.68c-6.4,8.016-17.68,11.176-27.24,7.44c-11.12-4.368-20.488-6.4-29.48-6.4H240
	c-4.416,0-8,3.576-8,8v88h-72v-2.048c0-6.928,1.68-14.44,5.288-23.632c1.8-4.576,2.712-9.4,2.712-14.32
	c0-12.224-5.488-23.624-15.048-31.264c-9.56-7.648-22.016-10.432-34.2-7.696c-13.712,3.112-25.128,13.848-29.064,27.368
	c-2.608,8.928-2.184,18.064,1.216,26.408C94.384,215.32,96,222.36,96,228.96V232H16V40z M464,440c0,13.232-10.768,24-24,24H248v-80
	h2.048c6.928,0,14.44,1.68,23.64,5.288c4.584,1.8,9.4,2.712,14.312,2.712c12.232,0,23.632-5.488,31.272-15.056
	s10.44-22.032,7.68-34.192c-3.104-13.72-13.84-25.128-27.352-29.064c-8.928-2.6-18.056-2.184-26.408,1.216
	c-8.528,3.48-15.56,5.096-22.152,5.096H248v-72h88c4.416,0,8-3.576,8-8v-11.04c0-8.744-2-17.704-6.28-28.192
	c-2.024-4.96-2.256-10.448-0.672-15.872c2.336-8.024,9.104-14.4,17.24-16.24c7.496-1.688,14.848-0.072,20.68,4.584
	C380.704,177.824,384,184.664,384,192c0,2.912-0.536,5.768-1.6,8.48c-4.368,11.112-6.4,20.472-6.4,29.472V240c0,4.424,3.584,8,8,8
	h80V440z M16,248h88c4.416,0,8-3.576,8-8v-11.04c0-8.744-2-17.704-6.28-28.192c-2.024-4.96-2.256-10.456-0.672-15.872
	c2.336-8.024,9.104-14.4,17.24-16.24c7.504-1.688,14.848-0.072,20.68,4.584C148.704,177.824,152,184.664,152,192
	c0,2.912-0.536,5.768-1.6,8.48c-4.368,11.12-6.4,20.488-6.4,29.48V240c0,4.424,3.584,8,8,8h80v80c0,4.424,3.584,8,8,8h11.04
	c8.728,0,17.688-1.992,28.184-6.28c4.968-2.024,10.472-2.256,15.888-0.672c2.008,0.584,3.904,1.448,5.664,2.536
	c5.264,3.272,9.192,8.6,10.576,14.696c0,0,0,0,0,0.008c1.696,7.504,0.072,14.84-4.584,20.672c-6.4,8.016-17.68,11.176-27.24,7.44
	c-11.12-4.368-20.488-6.4-29.48-6.4H240c-4.416,0-8,3.576-8,8v88H40c-13.232,0-24-10.768-24-24V248z M464,232h-72v-2.056
	c0-6.928,1.68-14.44,5.288-23.624c1.8-4.576,2.712-9.4,2.712-14.32c0-12.224-5.488-23.624-15.048-31.264
	c-9.568-7.648-22.024-10.432-34.2-7.696c-13.712,3.112-25.128,13.848-29.064,27.368c-2.608,8.936-2.184,18.072,1.216,26.408
	c3.48,8.504,5.096,15.544,5.096,22.144V232h-80v-80h2.048c6.928,0,14.44,1.68,23.64,5.288c4.584,1.8,9.4,2.712,14.312,2.712
	c12.232,0,23.632-5.488,31.272-15.056c7.64-9.56,10.44-22.032,7.68-34.192c-3.112-13.72-13.848-25.128-27.36-29.064
	c-8.928-2.6-18.056-2.192-26.408,1.216c-8.52,3.48-15.552,5.096-22.136,5.096H248V16h192c13.232,0,24,10.768,24,24V232z"/>
<g>
	<path style="fill:#41D3BD;" d="M376,240v-10.056c0-9,2.032-18.36,6.4-29.472c1.064-2.704,1.6-5.56,1.6-8.472
		c0-7.336-3.296-14.176-9.032-18.768c-5.832-4.656-13.184-6.272-20.68-4.584c-8.136,1.84-14.896,8.216-17.24,16.24
		c-1.584,5.432-1.352,10.912,0.672,15.872c4.28,10.496,6.28,19.456,6.28,28.2V240c0,4.424-3.584,8-8,8h-88v72h3.04
		c6.592,0,13.624-1.616,22.144-5.096c8.352-3.408,17.48-3.824,26.408-1.216c13.512,3.936,24.256,15.344,27.352,29.064
		c2.76,12.168-0.04,24.624-7.68,34.192S300.232,392,288,392c-4.912,0-9.728-0.912-14.32-2.712
		c-9.192-3.608-16.704-5.288-23.632-5.288H248v80h192c13.232,0,24-10.768,24-24V248h-80C379.584,248,376,244.424,376,240z"/>
	<path style="fill:#41D3BD;" d="M40,464h192v-88c0-4.424,3.584-8,8-8h10.048c9,0,18.36,2.032,29.48,6.4
		c9.552,3.744,20.832,0.576,27.24-7.44c4.656-5.832,6.28-13.168,4.584-20.672c0-0.008,0-0.008,0-0.008
		c-1.384-6.096-5.312-11.432-10.576-14.696c-1.752-1.088-3.656-1.952-5.664-2.536c-5.416-1.584-10.92-1.352-15.888,0.672
		c-10.496,4.288-19.448,6.28-28.184,6.28H240c-4.416,0-8-3.576-8-8v-80h-80c-4.416,0-8-3.576-8-8v-10.048
		c0-8.992,2.032-18.36,6.4-29.48c1.064-2.704,1.6-5.56,1.6-8.472c0-7.336-3.296-14.176-9.032-18.768
		c-5.832-4.656-13.176-6.272-20.68-4.584c-8.136,1.84-14.896,8.216-17.24,16.24c-1.584,5.424-1.352,10.912,0.672,15.872
		c4.28,10.496,6.28,19.456,6.28,28.2V240c0,4.424-3.584,8-8,8H16v192C16,453.232,26.768,464,40,464z"/>
</g>
<g>
</g>
<g>
</g>
<g>
</g>
<g>
</g>
<g>
</g>
<g>
</g>
<g>
</g>
<g>
</g>
<g>
</g>
<g>
</g>
<g>
</g>
<g>
</g>
<g>
</g>
<g>
</g>
<g>
</g>
</svg>
