<?xml version="1.0" encoding="iso-8859-1"?>
<!-- Generator: Adobe Illustrator 19.0.0, SVG Export Plug-In . SVG Version: 6.00 Build 0)  -->
<svg version="1.1" id="Capa_1" xmlns="http://www.w3.org/2000/svg" xmlns:xlink="http://www.w3.org/1999/xlink" x="0px" y="0px"
	 viewBox="0 0 480 480" style="enable-background:new 0 0 480 480;" xml:space="preserve">
<g>
	<path style="fill:#F8CF26;" d="M48,408v32c0,13.232,10.768,24,24,24h360v-80H72C58.768,384,48,394.768,48,408z M120,448h-16v-16h16
		V448z M152,448h-16v-16h16V448z M376,432h16v16h-16V432z M360,448H216v-16h144V448z M304,400h16v16h-16V400z M272,400h16v16h-16
		V400z M240,400h16v16h-16V400z M88,400h136v16H88V400z"/>
	<path style="fill:#F8CF26;" d="M240,240c-0.792,0-1.584-0.12-2.352-0.352L144,210.832V224c0,52.936,43.064,96,96,96
		s96-43.064,96-96v-13.168l-93.648,28.816C241.584,239.88,240.792,240,240,240z M248,288c17.648,0,32-14.352,32-32h16
		c0,26.472-21.528,48-48,48V288z"/>
</g>
<g>
	<path style="fill:#3FE7EF;" d="M240,160c-0.776,0-1.552-0.112-2.296-0.336L144,131.552v62.536l96,29.536l96-29.536v-62.536
		l-93.704,28.112C241.552,159.888,240.776,160,240,160z"/>
	<polygon style="fill:#3FE7EF;" points="372.16,104 240,64.352 107.84,104 240,143.648 	"/>
</g>
<polygon style="fill:#5EA7A4;" points="80,296 96,296 96,260.944 88,256.944 80,260.944 "/>
<path style="fill:#E0634B;" d="M48,40v336.016C54.688,370.992,63,368,72,368h360V16H72C58.768,16,48,26.768,48,40z M77.704,96.336
	l160-48c1.496-0.448,3.104-0.448,4.592,0l160,48C405.68,97.352,408,100.472,408,104s-2.32,6.648-5.704,7.664L352,126.752V200v24
	c0,61.76-50.24,112-112,112s-112-50.24-112-112v-24v-73.248l-32-9.6v125.904l11.576,5.792C110.288,250.2,112,252.968,112,256v48
	c0,4.416-3.584,8-8,8H72c-4.416,0-8-3.584-8-8v-48c0-3.032,1.712-5.8,4.424-7.16L80,243.056V112.352l-2.296-0.688
	C74.32,110.648,72,107.528,72,104S74.32,97.352,77.704,96.336z"/>
<path d="M440,0H72C49.944,0,32,17.944,32,40v368v32c0,22.056,17.944,40,40,40h368c4.416,0,8-3.576,8-8v-96V8
	C448,3.584,444.416,0,440,0z M48,40c0-13.232,10.768-24,24-24h360v352H72c-9,0-17.312,2.992-24,8.016V40z M72,464
	c-13.232,0-24-10.768-24-24v-32c0-13.232,10.768-24,24-24h360v80H72z"/>
<path d="M104,312c4.416,0,8-3.584,8-8v-48c0-3.032-1.712-5.8-4.424-7.16L96,243.056V117.152l32,9.6V200v24
	c0,61.76,50.24,112,112,112s112-50.24,112-112v-24v-73.248l50.296-15.088C405.68,110.648,408,107.528,408,104
	s-2.32-6.648-5.704-7.664l-160-48c-1.496-0.448-3.104-0.448-4.592,0l-160,48C74.32,97.352,72,100.472,72,104s2.32,6.648,5.704,7.664
	L80,112.352v130.704l-11.576,5.792C65.712,250.2,64,252.968,64,256v48c0,4.416,3.584,8,8,8H104z M240,320c-52.936,0-96-43.064-96-96
	v-13.168l93.648,28.816c0.768,0.232,1.56,0.352,2.352,0.352c0.792,0,1.584-0.12,2.352-0.352L336,210.832V224
	C336,276.936,292.936,320,240,320z M336,194.088l-96,29.536l-96-29.536v-62.536l93.704,28.112c0.744,0.224,1.52,0.336,2.296,0.336
	s1.552-0.112,2.296-0.336L336,131.552V194.088z M240,64.352L372.16,104L240,143.648L107.84,104L240,64.352z M80,260.944l8-4l8,4V296
	H80V260.944z"/>
<path d="M248,288v16c26.472,0,48-21.528,48-48h-16C280,273.648,265.648,288,248,288z"/>
<rect x="88" y="400" width="136" height="16"/>
<rect x="216" y="432" width="144" height="16"/>
<rect x="376" y="432" width="16" height="16"/>
<rect x="240" y="400" width="16" height="16"/>
<rect x="272" y="400" width="16" height="16"/>
<rect x="304" y="400" width="16" height="16"/>
<rect x="104" y="432" width="16" height="16"/>
<rect x="136" y="432" width="16" height="16"/>
<g>
</g>
<g>
</g>
<g>
</g>
<g>
</g>
<g>
</g>
<g>
</g>
<g>
</g>
<g>
</g>
<g>
</g>
<g>
</g>
<g>
</g>
<g>
</g>
<g>
</g>
<g>
</g>
<g>
</g>
</svg>
