<?xml version="1.0" encoding="iso-8859-1"?>
<!-- Generator: Adobe Illustrator 19.0.0, SVG Export Plug-In . SVG Version: 6.00 Build 0)  -->
<svg version="1.1" id="Capa_1" xmlns="http://www.w3.org/2000/svg" xmlns:xlink="http://www.w3.org/1999/xlink" x="0px" y="0px"
	 viewBox="0 0 480 480" style="enable-background:new 0 0 480 480;" xml:space="preserve">
<path style="fill:#BEE5BF;" d="M344,264V144L232,256V144L120,256V144L8,256v216h336V288V264z M88,432H40v-48h48V432z M88,336H40v-48
	h48V336z M200,432h-48v-48h48V432z M200,336h-48v-48h48V336z M312,432h-48v-48h48V432z M312,336h-48v-48h48V336z"/>
<polygon style="fill:#79ACC6;" points="384,264 344,264 344,288 344,472 472,472 472,264 448,264 "/>
<rect x="384" y="120" style="fill:#DFF3E3;" width="64" height="144"/>
<g>
	<rect x="40" y="288" style="fill:#CE7DA5;" width="48" height="48"/>
	<rect x="152" y="288" style="fill:#CE7DA5;" width="48" height="48"/>
	<rect x="264" y="288" style="fill:#CE7DA5;" width="48" height="48"/>
	<rect x="40" y="384" style="fill:#CE7DA5;" width="48" height="48"/>
	<rect x="152" y="384" style="fill:#CE7DA5;" width="48" height="48"/>
	<rect x="264" y="384" style="fill:#CE7DA5;" width="48" height="48"/>
</g>
<g>
	<path style="fill:#493657;" d="M472,256h-16V120c0-4.424-3.584-8-8-8h-64c-4.416,0-8,3.576-8,8v136h-24V144
		c0-3.232-1.952-6.16-4.936-7.392c-3-1.248-6.432-0.552-8.72,1.736L240,236.688V144c0-3.232-1.952-6.16-4.936-7.392
		c-3.008-1.248-6.432-0.552-8.72,1.736L128,236.688V144c0-3.232-1.952-6.16-4.936-7.392c-3-1.248-6.44-0.552-8.72,1.736l-112,112
		C0.84,251.84,0,253.872,0,256v216c0,4.424,3.584,8,8,8h336h128c4.416,0,8-3.576,8-8V264C480,259.576,476.416,256,472,256z M392,128
		h48v128h-48V128z M16,259.312l96-96V256c0,3.232,1.952,6.16,4.936,7.392c2.992,1.24,6.432,0.552,8.72-1.736L224,163.312V256
		c0,3.232,1.952,6.16,4.936,7.392c2.992,1.24,6.424,0.552,8.72-1.736L336,163.312V264v200H16V259.312z M464,464H352V272h32h64h16
		V464z"/>
	<path style="fill:#493657;" d="M408,96V56c0-13.232-10.768-24-24-24H184v16h200c4.408,0,8,3.584,8,8v40H408z"/>
	<path style="fill:#493657;" d="M440,96V48c0-26.472-21.528-48-48-48H152v16h240c17.648,0,32,14.352,32,32v48H440z"/>
	<rect x="88" y="32" style="fill:#493657;" width="64" height="16"/>
	<rect x="40" y="32" style="fill:#493657;" width="16" height="16"/>
	<rect y="32" style="fill:#493657;" width="16" height="16"/>
	<rect x="40" style="fill:#493657;" width="88" height="16"/>
	<rect style="fill:#493657;" width="16" height="16"/>
	<path style="fill:#493657;" d="M88,280H40c-4.416,0-8,3.576-8,8v48c0,4.424,3.584,8,8,8h48c4.416,0,8-3.576,8-8v-48
		C96,283.576,92.416,280,88,280z M80,328H48v-32h32V328z"/>
	<path style="fill:#493657;" d="M200,280h-48c-4.416,0-8,3.576-8,8v48c0,4.424,3.584,8,8,8h48c4.416,0,8-3.576,8-8v-48
		C208,283.576,204.416,280,200,280z M192,328h-32v-32h32V328z"/>
	<path style="fill:#493657;" d="M312,280h-48c-4.416,0-8,3.576-8,8v48c0,4.424,3.584,8,8,8h48c4.416,0,8-3.576,8-8v-48
		C320,283.576,316.416,280,312,280z M304,328h-32v-32h32V328z"/>
	<path style="fill:#493657;" d="M88,376H40c-4.416,0-8,3.576-8,8v48c0,4.424,3.584,8,8,8h48c4.416,0,8-3.576,8-8v-48
		C96,379.576,92.416,376,88,376z M80,424H48v-32h32V424z"/>
	<path style="fill:#493657;" d="M200,376h-48c-4.416,0-8,3.576-8,8v48c0,4.424,3.584,8,8,8h48c4.416,0,8-3.576,8-8v-48
		C208,379.576,204.416,376,200,376z M192,424h-32v-32h32V424z"/>
	<path style="fill:#493657;" d="M312,376h-48c-4.416,0-8,3.576-8,8v48c0,4.424,3.584,8,8,8h48c4.416,0,8-3.576,8-8v-48
		C320,379.576,316.416,376,312,376z M304,424h-32v-32h32V424z"/>
</g>
<g>
</g>
<g>
</g>
<g>
</g>
<g>
</g>
<g>
</g>
<g>
</g>
<g>
</g>
<g>
</g>
<g>
</g>
<g>
</g>
<g>
</g>
<g>
</g>
<g>
</g>
<g>
</g>
<g>
</g>
</svg>
