<?xml version="1.0" encoding="iso-8859-1"?>
<!-- Generator: Adobe Illustrator 19.0.0, SVG Export Plug-In . SVG Version: 6.00 Build 0)  -->
<svg version="1.1" id="Capa_1" xmlns="http://www.w3.org/2000/svg" xmlns:xlink="http://www.w3.org/1999/xlink" x="0px" y="0px"
	 viewBox="0 0 480 480" style="enable-background:new 0 0 480 480;" xml:space="preserve">
<g>
	<path style="fill:#94D8E3;" d="M432,232v-72c-17.672,0-32-14.328-32-32c0,17.672-14.328,32-32,32s-32-14.328-32-32
		c0,17.672-14.328,32-32,32s-32-14.328-32-32c0,17.672-14.328,32-32,32s-32-14.328-32-32c0,17.672-14.328,32-32,32s-32-14.328-32-32
		c0,17.672-14.328,32-32,32s-32-14.328-32-32c0,17.672-14.328,32-32,32v72H432z M400,192h-16H400z M368,192h-16H368z M304,192H112
		H304z M96,192H80H96z"/>
	<path style="fill:#94D8E3;" d="M48,440c0,17.672,14.328,32,32,32h320c17.672,0,32-14.328,32-32v-48H48V440z M400,432h-16H400z
		 M368,432h-16H368z M304,432H112H304z M96,432H80H96z"/>
	<path style="fill:#94D8E3;" d="M48,392h384v-80H48V392z M400,352h-16H400z M368,352h-16H368z M304,352H112H304z M96,352H80H96z"/>
	<path style="fill:#94D8E3;" d="M48,312h384v-80H48V312z M400,272h-16H400z M368,272h-16H368z M304,272H112H304z M96,272H80H96z"/>
</g>
<path style="fill:#FF7E6B;" d="M80,128V96H16v32c0,17.672,14.328,32,32,32S80,145.672,80,128z"/>
<path style="fill:#F4EFEF;" d="M80,96v32c0,17.672,14.328,32,32,32s32-14.328,32-32V96H80z"/>
<path style="fill:#FF7E6B;" d="M144,96v32c0,17.672,14.328,32,32,32s32-14.328,32-32V96H144z"/>
<path style="fill:#F4EFEF;" d="M208,96v32c0,17.672,14.328,32,32,32s32-14.328,32-32V96H208z"/>
<path style="fill:#FF7E6B;" d="M272,96v32c0,17.672,14.328,32,32,32s32-14.328,32-32V96H272z"/>
<path style="fill:#F4EFEF;" d="M336,96v32c0,17.672,14.328,32,32,32s32-14.328,32-32V96H336z"/>
<path style="fill:#FF7E6B;" d="M400,128c0,17.672,14.328,32,32,32s32-14.328,32-32V96h-64V128z"/>
<path style="fill:#F4EFEF;" d="M208,8h64v88h-64V8z"/>
<g>
	<path style="fill:#FF7E6B;" d="M144,8h64v88h-64V8z"/>
	<path style="fill:#FF7E6B;" d="M272,8h64v88h-64V8z"/>
</g>
<g>
	<path style="fill:#F4EFEF;" d="M336,8h64v88h-64V8z"/>
	<path style="fill:#F4EFEF;" d="M80,8h64v88H80V8z"/>
</g>
<g>
	<path style="fill:#FF7E6B;" d="M80,8H40L16,96h64V8z"/>
	<path style="fill:#FF7E6B;" d="M464,96L440,8h-40v88H464z"/>
</g>
<g>
	<path style="fill:#474747;" d="M40,312v80v48c0,22.056,17.944,40,40,40h320c22.056,0,40-17.944,40-40v-48v-80v-80v-64.808
		c18.232-3.72,32-19.872,32-39.192V96c0-0.44-0.184-0.816-0.248-1.232c-0.048-0.288,0.048-0.584-0.032-0.872l-24-88
		C446.768,2.416,443.608,0,440,0H40c-3.608,0-6.768,2.416-7.72,5.896l-24,88c-0.08,0.288,0.016,0.576-0.032,0.872
		C8.184,95.184,8,95.568,8,96v32c0,19.312,13.768,35.472,32,39.192V232V312z M56,167.192c9.808-2,18.224-7.68,24-15.44
		c7.296,9.8,18.872,16.248,32,16.248s24.704-6.448,32-16.248c7.296,9.8,18.872,16.248,32,16.248s24.704-6.448,32-16.248
		c7.296,9.8,18.872,16.248,32,16.248c13.128,0,24.704-6.448,32-16.248c7.296,9.8,18.872,16.248,32,16.248s24.704-6.448,32-16.248
		c7.296,9.8,18.872,16.248,32,16.248s24.704-6.448,32-16.248c5.776,7.76,14.192,13.44,24,15.44V224H56V167.192z M392,128
		c0,13.232-10.768,24-24,24s-24-10.768-24-24v-24h48V128z M328,128c0,13.232-10.768,24-24,24s-24-10.768-24-24v-24h48V128z M264,128
		c0,13.232-10.768,24-24,24s-24-10.768-24-24v-24h48V128z M200,128c0,13.232-10.768,24-24,24s-24-10.768-24-24v-24h48V128z M392,88
		h-48V16h48V88z M328,88h-48V16h48V88z M264,88h-48V16h48V88z M200,88h-48V16h48V88z M136,88H88V16h48V88z M88,104h48v24
		c0,13.232-10.768,24-24,24s-24-10.768-24-24V104z M56,320h368v64H56V320z M56,240h368v64H56V240z M424,440
		c0,13.232-10.768,24-24,24H80c-13.232,0-24-10.768-24-24v-40h368V440z M456,128c0,13.232-10.768,24-24,24s-24-10.768-24-24v-24h48
		V128z M453.528,88H408V16h25.888L453.528,88z M46.112,16H72v72H26.472L46.112,16z M24,128v-24h48v24c0,13.232-10.768,24-24,24
		S24,141.232,24,128z"/>
	<path style="fill:#474747;" d="M112,424h192v16H112V424z"/>
	<path style="fill:#474747;" d="M384,424h16v16h-16V424z"/>
	<path style="fill:#474747;" d="M352,424h16v16h-16V424z"/>
	<path style="fill:#474747;" d="M80,424h16v16H80V424z"/>
	<path style="fill:#474747;" d="M112,344h192v16H112V344z"/>
	<path style="fill:#474747;" d="M384,344h16v16h-16V344z"/>
	<path style="fill:#474747;" d="M352,344h16v16h-16V344z"/>
	<path style="fill:#474747;" d="M80,344h16v16H80V344z"/>
	<path style="fill:#474747;" d="M112,264h192v16H112V264z"/>
	<path style="fill:#474747;" d="M384,264h16v16h-16V264z"/>
	<path style="fill:#474747;" d="M352,264h16v16h-16V264z"/>
	<path style="fill:#474747;" d="M80,264h16v16H80V264z"/>
	<path style="fill:#474747;" d="M112,184h192v16H112V184z"/>
	<path style="fill:#474747;" d="M384,184h16v16h-16V184z"/>
	<path style="fill:#474747;" d="M352,184h16v16h-16V184z"/>
	<path style="fill:#474747;" d="M80,184h16v16H80V184z"/>
</g>
<g>
</g>
<g>
</g>
<g>
</g>
<g>
</g>
<g>
</g>
<g>
</g>
<g>
</g>
<g>
</g>
<g>
</g>
<g>
</g>
<g>
</g>
<g>
</g>
<g>
</g>
<g>
</g>
<g>
</g>
</svg>
