<?xml version="1.0" encoding="iso-8859-1"?>
<!-- Generator: Adobe Illustrator 19.0.0, SVG Export Plug-In . SVG Version: 6.00 Build 0)  -->
<svg version="1.1" id="Layer_1" xmlns="http://www.w3.org/2000/svg" xmlns:xlink="http://www.w3.org/1999/xlink" x="0px" y="0px"
	 viewBox="0 0 491.083 491.083" style="enable-background:new 0 0 491.083 491.083;" xml:space="preserve">
<g>
	<path style="fill:#DD6743;" d="M309.542,213.539c0-4.416-3.592-8-8-8h-112c-4.408,0-8,3.584-8,8v8h128V213.539z"/>
	<path style="fill:#DD6743;" d="M301.542,285.539c4.408,0,8-3.584,8-8v-40h-128v40c0,4.416,3.592,8,8,8H301.542z"/>
</g>
<path style="fill:#EDE7A6;" d="M393.654,353.115l-147.56,25.664l6.472,6.48c5.792,5.784,8.976,13.464,8.976,21.656
	c0,16.88-13.736,30.624-30.632,30.624c-8.176,0-15.864-3.184-21.656-8.968l-41.376-41.376l11.312-11.312l41.368,41.376
	c2.776,2.76,6.448,4.28,10.352,4.28c8.072,0,14.632-6.56,14.632-14.624c0-3.848-1.56-7.616-4.28-10.344l-63.032-63.032h-76.688v96
	h24c1.24,0,2.472,0.288,3.576,0.84l87.216,43.608c3.072,1.528,6.672,1.416,9.656-0.312l174.512-101.8
	c3.112-1.808,5.04-5.168,5.04-8.76c0-3-1.32-5.832-3.616-7.768C399.622,353.411,396.614,352.603,393.654,353.115z"/>
<rect x="69.542" y="325.539" style="fill:#A6E0B5;" width="16" height="112"/>
<path style="fill:#EDE7A6;" d="M361.966,60.699l-87.224-43.616c-3.072-1.536-6.688-1.424-9.656,0.312l-174.512,101.8
	c-3.104,1.816-5.032,5.176-5.032,8.768c0,3,1.32,5.832,3.616,7.768s5.328,2.752,8.272,2.232l147.56-25.664l-6.472-6.48
	c-5.792-5.784-8.976-13.464-8.976-21.656c0-16.88,13.736-30.624,30.632-30.624c8.176,0,15.864,3.184,21.656,8.968l41.376,41.376
	l-11.312,11.312l-41.368-41.376c-2.776-2.76-6.448-4.28-10.352-4.28c-8.072,0-14.632,6.56-14.632,14.624
	c0,3.848,1.56,7.616,4.28,10.344l63.032,63.032h76.688v-96h-24C364.302,61.539,363.07,61.251,361.966,60.699z"/>
<rect x="405.542" y="53.539" style="fill:#A6E0B5;" width="16" height="112"/>
<g>
	<rect x="437.542" y="53.539" style="fill:#78BA8C;" width="48" height="112"/>
	<rect x="5.542" y="325.539" style="fill:#78BA8C;" width="48" height="112"/>
</g>
<g>
	<path style="fill:#42342A;" d="M390.91,337.355l-158.648,27.592l-45.064-45.064c-1.496-1.504-3.536-2.344-5.656-2.344h-80
		c0-4.424-3.584-8-8-8h-32h-56v8v8h48v112h-48v8v8h56h32c4.416,0,8-3.576,8-8h22.112l85.528,42.768
		c3.696,1.848,7.704,2.776,11.696,2.776c4.552,0,9.096-1.192,13.168-3.576l174.512-101.8c8-4.672,12.976-13.32,12.976-22.584
		c0-7.736-3.392-15.032-9.32-20.016C406.302,338.123,398.542,336.043,390.91,337.355z M85.542,437.539h-16v-112h16V437.539z
		 M400.51,371.883l-174.52,101.8c-2.976,1.728-6.584,1.84-9.656,0.312l-87.216-43.608c-1.104-0.56-2.336-0.848-3.576-0.848h-24v-96
		h76.688l63.032,63.032c2.72,2.728,4.28,6.488,4.28,10.344c0,8.064-6.56,14.624-14.632,14.624c-3.904,0-7.584-1.52-10.344-4.28
		l-41.368-41.376l-11.312,11.312l41.376,41.376c5.784,5.784,13.472,8.968,21.648,8.968c16.896,0,30.632-13.744,30.632-30.624
		c0-8.184-3.184-15.872-8.976-21.656l-6.472-6.48l147.56-25.664c2.96-0.512,5.968,0.296,8.272,2.232
		c2.296,1.936,3.616,4.768,3.616,7.768C405.542,366.707,403.614,370.067,400.51,371.883z"/>
	<path style="fill:#42342A;" d="M429.542,37.539h-32c-4.416,0-8,3.576-8,8H367.43L281.902,2.771
		c-7.912-3.952-17.208-3.672-24.872,0.808L82.518,105.371c-8,4.672-12.976,13.32-12.976,22.584c0,7.736,3.392,15.032,9.32,20.016
		c4.76,4,10.704,6.144,16.816,6.144c1.496,0,3-0.136,4.496-0.392l158.656-27.592l45.064,45.064c1.488,1.504,3.528,2.344,5.648,2.344
		h80c0,4.424,3.584,8,8,8h32h56v-8v-8h-48v-112h48v-8v-8H429.542z M389.542,157.539h-76.688l-63.032-63.032
		c-2.72-2.728-4.28-6.488-4.28-10.344c0-8.064,6.56-14.624,14.632-14.624c3.904,0,7.584,1.52,10.344,4.28l41.368,41.376
		l11.312-11.312l-41.376-41.376c-5.784-5.784-13.472-8.968-21.648-8.968c-16.896,0-30.632,13.744-30.632,30.624
		c0,8.184,3.184,15.872,8.976,21.656l6.472,6.48L97.43,137.963c-2.944,0.512-5.976-0.296-8.272-2.232
		c-2.296-1.936-3.616-4.768-3.616-7.768c0-3.592,1.928-6.952,5.032-8.768l174.52-101.8c2.968-1.736,6.576-1.848,9.656-0.312
		l87.216,43.608c1.104,0.56,2.336,0.848,3.576,0.848h24V157.539z M421.542,165.539h-16v-112h16V165.539z"/>
	<path style="fill:#42342A;" d="M117.542,245.523c0,3.128,0.112,6.232,0.328,9.304l15.96-1.144
		c-0.192-2.688-0.288-5.408-0.288-8.152c0-2.28,0.072-4.544,0.2-6.8l-15.976-0.936C117.622,240.363,117.542,242.939,117.542,245.523
		z"/>
	<path style="fill:#42342A;" d="M120.222,271.723c1.16,5.552,2.704,11.08,4.592,16.432l15.088-5.328
		c-1.648-4.672-3-9.504-4.008-14.368L120.222,271.723z"/>
	<path style="fill:#42342A;" d="M119.918,220.875l15.704,3.064c0.952-4.848,2.24-9.704,3.832-14.416l-15.16-5.144
		C122.478,209.771,121.006,215.323,119.918,220.875z"/>
	<path style="fill:#42342A;" d="M152.71,182.851l-13.256-8.952c-3.192,4.72-6.08,9.68-8.592,14.728l14.328,7.128
		C147.382,191.331,149.91,186.995,152.71,182.851z"/>
	<path style="fill:#42342A;" d="M338.39,308.187l13.256,8.952c3.192-4.72,6.08-9.68,8.592-14.728l-14.328-7.128
		C343.71,299.707,341.182,304.043,338.39,308.187z"/>
	<path style="fill:#42342A;" d="M351.174,208.211c1.648,4.664,3,9.496,4.016,14.368l15.664-3.264
		c-1.168-5.568-2.712-11.104-4.592-16.432L351.174,208.211z"/>
	<path style="fill:#42342A;" d="M351.638,281.523l15.16,5.128c1.824-5.392,3.296-10.936,4.376-16.488l-15.704-3.064
		C354.526,271.947,353.23,276.803,351.638,281.523z"/>
	<path style="fill:#42342A;" d="M373.542,245.531c0-3.144-0.112-6.248-0.336-9.328l-15.96,1.144c0.2,2.696,0.296,5.432,0.296,8.184
		c0,2.272-0.072,4.528-0.2,6.776l15.968,0.936C373.462,250.691,373.542,248.115,373.542,245.531z"/>
	<path style="fill:#42342A;" d="M301.542,301.539c13.232,0,24-10.768,24-24v-64c0-13.232-10.768-24-24-24h-112
		c-13.232,0-24,10.768-24,24v64c0,13.232,10.768,24,24,24H301.542z M181.542,213.539c0-4.416,3.592-8,8-8h112c4.408,0,8,3.584,8,8v8
		h-128V213.539z M181.542,277.539v-40h128v40c0,4.416-3.592,8-8,8h-112C185.134,285.539,181.542,281.955,181.542,277.539z"/>
</g>
<g>
</g>
<g>
</g>
<g>
</g>
<g>
</g>
<g>
</g>
<g>
</g>
<g>
</g>
<g>
</g>
<g>
</g>
<g>
</g>
<g>
</g>
<g>
</g>
<g>
</g>
<g>
</g>
<g>
</g>
</svg>
