<?xml version="1.0" encoding="iso-8859-1"?>
<!-- Generator: Adobe Illustrator 19.0.0, SVG Export Plug-In . SVG Version: 6.00 Build 0)  -->
<svg version="1.1" id="Capa_1" xmlns="http://www.w3.org/2000/svg" xmlns:xlink="http://www.w3.org/1999/xlink" x="0px" y="0px"
	 viewBox="0 0 480 480" style="enable-background:new 0 0 480 480;" xml:space="preserve">
<path style="fill:#EFC062;" d="M440,248h-40h-72c-8.84,0-16-7.16-16-16v-48h-32v48c0,26.512,21.488,48,48,48h32v72l-24,120h40
	l24-112l24,112h40l-24-120h32v-72C472,262.328,457.672,248,440,248z"/>
<path style="fill:#EA7E73;" d="M16,472h40l24-112l24,112h40l-24-120v-72h32c26.512,0,48-21.488,48-48v-48h-32v48
	c0,8.84-7.16,16-16,16H80H40c-17.672,0-32,14.328-32,32v72h32L16,472z"/>
<path style="fill:#61DBDB;" d="M160,72v32h18.096c1.512,5.856,3.816,11.376,6.816,16.464l-12.792,12.792l22.624,22.624
	l12.792-12.792c5.08,3,10.608,5.304,16.464,6.816V168h32v-18.096c5.856-1.512,11.376-3.816,16.464-6.816l12.792,12.792
	l22.624-22.624l-12.792-12.792c3-5.08,5.304-10.6,6.816-16.464H320V72h-18.096c-1.512-5.856-3.816-11.376-6.816-16.464
	l12.792-12.792L285.256,20.12l-12.792,12.792c-5.088-3-10.608-5.304-16.464-6.816V8h-32v18.096
	c-5.856,1.512-11.376,3.816-16.464,6.816L194.744,20.12L172.12,42.744l12.792,12.792c-3,5.08-5.304,10.608-6.816,16.464H160z
	 M240,64c13.256,0,24,10.744,24,24s-10.744,24-24,24s-24-10.744-24-24S226.744,64,240,64z"/>
<circle style="fill:#F7EEDA;" cx="240" cy="88" r="24"/>
<circle style="fill:#EA7E73;" cx="80" cy="208" r="40"/>
<circle style="fill:#EFC062;" cx="400" cy="208" r="40"/>
<g>
	<path style="fill:#122333;" d="M160,64c-4.424,0-8,3.584-8,8v32c0,4.416,3.576,8,8,8h12.176c0.84,2.376,1.816,4.712,2.888,6.984
		l-8.608,8.616c-1.504,1.504-2.344,3.536-2.344,5.656s0.84,4.16,2.344,5.656l22.624,22.632c3.128,3.128,8.184,3.128,11.312,0
		l8.616-8.608c2.272,1.08,4.6,2.048,6.984,2.888V168c0,4.416,3.576,8,8,8h32c4.424,0,8-3.584,8-8v-12.176
		c2.384-0.84,4.712-1.808,6.984-2.888l8.616,8.608c3.128,3.128,8.184,3.128,11.312,0l22.624-22.632
		c1.504-1.504,2.344-3.536,2.344-5.656s-0.84-4.16-2.344-5.656l-8.608-8.616c1.08-2.272,2.048-4.608,2.888-6.984H320
		c4.424,0,8-3.584,8-8V72c0-4.416-3.576-8-8-8h-12.176c-0.84-2.376-1.816-4.712-2.888-6.984l8.608-8.616
		c1.504-1.504,2.344-3.536,2.344-5.656s-0.84-4.16-2.344-5.656L290.92,14.456c-3.128-3.128-8.184-3.128-11.312,0l-8.616,8.608
		c-2.28-1.072-4.608-2.04-6.992-2.888V8c0-4.416-3.576-8-8-8h-32c-4.424,0-8,3.584-8,8v12.176c-2.384,0.84-4.712,1.808-6.984,2.888
		l-8.616-8.6c-3.128-3.128-8.184-3.128-11.312,0l-22.624,22.632c-1.504,1.504-2.344,3.536-2.344,5.656s0.84,4.16,2.344,5.656
		l8.608,8.616c-1.08,2.264-2.048,4.6-2.896,6.976H160z M178.096,80c3.648,0,6.832-2.464,7.744-6c1.312-5.072,3.32-9.92,5.968-14.4
		c1.848-3.144,1.344-7.144-1.232-9.72l-7.144-7.136l11.312-11.32l7.144,7.136c2.584,2.584,6.592,3.096,9.728,1.232
		c4.472-2.64,9.312-4.64,14.392-5.952c3.52-0.904,5.992-4.096,5.992-7.744V16h16v10.096c0,3.648,2.472,6.832,6,7.744
		c5.08,1.312,9.92,3.312,14.392,5.952c3.136,1.848,7.152,1.36,9.728-1.232l7.144-7.136l11.312,11.32l-7.144,7.136
		c-2.576,2.576-3.088,6.576-1.232,9.72c2.648,4.48,4.656,9.328,5.968,14.4c0.912,3.528,4.096,6,7.744,6H312v16h-10.096
		c-3.648,0-6.832,2.464-7.744,6c-1.312,5.072-3.32,9.92-5.968,14.4c-1.848,3.144-1.344,7.144,1.232,9.72l7.144,7.136l-11.312,11.32
		l-7.144-7.136c-2.568-2.576-6.584-3.088-9.728-1.232c-4.472,2.64-9.312,4.64-14.392,5.952c-3.52,0.904-5.992,4.096-5.992,7.744V160
		h-16v-10.096c0-3.648-2.472-6.832-6-7.744c-5.08-1.312-9.92-3.312-14.392-5.952c-3.136-1.848-7.144-1.36-9.728,1.232l-7.144,7.136
		l-11.312-11.32l7.144-7.136c2.576-2.576,3.088-6.576,1.232-9.72c-2.648-4.48-4.656-9.328-5.968-14.4c-0.912-3.536-4.088-6-7.736-6
		H168V80H178.096z"/>
	<path style="fill:#122333;" d="M240,120c17.648,0,32-14.352,32-32s-14.352-32-32-32s-32,14.352-32,32S222.352,120,240,120z M240,72
		c8.824,0,16,7.176,16,16s-7.176,16-16,16s-16-7.176-16-16S231.176,72,240,72z"/>
	<path style="fill:#122333;" d="M8,360h22.24L8.16,470.432c-0.472,2.352,0.144,4.792,1.656,6.64C11.336,478.928,13.6,480,16,480h40
		c3.776,0,7.032-2.64,7.824-6.328L80,398.176l16.176,75.496C96.968,477.36,100.224,480,104,480h40c2.4,0,4.664-1.072,6.184-2.928
		c1.512-1.848,2.128-4.288,1.656-6.64L128,351.208V288h24c30.872,0,56-25.12,56-56v-48c0-4.416-3.576-8-8-8h-32
		c-4.424,0-8,3.584-8,8v48c0,4.408-3.584,8-8,8h-36.32c7.632-8.504,12.32-19.696,12.32-32c0-26.472-21.528-48-48-48
		s-48,21.528-48,48c0,12.304,4.688,23.496,12.32,32H40c-22.056,0-40,17.944-40,40v72C0,356.416,3.576,360,8,360z M48,208
		c0-17.648,14.352-32,32-32s32,14.352,32,32s-14.352,32-32,32S48,225.648,48,208z M16,280c0-13.232,10.768-24,24-24h112
		c13.232,0,24-10.768,24-24v-40h16v40c0,22.056-17.944,40-40,40h-32c-4.424,0-8,3.584-8,8v72c0,0.528,0.056,1.048,0.16,1.568
		L134.24,464h-23.776L87.816,358.328C87.032,354.64,83.776,352,80,352s-7.032,2.64-7.824,6.328L49.528,464H25.76l22.08-110.432
		c0.104-0.52,0.16-1.04,0.16-1.568v-72H32v64H16V280z"/>
	<path style="fill:#122333;" d="M440,240h-4.32c7.632-8.504,12.32-19.696,12.32-32c0-26.472-21.528-48-48-48s-48,21.528-48,48
		c0,12.304,4.688,23.496,12.32,32H328c-4.416,0-8-3.592-8-8v-48c0-4.416-3.576-8-8-8h-32c-4.424,0-8,3.584-8,8v48
		c0,30.88,25.128,56,56,56h24v63.208l-23.84,119.224c-0.472,2.352,0.144,4.792,1.656,6.64C331.336,478.928,333.6,480,336,480h40
		c3.776,0,7.032-2.64,7.824-6.328L400,398.176l16.176,75.496C416.968,477.36,420.224,480,424,480h40c2.4,0,4.664-1.072,6.184-2.928
		c1.512-1.848,2.128-4.288,1.656-6.64L449.76,360H472c4.424,0,8-3.584,8-8v-72C480,257.944,462.056,240,440,240z M368,208
		c0-17.648,14.352-32,32-32s32,14.352,32,32s-14.352,32-32,32S368,225.648,368,208z M464,344h-16v-64h-16v72
		c0,0.528,0.056,1.048,0.16,1.568L454.24,464h-23.776l-22.648-105.672C407.032,354.64,403.776,352,400,352s-7.032,2.64-7.824,6.328
		L369.528,464H345.76l22.088-110.432c0.096-0.52,0.152-1.04,0.152-1.568v-72c0-4.416-3.576-8-8-8h-32c-22.056,0-40-17.944-40-40v-40
		h16v40c0,13.232,10.768,24,24,24h112c13.232,0,24,10.768,24,24V344z"/>
</g>
<g>
</g>
<g>
</g>
<g>
</g>
<g>
</g>
<g>
</g>
<g>
</g>
<g>
</g>
<g>
</g>
<g>
</g>
<g>
</g>
<g>
</g>
<g>
</g>
<g>
</g>
<g>
</g>
<g>
</g>
</svg>
