<?xml version="1.0" encoding="iso-8859-1"?>
<!-- Generator: Adobe Illustrator 19.0.0, SVG Export Plug-In . SVG Version: 6.00 Build 0)  -->
<svg version="1.1" id="Capa_1" xmlns="http://www.w3.org/2000/svg" xmlns:xlink="http://www.w3.org/1999/xlink" x="0px" y="0px"
	 viewBox="0 0 480 480" style="enable-background:new 0 0 480 480;" xml:space="preserve">
<g>
	<path style="fill:#FFA244;" d="M192,456c0,8.84,7.16,16,16,16h16c8.84,0,16-7.16,16-16v-48h-48V456z"/>
	<polygon style="fill:#FFA244;" points="440,248 272,312 272,408 440,472 440,400 440,320 	"/>
</g>
<path style="fill:#68E8BB;" d="M8.88,159.048c0.424,3.864,1,7.688,1.744,11.448c0.184,0.912,0.4,1.8,0.6,2.704
	c0.688,3.16,1.496,6.272,2.4,9.336c0.256,0.872,0.48,1.768,0.76,2.632c1.072,3.376,2.312,6.664,3.632,9.92
	c0.504,1.248,1.032,2.488,1.576,3.712c1.376,3.12,2.832,6.2,4.432,9.192c22.896,42.832,68.016,72,119.984,72v-72v-64v-64V8
	C92.032,8,46.912,37.168,24.016,80c-1.6,2.992-3.048,6.072-4.432,9.192c-0.544,1.232-1.064,2.464-1.576,3.712
	c-1.32,3.256-2.56,6.544-3.632,9.92c-0.28,0.872-0.496,1.76-0.76,2.632c-0.904,3.072-1.712,6.184-2.4,9.336
	c-0.2,0.904-0.416,1.792-0.6,2.704c-0.744,3.76-1.32,7.584-1.744,11.448c-0.096,0.888-0.168,1.776-0.248,2.672
	C8.256,135.704,8,139.824,8,144s0.256,8.296,0.624,12.376C8.704,157.272,8.776,158.168,8.88,159.048z"/>
<path style="fill:#17B2B0;" d="M144,144v64v72c51.968,0,97.088-29.168,119.984-72c1.6-2.992,3.048-6.072,4.432-9.192
	c0.544-1.232,1.064-2.464,1.576-3.712c1.32-3.256,2.56-6.544,3.632-9.92c0.28-0.872,0.496-1.76,0.76-2.632
	c0.904-3.072,1.712-6.184,2.4-9.336c0.2-0.904,0.416-1.792,0.6-2.704c0.744-3.76,1.32-7.584,1.744-11.448
	c0.096-0.888,0.168-1.776,0.248-2.672C279.744,152.296,280,148.176,280,144s-0.256-8.296-0.624-12.376
	c-0.08-0.888-0.152-1.784-0.248-2.672c-0.424-3.864-1-7.688-1.744-11.448c-0.184-0.912-0.4-1.8-0.6-2.704
	c-0.688-3.16-1.496-6.272-2.4-9.336c-0.256-0.872-0.48-1.768-0.76-2.632c-1.072-3.376-2.312-6.664-3.632-9.92
	c-0.504-1.248-1.032-2.488-1.576-3.712c-1.376-3.12-2.832-6.2-4.432-9.192C241.088,37.168,195.968,8,144,8v72V144z"/>
<g>
	<path style="fill:#DCDCDC;" d="M192,312c-17.672,0-32,14.328-32,32v32c0,17.672,14.328,32,32,32h48h32v-96H192z"/>
	<path style="fill:#DCDCDC;" d="M456,320h-16v80h16c8.84,0,16-7.16,16-16v-48C472,327.16,464.84,320,456,320z"/>
</g>
<g>
	<path style="fill:#143446;" d="M192,304c-22.056,0-40,17.944-40,40v32c0,19.312,13.768,35.472,32,39.192V456
		c0,13.232,10.768,24,24,24h16c13.232,0,24-10.768,24-24v-40h22.528l166.624,63.48c0.92,0.352,1.888,0.52,2.848,0.52
		c1.6,0,3.184-0.48,4.536-1.416c2.168-1.488,3.464-3.952,3.464-6.584v-64h8c13.232,0,24-10.768,24-24v-48c0-13.232-10.768-24-24-24
		h-8v-64c0-2.632-1.296-5.096-3.464-6.584c-2.168-1.504-4.936-1.832-7.384-0.888L270.528,304H192z M168,376v-32
		c0-13.232,10.768-24,24-24h72v80h-24h-48C178.768,400,168,389.232,168,376z M232,456c0,4.408-3.592,8-8,8h-16c-4.408,0-8-3.592-8-8
		v-40h32V456z M456,328c4.408,0,8,3.592,8,8v48c0,4.408-3.592,8-8,8h-8v-64H456z M432,320v80v60.392l-152-57.904v-84.976l152-57.904
		V320z"/>
	<path style="fill:#143446;" d="M6.696,100.648c-0.264,0.824-0.456,1.664-0.704,2.496c-0.944,3.184-1.768,6.408-2.488,9.648
		c-0.264,1.192-0.544,2.368-0.776,3.568c-0.76,3.872-1.352,7.776-1.792,11.704c-0.112,0.992-0.184,1.984-0.28,2.976
		C0.264,135.352,0,139.672,0,144s0.264,8.648,0.656,12.952c0.088,0.992,0.168,1.992,0.28,2.976c0.44,3.928,1.032,7.832,1.792,11.704
		c0.232,1.2,0.512,2.384,0.776,3.568c0.72,3.248,1.544,6.464,2.488,9.648c0.248,0.832,0.448,1.672,0.704,2.496
		c1.184,3.752,2.576,7.44,4.064,11.08c0.4,0.984,0.808,1.96,1.232,2.928c1.536,3.528,3.152,7.016,4.968,10.416
		c0.048,0.08,0.112,0.144,0.16,0.224C41.44,257.192,89.184,288,144,288s102.56-30.808,126.88-76c0.048-0.08,0.12-0.144,0.16-0.224
		c1.816-3.392,3.44-6.888,4.968-10.416c0.424-0.968,0.832-1.944,1.232-2.928c1.488-3.648,2.88-7.328,4.064-11.08
		c0.264-0.824,0.456-1.664,0.704-2.496c0.944-3.184,1.768-6.408,2.488-9.648c0.264-1.192,0.544-2.368,0.776-3.568
		c0.76-3.872,1.352-7.776,1.792-11.704c0.112-0.992,0.184-1.984,0.28-2.976c0.392-4.312,0.656-8.632,0.656-12.96
		s-0.264-8.648-0.656-12.952c-0.088-0.992-0.168-1.992-0.28-2.976c-0.44-3.928-1.032-7.832-1.792-11.704
		c-0.232-1.2-0.512-2.384-0.776-3.568c-0.72-3.248-1.544-6.464-2.488-9.648c-0.248-0.832-0.448-1.672-0.704-2.496
		c-1.184-3.752-2.576-7.44-4.064-11.08c-0.4-0.984-0.808-1.96-1.232-2.928c-1.536-3.528-3.152-7.016-4.968-10.416
		c-0.048-0.08-0.112-0.144-0.16-0.224C246.56,30.808,198.816,0,144,0S41.44,30.808,17.12,76c-0.048,0.08-0.12,0.144-0.16,0.224
		c-1.816,3.392-3.44,6.888-4.968,10.416c-0.424,0.968-0.832,1.944-1.232,2.928C9.272,93.216,7.88,96.896,6.696,100.648z
		 M17.272,126.96c0.256-1.912,0.536-3.816,0.872-5.696c0.424-2.336,0.928-4.656,1.48-6.968c0.416-1.744,0.856-3.48,1.336-5.192
		c0.64-2.272,1.368-4.512,2.136-6.744c0.608-1.768,1.248-3.528,1.928-5.264c0.8-2.032,1.672-4.04,2.576-6.032
		c0.472-1.04,0.984-2.048,1.48-3.064h53.504c-5.464,14.808-9.232,30.976-10.184,48H16.408c0.048-0.816,0.056-1.64,0.128-2.456
		C16.712,131.344,16.976,129.152,17.272,126.96z M260.392,91.056c0.904,1.992,1.776,4,2.584,6.032
		c0.688,1.736,1.32,3.496,1.936,5.272c0.768,2.232,1.488,4.472,2.128,6.736c0.488,1.72,0.92,3.456,1.344,5.2
		c0.552,2.304,1.056,4.624,1.48,6.96c0.344,1.888,0.616,3.8,0.872,5.712c0.296,2.184,0.56,4.376,0.736,6.576
		c0.064,0.808,0.072,1.64,0.128,2.456h-56c-0.952-17.024-4.72-33.192-10.184-48h53.504
		C259.416,89.016,259.928,90.024,260.392,91.056z M270.728,161.032c-0.256,1.92-0.536,3.824-0.872,5.712
		c-0.424,2.336-0.928,4.648-1.48,6.96c-0.416,1.744-0.856,3.48-1.344,5.2c-0.64,2.264-1.36,4.512-2.128,6.736
		c-0.616,1.776-1.248,3.536-1.936,5.272c-0.8,2.032-1.672,4.04-2.576,6.032c-0.472,1.032-0.976,2.04-1.472,3.056h-53.504
		c5.464-14.808,9.232-30.976,10.184-48h55.992c-0.048,0.816-0.056,1.64-0.128,2.456C271.288,156.656,271.024,158.84,270.728,161.032
		z M27.6,196.936c-0.904-1.992-1.776-3.992-2.576-6.024c-0.688-1.736-1.32-3.496-1.936-5.272c-0.76-2.224-1.488-4.472-2.128-6.744
		c-0.488-1.712-0.92-3.448-1.336-5.192c-0.552-2.312-1.056-4.632-1.48-6.968c-0.336-1.88-0.616-3.784-0.872-5.696
		c-0.296-2.192-0.56-4.384-0.736-6.584c-0.072-0.816-0.08-1.64-0.128-2.456H72.4c0.952,17.024,4.72,33.192,10.184,48H29.08
		C28.584,198.984,28.072,197.968,27.6,196.936z M88.344,152H136v48H99.904C93.856,185.256,89.432,169.048,88.344,152z M136,216
		v43.208c-8.432-10.216-19.36-25.144-28.704-43.208H136z M152,216h28.704c-9.344,18.064-20.272,32.992-28.704,43.208V216z M152,200
		v-48h47.656c-1.088,17.048-5.512,33.256-11.56,48H152z M199.656,136H152V88h36.096C194.144,102.744,198.568,118.952,199.656,136z
		 M152,72V28.792c8.432,10.216,19.36,25.144,28.704,43.208H152z M136,72h-28.704C116.64,53.936,127.568,39.008,136,28.792V72z
		 M136,88v48H88.344c1.088-17.048,5.512-33.256,11.56-48H136z M38.256,216h51.088c10.912,23.248,24.704,42.088,34.968,54.328
		C88.656,264.784,57.792,244.608,38.256,216z M163.688,270.328c10.264-12.24,24.056-31.08,34.968-54.328h51.088
		C230.208,244.608,199.344,264.784,163.688,270.328z M249.744,72h-51.088c-10.912-23.248-24.704-42.088-34.968-54.328
		C199.344,23.216,230.208,43.392,249.744,72z M124.312,17.672C114.048,29.912,100.256,48.752,89.344,72H38.256
		C57.792,43.392,88.656,23.216,124.312,17.672z"/>
	<rect x="304" y="136" style="fill:#143446;" width="16" height="16"/>
	<rect x="336" y="136" style="fill:#143446;" width="16" height="16"/>
	<rect x="368" y="136" style="fill:#143446;" width="16" height="16"/>
	<rect x="400" y="136" style="fill:#143446;" width="16" height="16"/>
	<rect x="400" y="168" style="fill:#143446;" width="16" height="16"/>
	<rect x="400" y="200" style="fill:#143446;" width="16" height="16"/>
	<rect x="120" y="352" style="fill:#143446;" width="16" height="16"/>
	<rect x="88" y="352" style="fill:#143446;" width="16" height="16"/>
	<rect x="56" y="352" style="fill:#143446;" width="16" height="16"/>
	<rect x="56" y="320" style="fill:#143446;" width="16" height="16"/>
	<rect x="56" y="288" style="fill:#143446;" width="16" height="16"/>
</g>
<g>
</g>
<g>
</g>
<g>
</g>
<g>
</g>
<g>
</g>
<g>
</g>
<g>
</g>
<g>
</g>
<g>
</g>
<g>
</g>
<g>
</g>
<g>
</g>
<g>
</g>
<g>
</g>
<g>
</g>
</svg>
