<?xml version="1.0" encoding="iso-8859-1"?>
<!-- Generator: Adobe Illustrator 20.0.0, SVG Export Plug-In . SVG Version: 6.00 Build 0)  -->
<svg xmlns="http://www.w3.org/2000/svg" xmlns:xlink="http://www.w3.org/1999/xlink" version="1.1" id="Layer_1_1_" x="0px" y="0px" viewBox="0 0 64 64" style="enable-background:new 0 0 64 64;" xml:space="preserve" width="512" height="512">

<rect x="2" y="21" style="fill:#CC5636;" width="10" height="23"/>
<polygon style="fill:#CC5636;" points="12,13 10.5,13 2,13 2,19 12,19 "/>
<circle style="fill:#E6DFC1;" cx="13" cy="57" r="5"/>
<polygon style="fill:#CC5636;" points="14,44 20,44 20,13 17,13 14,13 "/>
<polygon style="fill:#CC5636;" points="22,13 22,19 32,19 32,13 23.5,13 "/>
<path style="fill:#367CCC;" d="M59,38h-4c-0.553,0-1-0.448-1-1V24c0-1.654-1.346-3-3-3H34v24v11h5.08c0.488-3.387,3.401-6,6.92-6  s6.432,2.613,6.92,6H59c1.302,0,2.402-0.839,2.816-2H60c-2.206,0-4-1.794-4-4s1.794-4,4-4h2v-5C62,39.346,60.654,38,59,38z M42,38  h-5v-2h5V38z M52,33c0,0.552-0.447,1-1,1H38c-0.553,0-1-0.448-1-1v-9c0-0.552,0.447-1,1-1h13c0.553,0,1,0.448,1,1V33z"/>
<rect x="22" y="21" style="fill:#CC5636;" width="10" height="23"/>
<circle style="fill:#E6DFC1;" cx="46" cy="57" r="5"/>
<path style="fill:#367CCC;" d="M2,53c0,1.654,1.346,3,3,3h1.08c0.488-3.387,3.401-6,6.92-6s6.432,2.613,6.92,6H32V46H2V53z M28,48h2  v2h-2V48z M24,48h2v2h-2V48z M20,48h2v2h-2V48z"/>
<path style="fill:#E6DFC1;" d="M58,50c0,1.103,0.897,2,2,2h2v-4h-2C58.897,48,58,48.897,58,50z"/>
<rect x="39" y="25" style="fill:#E6DFC1;" width="11" height="7"/>
<path style="fill:#1F2833;" d="M59,36h-3V24c0-2.757-2.243-5-5-5H34v-7c0-0.552-0.447-1-1-1h-4.821C29.304,9.831,30,8.246,30,6.5  C30,2.916,27.084,0,23.5,0h-1c-2.317,0-4.349,1.222-5.5,3.052C15.849,1.222,13.817,0,11.5,0h-1C6.916,0,4,2.916,4,6.5  C4,8.246,4.696,9.831,5.821,11H1c-0.553,0-1,0.448-1,1v8v25v8c0,2.757,2.243,5,5,5h1.08c0.488,3.387,3.401,6,6.92,6  s6.432-2.613,6.92-6H33h6.08c0.488,3.387,3.401,6,6.92,6s6.432-2.613,6.92-6H59c2.757,0,5-2.243,5-5v-6v-6  C64,38.243,61.757,36,59,36z M18,6.5C18,4.019,20.019,2,22.5,2h1C25.981,2,28,4.019,28,6.5S25.981,11,23.5,11H18V6.5z M20,13v31h-6  V13h3H20z M10.5,2h1C13.981,2,16,4.019,16,6.5V11h-5.5C8.019,11,6,8.981,6,6.5S8.019,2,10.5,2z M2,13h8.5H12v6H2V13z M2,21h10v23H2  V21z M13,62c-2.757,0-5-2.243-5-5s2.243-5,5-5s5,2.243,5,5S15.757,62,13,62z M32,56H19.92c-0.488-3.387-3.401-6-6.92-6  s-6.432,2.613-6.92,6H5c-1.654,0-3-1.346-3-3v-7h30V56z M32,44H22V21h10V44z M32,19H22v-6h1.5H32V19z M46,62c-2.757,0-5-2.243-5-5  s2.243-5,5-5s5,2.243,5,5S48.757,62,46,62z M62,52h-2c-1.103,0-2-0.897-2-2s0.897-2,2-2h2V52z M62,46h-2c-2.206,0-4,1.794-4,4  s1.794,4,4,4h1.816c-0.414,1.161-1.514,2-2.816,2h-6.08c-0.488-3.387-3.401-6-6.92-6s-6.432,2.613-6.92,6H34V45V21h17  c1.654,0,3,1.346,3,3v13c0,0.552,0.447,1,1,1h4c1.654,0,3,1.346,3,3V46z"/>
<path style="fill:#1F2833;" d="M51,23H38c-0.553,0-1,0.448-1,1v9c0,0.552,0.447,1,1,1h13c0.553,0,1-0.448,1-1v-9  C52,23.448,51.553,23,51,23z M50,32H39v-7h11V32z"/>
<rect x="37" y="36" style="fill:#1F2833;" width="5" height="2"/>
<rect x="52" y="14" style="fill:#1F2833;" width="10" height="2"/>
<rect x="48" y="14" style="fill:#1F2833;" width="2" height="2"/>
<rect x="44" y="14" style="fill:#1F2833;" width="2" height="2"/>
<rect x="40" y="14" style="fill:#1F2833;" width="2" height="2"/>
<rect x="54" y="10" style="fill:#1F2833;" width="10" height="2"/>
<rect x="50" y="10" style="fill:#1F2833;" width="2" height="2"/>
<rect x="46" y="10" style="fill:#1F2833;" width="2" height="2"/>
<rect x="42" y="10" style="fill:#1F2833;" width="2" height="2"/>
<rect x="47" y="5" style="fill:#1F2833;" width="10" height="2"/>
<rect x="43" y="5" style="fill:#1F2833;" width="2" height="2"/>
<rect x="39" y="5" style="fill:#1F2833;" width="2" height="2"/>
<rect x="35" y="5" style="fill:#1F2833;" width="2" height="2"/>
<rect x="20" y="48" style="fill:#1F2833;" width="2" height="2"/>
<rect x="24" y="48" style="fill:#1F2833;" width="2" height="2"/>
<rect x="28" y="48" style="fill:#1F2833;" width="2" height="2"/>
</svg>
