<svg height="480pt" viewBox="0 0 480 480" width="480pt" xmlns="http://www.w3.org/2000/svg"><path d="m268 400h68l44.558594-20.558594 54.402344-25.121094c3.359374-1.519531 6.960937-2.320312 10.558593-2.320312h1.28125c.398438 0 .800781 0 1.199219.078125 13.359375.5625 24 11.601563 24 25.121094 0 9.121093-4.878906 17.601562-12.878906 22l-115.121094 64.800781h-272v-88h56l32-32h108c1.359375 0 2.640625.078125 3.921875.320312 13.597656 1.839844 24.078125 13.601563 24.078125 27.679688 0 7.679688-3.121094 14.71875-8.238281 19.761719-5.042969 5.117187-12.082031 8.238281-19.761719 8.238281zm0 0" fill="#f3f3fb"/><path d="m448 312v40.078125c-.398438-.078125-.800781-.078125-1.199219-.078125h-1.28125c-3.597656 0-7.199219.800781-10.558593 2.320312l-54.402344 25.121094zm0 0" fill="#577399"/><path d="m448 256v56l-67.441406 67.441406-44.558594 20.558594v-32zm0 0" fill="#bdd5ea"/><path d="m448 200v56l-112 112v-56zm0 0" fill="#577399"/><path d="m448 144v56l-112 112v-56zm0 0" fill="#bdd5ea"/><path d="m448 128v16l-112 112v-56l72-72zm0 0" fill="#577399"/><path d="m448 64v64h-112v-64zm0 0" fill="#577399"/><path d="m408 128-72 72v-72zm0 0" fill="#bdd5ea"/><path d="m336 368v32h-68c7.679688 0 14.71875-3.121094 19.761719-8.238281 5.117187-5.042969 8.238281-12.082031 8.238281-19.761719 0-14.078125-10.480469-25.839844-24.078125-27.679688l.078125-.320312v-216h64zm0 0" fill="#ef6461"/><path d="m336 64v64h-64v-64zm0 0" fill="#ef6461"/><path d="m272 307.441406v36.558594l-.078125.320312c-1.28125-.242187-2.5625-.320312-3.921875-.320312h-15.441406l-92.558594-92.558594v-56zm0 0" fill="#577399"/><path d="m272 251.441406v56l-112-112v-56zm0 0" fill="#bdd5ea"/><path d="m272 195.441406v56l-112-112v-11.441406h44.558594zm0 0" fill="#577399"/><path d="m272 128v67.441406l-67.441406-67.441406zm0 0" fill="#bdd5ea"/><path d="m272 64v64h-112v-64zm0 0" fill="#577399"/><path d="m252.558594 344h-56l-36.558594-36.558594v-56zm0 0" fill="#bdd5ea"/><path d="m196.558594 344h-36.558594v-36.558594zm0 0" fill="#577399"/><path d="m112.558594 79.441406c4.242187.636719 7.441406 4.238282 7.441406 8.558594s-3.199219 7.921875-7.441406 8.558594c-20.558594 3.203125-36.796875 19.441406-40 40.082031-.636719 4.238281-4.238282 7.359375-8.558594 7.359375s-7.921875-3.121094-8.558594-7.359375c-3.203125-20.640625-19.441406-36.878906-40-40.082031-4.242187-.636719-7.441406-4.238282-7.441406-8.558594s3.199219-7.921875 7.441406-8.558594c20.558594-3.203125 36.796875-19.441406 40-40.082031.636719-4.238281 4.238282-7.359375 8.558594-7.359375s7.921875 3.121094 8.558594 7.359375c3.203125 20.640625 19.441406 36.878906 40 40.082031zm0 0" fill="#ffbd52"/><path d="m72 464v8h-64v-112h64zm0 0" fill="#bdd5ea"/><g fill="#313b45"><path d="m456 345.382812v-281.382812c0-4.414062-3.585938-8-8-8h-45.886719c6.535157-9.902344 7.855469-22.191406 3.125-33.601562-5.726562-13.8125-18.566406-22.398438-33.527343-22.398438-9.6875 0-18.808594 3.777344-25.65625 10.632812l-42.054688 42.054688-42.054688-42.054688c-6.855468-6.855468-15.96875-10.632812-25.65625-10.632812-14.960937 0-27.800781 8.585938-33.519531 22.398438-4.738281 11.410156-3.410156 23.699218 3.117188 33.601562h-45.886719c-4.414062 0-8 3.585938-8 8v276.6875l-27.3125 27.3125h-44.6875v-8c0-4.414062-3.585938-8-8-8h-64c-4.414062 0-8 3.585938-8 8v112c0 4.414062 3.585938 8 8 8h64c4.414062 0 8-3.585938 8-8h264c1.375 0 2.726562-.351562 3.929688-1.023438l115.046874-64.761718c10.503907-5.773438 17.023438-16.894532 17.023438-29.015625 0-15.152344-10.078125-27.863281-24-31.816407zm-392 118.617188h-48v-96h48zm216-125.9375v-202.0625h48v256h-30.078125c3.949219-5.847656 6.078125-12.742188 6.078125-20 0-15.542969-10.054688-29.105469-24-33.9375zm-112-179.308594 96 96v33.375l-96-96zm96 17.375-40.128906-40.128906h40.128906zm-62.753906-40.128906 62.753906 62.753906v33.375l-96-96v-.128906zm-33.246094 190.753906 9.246094 9.246094h-9.246094zm31.871094 9.246094-31.871094-31.871094v-33.375l65.246094 65.246094zm56 0-87.871094-87.871094v-33.375l96 96v25.246094zm48.128906-264h24v48h-48v-48zm136 180.6875-96 96v-33.375l96-96zm0-56-96 96v-33.375l96-96zm0-56-96 96v-33.375l67.3125-67.3125h28.6875zm-96 40v-44.6875h44.6875zm0 190.625 96-96v33.375l-64.070312 64.074219-31.929688 14.734375zm96-40v13.289062c-2.839844.488282-5.65625 1.214844-8.390625 2.453126l-13.664063 6.304687zm0-211.3125h-96v-48h96zm-82.632812-98.054688c3.832031-3.832031 8.929687-5.945312 14.34375-5.945312 9.992187 0 16.234374 6.472656 18.746093 12.519531 2.503907 6.046875 2.664063 15.039063-4.402343 22.105469l-5.367188 5.375h-57.375zm-135.421876 28.6875c-7.066406-7.066406-6.90625-16.058593-4.402343-22.105468 2.503906-6.054688 8.753906-12.527344 18.746093-12.527344 5.414063 0 10.511719 2.113281 14.34375 5.945312l34.054688 34.054688h-57.375zm-53.945312 21.367188h96v48h-96zm287.191406 320.222656-113.289062 63.777344h-261.902344v-72h48c2.121094 0 4.160156-.839844 5.65625-2.34375l29.65625-29.65625h104.6875c.839844 0 1.640625.03125 2.847656.246094 9.777344 1.320312 17.152344 9.816406 17.152344 19.753906 0 5.34375-2.078125 10.34375-5.9375 14.144531-3.71875 3.777344-8.71875 5.855469-14.0625 5.855469h-68v16h136c1.160156 0 2.304688-.246094 3.351562-.734375l98.90625-45.65625c2.328126-1.058594 4.839844-1.609375 7.261719-1.609375l.945313-.070312c.398437.078124.800781.125 1.199218.140624 9.160157.386719 16.335938 7.914063 16.335938 17.128907 0 6.289062-3.34375 12.023437-8.808594 15.023437zm0 0"/><path d="m14.207031 104.464844c17.25 2.6875 30.640625 16.109375 33.320313 33.359375 1.242187 8.214843 8.160156 14.175781 16.472656 14.175781s15.230469-5.960938 16.464844-14.136719c2.679687-17.296875 16.070312-30.710937 33.277344-33.398437 8.257812-1.234375 14.257812-8.160156 14.257812-16.464844s-6-15.230469-14.207031-16.464844c-17.25-2.6875-30.640625-16.109375-33.320313-33.359375-1.242187-8.214843-8.160156-14.175781-16.472656-14.175781s-15.230469 5.960938-16.464844 14.136719c-2.679687 17.296875-16.070312 30.710937-33.277344 33.398437-8.257812 1.234375-14.257812 8.160156-14.257812 16.464844s6 15.230469 14.207031 16.464844zm2.464844-17.121094c24.160156-3.769531 42.921875-22.558594 46.679687-46.800781.046876-.335938.304688-.542969.648438-.542969s.601562.207031.65625.585938c3.757812 24.199218 22.511719 43 46.71875 46.765624.304688.046876.625.289063.625.648438s-.320312.601562-.671875.65625c-24.160156 3.769531-42.921875 22.558594-46.679687 46.800781-.105469.671875-1.191407.710938-1.304688-.042969-3.757812-24.199218-22.511719-43-46.71875-46.765624-.304688-.046876-.625-.289063-.625-.648438s.320312-.601562.671875-.65625zm0 0"/><path d="m120 296h16v16h-16zm0 0"/><path d="m88 296h16v16h-16zm0 0"/><path d="m56 296h16v16h-16zm0 0"/></g></svg>