<?xml version="1.0" encoding="iso-8859-1"?>
<!-- Generator: Adobe Illustrator 19.0.0, SVG Export Plug-In . SVG Version: 6.00 Build 0)  -->
<svg version="1.1" id="Capa_1" xmlns="http://www.w3.org/2000/svg" xmlns:xlink="http://www.w3.org/1999/xlink" x="0px" y="0px"
	 viewBox="0 0 480 480" style="enable-background:new 0 0 480 480;" xml:space="preserve">
<path style="fill:#E7E7E7;" d="M275.4,384H248v-48h27.4c1.88-6.64,4.48-12.968,7.784-18.872l-19.352-19.352l33.944-33.944
	l19.352,19.352c5.904-3.304,12.232-5.904,18.872-7.784V248h48v27.4c6.64,1.88,12.968,4.48,18.872,7.784l19.352-19.352l1.776,1.776
	V72H8v336h270.056l5.128-5.128C279.88,396.968,277.28,390.64,275.4,384z M248,104h72v72h-72V104z M112,320H40v-72h72V320z M112,176
	H40v-72h72V176z M216,320h-72v-72h72V320z M216,176h-72v-72h72V176z"/>
<rect x="8" y="8" style="fill:#2BB0AF;" width="416" height="64"/>
<g>
	<rect x="40" y="104" style="fill:#EFC95B;" width="72" height="72"/>
	<rect x="144" y="104" style="fill:#EFC95B;" width="72" height="72"/>
	<rect x="248" y="104" style="fill:#EFC95B;" width="72" height="72"/>
	<rect x="40" y="248" style="fill:#EFC95B;" width="72" height="72"/>
	<rect x="144" y="248" style="fill:#EFC95B;" width="72" height="72"/>
</g>
<path style="fill:#D6705A;" d="M436.816,317.128l19.352-19.352L424,265.608l-1.776-1.776l-19.352,19.352
	c-5.904-3.304-12.232-5.904-18.872-7.784V248h-48v27.4c-6.64,1.88-12.968,4.48-18.872,7.784l-19.352-19.352l-33.944,33.944
	l19.352,19.352c-3.304,5.904-5.904,12.232-7.784,18.872H248v48h27.4c1.88,6.64,4.48,12.968,7.784,18.872L278.056,408l-14.224,14.224
	l33.944,33.944l19.352-19.352c5.904,3.304,12.232,5.904,18.872,7.784V472h48v-27.4c6.64-1.88,12.968-4.48,18.872-7.784
	l19.352,19.352l33.944-33.944l-19.352-19.352c3.304-5.904,5.904-12.232,7.784-18.872H472v-48h-27.4
	C442.72,329.36,440.12,323.032,436.816,317.128z M360,400c-22.088,0-40-17.912-40-40s17.912-40,40-40s40,17.912,40,40
	S382.088,400,360,400z"/>
<circle style="fill:#E7E7E7;" cx="360" cy="360" r="40"/>
<g>
	<rect x="32" y="32" style="fill:#383838;" width="16" height="16"/>
	<rect x="64" y="32" style="fill:#383838;" width="16" height="16"/>
	<rect x="96" y="32" style="fill:#383838;" width="16" height="16"/>
	<path style="fill:#383838;" d="M112,96H40c-4.424,0-8,3.584-8,8v72c0,4.416,3.576,8,8,8h72c4.424,0,8-3.584,8-8v-72
		C120,99.584,116.424,96,112,96z M104,168H48v-56h56V168z"/>
	<rect x="40" y="200" style="fill:#383838;" width="72" height="16"/>
	<path style="fill:#383838;" d="M216,96h-72c-4.424,0-8,3.584-8,8v72c0,4.416,3.576,8,8,8h72c4.424,0,8-3.584,8-8v-72
		C224,99.584,220.424,96,216,96z M208,168h-56v-56h56V168z"/>
	<rect x="144" y="200" style="fill:#383838;" width="72" height="16"/>
	<path style="fill:#383838;" d="M248,184h72c4.424,0,8-3.584,8-8v-72c0-4.416-3.576-8-8-8h-72c-4.424,0-8,3.584-8,8v72
		C240,180.416,243.576,184,248,184z M256,112h56v56h-56V112z"/>
	<rect x="248" y="200" style="fill:#383838;" width="72" height="16"/>
	<path style="fill:#383838;" d="M112,240H40c-4.424,0-8,3.584-8,8v72c0,4.416,3.576,8,8,8h72c4.424,0,8-3.584,8-8v-72
		C120,243.584,116.424,240,112,240z M104,312H48v-56h56V312z"/>
	<rect x="40" y="344" style="fill:#383838;" width="72" height="16"/>
	<path style="fill:#383838;" d="M216,240h-72c-4.424,0-8,3.584-8,8v72c0,4.416,3.576,8,8,8h72c4.424,0,8-3.584,8-8v-72
		C224,243.584,220.424,240,216,240z M208,312h-56v-56h56V312z"/>
	<rect x="144" y="344" style="fill:#383838;" width="72" height="16"/>
	<path style="fill:#383838;" d="M472,328h-21.544c-1.128-3.2-2.416-6.328-3.848-9.344l15.216-15.224
		c3.128-3.128,3.128-8.184,0-11.312L432,262.296V8c0-4.416-3.576-8-8-8H8C3.576,0,0,3.584,0,8v400c0,4.416,3.576,8,8,8h250.752
		l-0.568,0.568c-3.128,3.128-3.128,8.184,0,11.312l33.936,33.944c3,3,8.312,3,11.312,0l15.224-15.224
		c3.024,1.44,6.144,2.728,9.344,3.848V472c0,4.416,3.576,8,8,8h48c4.424,0,8-3.584,8-8v-21.544c3.2-1.128,6.32-2.416,9.344-3.848
		l15.224,15.224c3,3,8.312,3,11.312,0l33.936-33.944c3.128-3.128,3.128-8.184,0-11.312L446.6,401.352
		c1.44-3.024,2.728-6.144,3.848-9.344H472c4.424,0,8-3.584,8-8v-48C480,331.584,476.424,328,472,328z M416,16v48H16V16H416z M16,80
		h400v178.744L401.344,273.4c-3.024-1.44-6.144-2.728-9.344-3.856V248c0-4.416-3.576-8-8-8h-48c-4.424,0-8,3.584-8,8v21.544
		c-3.2,1.128-6.32,2.416-9.344,3.848l-15.224-15.224c-3-3-8.312-3-11.312,0l-33.936,33.944c-3.128,3.128-3.128,8.184,0,11.312
		l15.216,15.224c-1.44,3.024-2.728,6.144-3.848,9.344H248c-4.424,0-8,3.584-8,8v48c0,4.416,3.576,8,8,8h21.544
		c0.96,2.744,2.104,5.392,3.296,8H16V80z M464,376h-19.4c-3.576,0-6.72,2.376-7.696,5.816c-1.72,6.064-4.104,11.832-7.08,17.152
		c-1.744,3.128-1.2,7.032,1.328,9.56l13.696,13.696l-22.624,22.632l-13.696-13.696c-2.528-2.528-6.432-3.064-9.56-1.328
		c-5.32,2.976-11.088,5.352-17.152,7.072c-3.44,0.976-5.816,4.12-5.816,7.696V464h-32v-19.4c0-3.576-2.376-6.72-5.824-7.696
		c-6.064-1.72-11.832-4.096-17.152-7.072c-3.12-1.736-7.024-1.2-9.56,1.328l-13.696,13.696l-22.624-22.632l13.696-13.696
		c2.528-2.528,3.072-6.44,1.328-9.56c-2.976-5.32-5.36-11.088-7.08-17.152c-0.968-3.44-4.112-5.816-7.688-5.816H256v-32h19.4
		c3.576,0,6.72-2.376,7.696-5.816c1.72-6.064,4.104-11.832,7.08-17.152c1.744-3.128,1.2-7.032-1.328-9.56l-13.696-13.696
		l22.624-22.632l13.696,13.696c2.536,2.528,6.44,3.072,9.56,1.328c5.32-2.976,11.088-5.352,17.152-7.072
		c3.44-0.976,5.816-4.12,5.816-7.696V256h32v19.4c0,3.576,2.376,6.72,5.824,7.696c6.064,1.72,11.832,4.096,17.152,7.072
		c3.136,1.752,7.032,1.208,9.56-1.328l13.696-13.696l22.624,22.632l-13.696,13.696c-2.528,2.528-3.072,6.44-1.328,9.56
		c2.976,5.32,5.36,11.088,7.08,17.152c0.968,3.44,4.112,5.816,7.688,5.816H464V376z"/>
	<path style="fill:#383838;" d="M360,312c-26.472,0-48,21.528-48,48s21.528,48,48,48s48-21.528,48-48S386.472,312,360,312z M360,392
		c-17.648,0-32-14.352-32-32s14.352-32,32-32s32,14.352,32,32S377.648,392,360,392z"/>
</g>
<g>
</g>
<g>
</g>
<g>
</g>
<g>
</g>
<g>
</g>
<g>
</g>
<g>
</g>
<g>
</g>
<g>
</g>
<g>
</g>
<g>
</g>
<g>
</g>
<g>
</g>
<g>
</g>
<g>
</g>
</svg>
