<?xml version="1.0" encoding="iso-8859-1"?>
<!-- Generator: Adobe Illustrator 19.0.0, SVG Export Plug-In . SVG Version: 6.00 Build 0)  -->
<svg version="1.1" id="Capa_1" xmlns="http://www.w3.org/2000/svg" xmlns:xlink="http://www.w3.org/1999/xlink" x="0px" y="0px"
	 viewBox="0 0 480 480" style="enable-background:new 0 0 480 480;" xml:space="preserve">
<path style="fill:#68E8BB;" d="M240,280c-40.76,0-79.024,10.56-112.304,29.024c1.184,1.744,2.224,3.592,3.176,5.488
	c0.2,0.4,0.392,0.808,0.584,1.216c0.888,1.904,1.704,3.856,2.336,5.888c0,0.016,0.008,0.024,0.016,0.04
	c0.632,2.024,1.088,4.112,1.448,6.24c0.088,0.512,0.168,1.032,0.24,1.544c0.296,2.144,0.504,4.328,0.504,6.56v56H41.536
	c-14.624,24.144-25.008,51.144-30.032,80h127.28H240c0,0,0-37.88,0-80C240,341.264,240,284.368,240,280z"/>
<path style="fill:#17B2B0;" d="M344,336c0-10.008,3.064-19.288,8.304-26.976C319.024,290.56,280.76,280,240,280
	c0,4.368,0,61.264,0,112c0,42.12,0,80,0,80h101.216h127.28c-5.016-28.856-15.408-55.856-30.032-80H344V336z"/>
<path style="fill:#FFA244;" d="M440,8H40C22.328,8,8,22.328,8,40v64c0,17.672,14.328,32,32,32h88v64l40-64h144l40,56v-56h88
	c17.672,0,32-14.328,32-32V40C472,22.328,457.672,8,440,8z"/>
<g>
	<circle style="fill:#DCDCDC;" cx="408" cy="248" r="40"/>
	<path style="fill:#DCDCDC;" d="M424,288h-16h-16c-1.888,0-3.752,0.136-5.584,0.352c-0.576,0.064-1.136,0.176-1.704,0.264
		c-1.272,0.192-2.528,0.424-3.76,0.72c-0.608,0.144-1.216,0.304-1.816,0.464c-1.224,0.336-2.424,0.728-3.6,1.168
		c-0.512,0.184-1.032,0.36-1.536,0.56c-1.624,0.656-3.224,1.384-4.752,2.208c-0.016,0.008-0.032,0.016-0.048,0.024
		c-1.576,0.856-3.088,1.816-4.56,2.832c-0.376,0.264-0.736,0.552-1.104,0.832c-1.064,0.792-2.104,1.616-3.096,2.488
		c-0.408,0.352-0.8,0.72-1.192,1.088c-0.96,0.896-1.872,1.832-2.76,2.808c-0.32,0.352-0.64,0.688-0.952,1.048
		c-1.144,1.336-2.232,2.72-3.232,4.184C347.064,316.712,344,325.992,344,336v56h94.464H472v-56C472,309.488,450.512,288,424,288z"/>
	<circle style="fill:#DCDCDC;" cx="72" cy="248" r="40"/>
	<path style="fill:#DCDCDC;" d="M136,336c0-2.232-0.208-4.416-0.504-6.56c-0.072-0.52-0.152-1.032-0.24-1.544
		c-0.36-2.128-0.816-4.216-1.448-6.24c0-0.016-0.008-0.024-0.016-0.04c-0.64-2.032-1.448-3.984-2.336-5.888
		c-0.192-0.408-0.384-0.816-0.584-1.216c-0.952-1.896-1.992-3.744-3.176-5.488C119.056,296.336,104.504,288,88,288H72H56
		c-26.512,0-48,21.488-48,48v56h33.536H136V336z"/>
</g>
<g>
	<path style="fill:#143446;" d="M440,0H40C17.944,0,0,17.944,0,40v64c0,22.056,17.944,40,40,40h80v56
		c0,3.568,2.36,6.704,5.792,7.688c0.736,0.208,1.472,0.312,2.208,0.312c2.704,0,5.296-1.376,6.784-3.76L172.432,144h135.456
		l37.608,52.648c2.024,2.832,5.64,4.032,8.952,2.968S360,195.48,360,192v-48h80c22.056,0,40-17.944,40-40V40
		C480,17.944,462.056,0,440,0z M464,104c0,13.232-10.768,24-24,24h-88c-4.416,0-8,3.576-8,8v31.04l-25.488-35.688
		C317.008,129.248,314.584,128,312,128H168c-2.76,0-5.328,1.424-6.784,3.76L136,172.104V136c0-4.424-3.584-8-8-8H40
		c-13.232,0-24-10.768-24-24V40c0-13.232,10.768-24,24-24h400c13.232,0,24,10.768,24,24V104z"/>
	<rect x="48" y="40" style="fill:#143446;" width="384" height="16"/>
	<rect x="48" y="88" style="fill:#143446;" width="384" height="16"/>
	<path style="fill:#143446;" d="M441.088,282.688C450.256,273.944,456,261.64,456,248c0-26.472-21.528-48-48-48s-48,21.528-48,48
		c0,13.64,5.744,25.944,14.912,34.688c-0.016,0.008-0.032,0.016-0.048,0.016c-0.712,0.232-1.4,0.512-2.096,0.768
		c-1.064,0.392-2.12,0.776-3.152,1.224c-0.8,0.352-1.576,0.752-2.36,1.136c-0.88,0.44-1.76,0.864-2.616,1.352
		c-0.848,0.48-1.672,0.992-2.496,1.52c-0.736,0.464-1.472,0.936-2.184,1.44c-0.848,0.592-1.672,1.216-2.488,1.856
		c-0.648,0.512-1.288,1.024-1.912,1.56c-0.8,0.688-1.576,1.392-2.336,2.12c-0.6,0.576-1.184,1.176-1.76,1.784
		c-0.432,0.456-0.896,0.864-1.32,1.336C316.264,281.248,278.328,272,240,272c-38.336,0-76.232,9.36-110.144,26.928
		c-6.592-7.432-15.096-13.128-24.768-16.24C114.256,273.944,120,261.64,120,248c0-26.472-21.528-48-48-48s-48,21.528-48,48
		c0,13.64,5.744,25.944,14.912,34.688C16.368,289.936,0,311.08,0,336v56c0,4.424,3.584,8,8,8h19.864
		c-11.768,22.216-19.936,45.896-24.232,70.632c-0.4,2.32,0.24,4.712,1.76,6.512S9.144,480,11.504,480h127.28h202.432h127.28
		c2.36,0,4.6-1.048,6.12-2.848s2.168-4.192,1.76-6.512c-0.968-5.576-2.192-11.08-3.552-16.552c-0.24-0.968-0.464-1.944-0.72-2.912
		c-1.368-5.224-2.912-10.384-4.632-15.488c-0.336-1.008-0.704-2.016-1.056-3.024c-1.832-5.208-3.792-10.376-5.984-15.456
		c-0.16-0.376-0.344-0.736-0.504-1.104c-2.144-4.888-4.48-9.704-6.952-14.464c-0.28-0.536-0.504-1.104-0.784-1.64H472
		c4.416,0,8-3.576,8-8v-56C480,311.08,463.632,289.936,441.088,282.688z M408,216c17.648,0,32,14.352,32,32s-14.352,32-32,32
		s-32-14.352-32-32S390.352,216,408,216z M341.328,312.32C337.944,319.528,336,327.528,336,336v48h-14.272
		c-20.64-43.456-46.952-77.16-62.664-95.176C287.72,291.272,315.72,299.304,341.328,312.32z M232,384h-55.768
		C195.04,346.672,217.8,317.24,232,300.656V384z M248,300.632c14.2,16.576,36.976,46,55.792,83.368H248V300.632z M149.632,457.896
		c0.456-2.128,0.904-4.248,1.424-6.384c1.04-4.32,2.24-8.656,3.512-13.008c0.48-1.64,0.896-3.28,1.408-4.928
		c1.832-5.848,3.864-11.72,6.104-17.608c0.24-0.616,0.488-1.224,0.728-1.84c0.232-0.592,0.496-1.184,0.728-1.776
		c1.624-4.112,3.392-8.232,5.216-12.352H232v64h-83.544C148.848,461.968,149.192,459.936,149.632,457.896z M248,400h63.248
		c1.824,4.12,3.592,8.24,5.216,12.352c0.36,0.912,0.776,1.824,1.128,2.736c0.072,0.184,0.144,0.368,0.216,0.552
		c2.296,6,4.352,11.976,6.216,17.936c0.512,1.648,0.928,3.28,1.408,4.928c1.272,4.352,2.472,8.688,3.512,13.008
		c0.512,2.136,0.96,4.256,1.424,6.384c0.44,2.04,0.784,4.072,1.168,6.104H248V400z M138.712,312.224
		c25.584-13,53.592-20.952,82.224-23.408c-15.712,18.024-42.024,51.728-62.664,95.176H144v-48c0-2.008-0.12-3.992-0.328-5.952
		c-0.072-0.656-0.208-1.304-0.296-1.952c-0.184-1.288-0.368-2.576-0.64-3.832c-0.168-0.8-0.4-1.576-0.608-2.36
		c-0.28-1.088-0.56-2.176-0.912-3.232c-0.272-0.848-0.6-1.672-0.92-2.504c-0.368-0.968-0.744-1.936-1.16-2.872
		C138.984,312.936,138.872,312.568,138.712,312.224z M72,216c17.648,0,32,14.352,32,32s-14.352,32-32,32s-32-14.352-32-32
		S54.352,216,72,216z M16,336c0-22.056,17.944-40,40-40h32c13.776,0,25.952,7,33.144,17.64c0.024,0.04,0.048,0.08,0.072,0.12
		c1.28,1.896,2.352,3.936,3.288,6.048c0.264,0.6,0.48,1.216,0.72,1.832c0.64,1.648,1.168,3.352,1.584,5.096
		c0.16,0.672,0.336,1.336,0.456,2.016c0.44,2.36,0.736,4.768,0.736,7.248v48H41.536H16V336z M46.096,400H136h15.16
		c-3.912,9.4-7.496,19.168-10.616,29.288c-0.128,0.408-0.264,0.816-0.384,1.216c-1.96,6.432-3.76,12.976-5.304,19.664
		c-0.144,0.632-0.248,1.264-0.392,1.896c-0.88,3.952-1.752,7.912-2.472,11.944H21.224C26.128,441.544,34.472,420.08,46.096,400z
		 M348,464c-0.72-4.032-1.584-7.992-2.472-11.944c-0.144-0.632-0.248-1.256-0.392-1.896c-1.544-6.688-3.344-13.224-5.304-19.664
		c-0.128-0.408-0.256-0.816-0.384-1.216c-3.128-10.12-6.704-19.888-10.616-29.288H344h89.752c1.352,2.328,2.632,4.688,3.888,7.056
		c1.192,2.24,2.44,4.456,3.56,6.72c1.576,3.216,2.968,6.496,4.384,9.776c0.936,2.168,1.96,4.312,2.824,6.504
		c1.448,3.664,2.68,7.4,3.928,11.128c0.632,1.88,1.36,3.728,1.936,5.624c1.72,5.656,3.24,11.384,4.504,17.184H348V464z M464,384
		h-25.536H352v-48c0-10.784,4.336-20.544,11.296-27.752c0.296-0.312,0.6-0.616,0.912-0.92c1.648-1.6,3.416-3.088,5.32-4.392
		c0.176-0.12,0.36-0.208,0.536-0.328c1.784-1.176,3.68-2.184,5.648-3.064c0.4-0.176,0.792-0.376,1.2-0.544
		c2.072-0.848,4.232-1.52,6.464-2.008c0.472-0.104,0.96-0.184,1.44-0.272c2.328-0.424,4.72-0.72,7.184-0.72h32
		c22.056,0,40,17.944,40,40V384z"/>
</g>
<g>
</g>
<g>
</g>
<g>
</g>
<g>
</g>
<g>
</g>
<g>
</g>
<g>
</g>
<g>
</g>
<g>
</g>
<g>
</g>
<g>
</g>
<g>
</g>
<g>
</g>
<g>
</g>
<g>
</g>
</svg>
