<?xml version="1.0" encoding="iso-8859-1"?>
<!-- Generator: Adobe Illustrator 19.0.0, SVG Export Plug-In . SVG Version: 6.00 Build 0)  -->
<svg version="1.1" id="Capa_1" xmlns="http://www.w3.org/2000/svg" xmlns:xlink="http://www.w3.org/1999/xlink" x="0px" y="0px"
	 viewBox="0 0 480 480" style="enable-background:new 0 0 480 480;" xml:space="preserve">
<path style="fill:#689CB0;" d="M232,376.7c-15.2-5.6-28.8-15.2-40-26.4v41.6L232,376.7z"/>
<path style="fill:#FF7E6B;" d="M8,79.9v240l184,72v-41.6c-20-20-32-48-32-78.4s12-58.4,32-78.4v-41.6L8,79.9z"/>
<path style="fill:#689CB0;" d="M192,151.9v41.6c20-20.8,48.8-33.6,80-33.6c47.2,0,87.2,29.6,104,70.4V79.9L192,151.9z"/>
<path style="fill:#F2CF77;" d="M376,79.9l-184-72L8,79.9l184,72L376,79.9z"/>
<path style="fill:#94D8E3;" d="M272,159.9c-61.6,0-112,50.4-112,112c0,48,29.6,88,72,104.8c12.8,4.8,26.4,7.2,40,7.2
	c61.6,0,112-50.4,112-112c0-14.4-3.2-28.8-8-41.6v1.6v-1.6C359.2,189.5,319.2,159.9,272,159.9z M272,351.9c-44,0-80-36-80-80
	s36-80,80-80s80,36,80,80S316,351.9,272,351.9z"/>
<circle style="fill:#F4EFEF;" cx="272" cy="271.9" r="80"/>
<path style="fill:#689CB0;" d="M400,367.9l-16,16l-16,16l65.6,65.6c4,4,10.4,6.4,16,6.4c12.8,0,22.4-10.4,22.4-22.4
	c0-6.4-2.4-12-6.4-16L400,367.9z"/>
<g>
	<path style="fill:#FFFFFF;" d="M328,271.9h-16c0-11.2-4.8-22.4-13.6-29.6l10.4-12C320.8,240.7,328,255.9,328,271.9z"/>
	<path style="fill:#FFFFFF;" d="M285.6,234.3c-4.8-1.6-8.8-2.4-13.6-2.4v-16c6.4,0,12.8,0.8,18.4,3.2L285.6,234.3z"/>
</g>
<g>
	<path style="fill:#474747;" d="M272,183.9c-48.8,0-88,39.2-88,88s39.2,88,88,88s88-39.2,88-88S320.8,183.9,272,183.9z M272,343.9
		c-40,0-72-32-72-72s32-72,72-72s72,32,72,72S312,343.9,272,343.9z"/>
	<path style="fill:#474747;" d="M405.6,362.3c-3.2-3.2-8-3.2-11.2,0L384,372.7l-21.6-21.6c18.4-20.8,29.6-48.8,29.6-79.2
		c0-15.2-3.2-29.6-8-42.4V79.9c0-3.2-2.4-6.4-4.8-7.2l-184-72c-1.6-0.8-4-0.8-5.6,0l-184,72c-3.2,0.8-5.6,4-5.6,7.2v240
		c0,3.2,2.4,6.4,4.8,7.2l184,72c0.8,0,1.6,0.8,3.2,0.8s1.6,0,3.2-0.8l36.8-14.4c12.8,4.8,26.4,7.2,40,7.2
		c30.4,0,57.6-11.2,79.2-29.6l21.6,21.6l-10.4,10.4c-3.2,3.2-3.2,8,0,11.2l65.6,65.6c5.6,5.6,13.6,8.8,21.6,8.8
		c16.8,0,30.4-13.6,30.4-30.4c0-8-3.2-16-8.8-21.6L405.6,362.3z M272,151.9c-27.2,0-52,8.8-72,24v-18.4l168-65.6v108
		C346.4,171.1,311.2,151.9,272,151.9z M192,16.7l162.4,63.2L192,143.1L29.6,79.9L192,16.7z M16,91.9l168,65.6v33.6
		c-20,21.6-32,49.6-32,81.6s12,60,32,81.6v27.2L16,314.3V91.9z M200,379.9v-12c4,3.2,8,5.6,12,8L200,379.9z M272,375.9
		c-57.6,0-104-46.4-104-104s46.4-104,104-104s104,46.4,104,104S329.6,375.9,272,375.9z M449.6,463.9c-4,0-7.2-1.6-10.4-4l-60-60
		l20.8-20.8l60,60c2.4,2.4,4,6.4,4,10.4C464,457.5,457.6,463.9,449.6,463.9z"/>
</g>
<g>
</g>
<g>
</g>
<g>
</g>
<g>
</g>
<g>
</g>
<g>
</g>
<g>
</g>
<g>
</g>
<g>
</g>
<g>
</g>
<g>
</g>
<g>
</g>
<g>
</g>
<g>
</g>
<g>
</g>
</svg>
