<?xml version="1.0" encoding="iso-8859-1"?>
<!-- Generator: Adobe Illustrator 20.0.0, SVG Export Plug-In . SVG Version: 6.00 Build 0)  -->
<svg xmlns="http://www.w3.org/2000/svg" xmlns:xlink="http://www.w3.org/1999/xlink" version="1.1" id="Layer_1_1_" x="0px" y="0px" viewBox="0 0 64 64" style="enable-background:new 0 0 64 64;" xml:space="preserve" width="512" height="512">

<path style="fill:#E6DFC1;" d="M36,26h3c0.551,0,1-0.449,1-1v-1c0-0.551-0.449-1-1-1h-3c-0.551,0-1,0.449-1,1v1  C35,25.551,35.449,26,36,26z"/>
<path style="fill:#E6DFC1;" d="M28,23h-3c-0.551,0-1,0.449-1,1v1c0,0.551,0.449,1,1,1h3c0.551,0,1-0.449,1-1v-1  C29,23.449,28.551,23,28,23z"/>
<path style="fill:#CC5636;" d="M20,18.586V13c0-0.281,0.118-0.549,0.326-0.738s0.487-0.281,0.765-0.258L32,12.996l10.91-0.992  c0.279-0.024,0.557,0.068,0.765,0.258C43.882,12.451,44,12.719,44,13v5.586l1,1l1-1V13c0-3.86-3.14-7-7-7h-0.683  c-0.386,0-0.737-0.222-0.903-0.57C36.423,3.346,34.297,2,32,2h-5.917c0.146,0.868,0.483,1.693,0.996,2.428  c0.213,0.305,0.239,0.704,0.067,1.035S26.632,6,26.26,6H25c-3.86,0-7,3.14-7,7v5.586l1,1L20,18.586z"/>
<path style="fill:#E6DFC1;" d="M32,39h-6.586l3,3h7.172L44,33.586V29v-7v-0.586l-1.707-1.707C42.105,19.52,42,19.265,42,19v-4.905  l-9.91,0.901c-0.06,0.005-0.121,0.005-0.181,0L22,14.095V19c0,0.265-0.105,0.52-0.293,0.707L20,21.414V22v7v4.586L23.414,37H32V39z   M25,28c-1.654,0-3-1.346-3-3v-1c0-1.654,1.346-3,3-3h3c1.302,0,2.402,0.839,2.816,2h2.369c0.414-1.161,1.514-2,2.816-2h3  c1.654,0,3,1.346,3,3v1c0,1.654-1.346,3-3,3h-3c-1.654,0-3-1.346-3-3h-2c0,1.654-1.346,3-3,3H25z M31,34c-0.552,0-1-0.448-1-1v-4h2  v3h2v2H31z"/>
<path style="fill:#E6DFC1;" d="M17,30c0.551,0,1-0.449,1-1v-7c0-0.551-0.449-1-1-1s-1,0.449-1,1v5v2C16,29.551,16.449,30,17,30z"/>
<path style="fill:#E6DFC1;" d="M28.293,54.293l2.165-2.165l-5.606-4.004L2,56.693V62h26.279l1.577-4.73l-1.563-1.563  C27.902,55.316,27.902,54.684,28.293,54.293z"/>
<path style="fill:#E6DFC1;" d="M38,42.414l-1.293,1.293C36.52,43.895,36.265,44,36,44h-8c-0.265,0-0.52-0.105-0.707-0.293L26,42.414  v4.071l6,4.286l6-4.286V42.414z"/>
<rect x="30.879" y="53.879" transform="matrix(0.7071 -0.7071 0.7071 0.7071 -29.5183 38.7365)" style="fill:#CC5636;" width="2.243" height="2.243"/>
<path style="fill:#E6DFC1;" d="M33.542,52.128l2.165,2.165c0.391,0.391,0.391,1.023,0,1.414l-1.563,1.563L35.721,62H62v-5.307  l-22.852-8.569L33.542,52.128z"/>
<path style="fill:#E6DFC1;" d="M46,29c0,0.551,0.449,1,1,1s1-0.449,1-1v-7c0-0.551-0.449-1-1-1s-1,0.449-1,1V29z"/>
<path style="fill:#367CCC;" d="M52,25.5c0-1.208-0.86-2.217-2-2.45v4.899C51.14,27.717,52,26.708,52,25.5z"/>
<path style="fill:#367CCC;" d="M12,25.5c0,1.208,0.86,2.217,2,2.45V27v-3.95C12.86,23.283,12,24.292,12,25.5z"/>
<path style="fill:#367CCC;" d="M61,38H49.081l0.7,0.875C49.923,39.053,50,39.273,50,39.5V43c0,0.551,0.449,1,1,1h10  c0.551,0,1-0.449,1-1v-4C62,38.449,61.551,38,61,38z M60,42h-8v-2h8V42z"/>
<path style="fill:#CC5636;" d="M32,59c-0.195,0-0.381-0.075-0.55-0.188L30.388,62h3.225l-1.063-3.188C32.381,58.925,32.195,59,32,59  z"/>
<path style="fill:#1F2833;" d="M63.351,55.063L40,46.307v-5.893l5.707-5.707C45.895,34.52,46,34.265,46,34v-2.184  C46.314,31.928,46.648,32,47,32c1.314,0,2.421-0.855,2.826-2.033C52.153,29.797,54,27.87,54,25.5s-1.847-4.297-4.174-4.467  c-0.3-0.874-0.987-1.56-1.861-1.859C47.976,19.115,48,19.06,48,19v-6c0-4.962-4.038-9-9-9h-0.08C37.5,1.551,34.85,0,32,0h-7  c-0.552,0-1,0.448-1,1c0,1.042,0.201,2.06,0.588,3.009C19.816,4.226,16,8.175,16,13v6c0,0.06,0.024,0.115,0.035,0.174  c-0.874,0.3-1.56,0.986-1.861,1.859C11.847,21.203,10,23.13,10,25.5c0,2.31,1.756,4.197,4,4.449V34c0,2.757,2.243,5,5,5h3.586  L24,40.414v5.893L0.649,55.063C0.259,55.21,0,55.583,0,56v7c0,0.552,0.448,1,1,1h62c0.552,0,1-0.448,1-1v-7  C64,55.583,63.741,55.21,63.351,55.063z M50,23.05c1.14,0.232,2,1.242,2,2.45s-0.86,2.217-2,2.45V23.05z M14,27v0.95  c-1.14-0.232-2-1.242-2-2.45s0.86-2.217,2-2.45V27z M47,21c0.551,0,1,0.449,1,1v7c0,0.551-0.449,1-1,1s-1-0.449-1-1v-7  C46,21.449,46.449,21,47,21z M18,13c0-3.86,3.14-7,7-7h1.26c0.373,0,0.714-0.207,0.887-0.538s0.146-0.729-0.067-1.035  C26.567,3.693,26.23,2.868,26.083,2H32c2.297,0,4.423,1.346,5.415,3.43C37.58,5.778,37.932,6,38.317,6H39c3.86,0,7,3.14,7,7v5.586  l-1,1l-1-1V13c0-0.281-0.118-0.549-0.326-0.738c-0.208-0.19-0.485-0.282-0.765-0.258L32,12.996l-10.91-0.992  c-0.278-0.023-0.557,0.068-0.765,0.258S20,12.719,20,13v5.586l-1,1l-1-1V13z M16,27v-5c0-0.551,0.449-1,1-1s1,0.449,1,1v7  c0,0.551-0.449,1-1,1s-1-0.449-1-1V27z M19,37c-1.654,0-3-1.346-3-3v-2.184C16.314,31.928,16.648,32,17,32s0.686-0.072,1-0.184V34  c0,0.265,0.105,0.52,0.293,0.707L20.586,37H19z M23.414,37L20,33.586V29v-7v-0.586l1.707-1.707C21.895,19.52,22,19.265,22,19v-4.905  l9.91,0.901c0.06,0.005,0.121,0.005,0.181,0L42,14.095V19c0,0.265,0.105,0.52,0.293,0.707L44,21.414V22v7v4.586L35.586,42h-7.172  l-3-3H32v-2H23.414z M26,46.485v-4.071l1.293,1.293C27.48,43.895,27.735,44,28,44h8c0.265,0,0.52-0.105,0.707-0.293L38,42.414v4.071  l-6,4.286L26,46.485z M33.586,55L32,56.586L30.414,55L32,53.414L33.586,55z M28.279,62H2v-5.307l22.852-8.569l5.606,4.004  l-2.165,2.165c-0.391,0.391-0.391,1.023,0,1.414l1.563,1.563L28.279,62z M30.388,62l1.063-3.188C31.619,58.925,31.805,59,32,59  s0.381-0.075,0.55-0.188L33.612,62H30.388z M62,62H35.721l-1.577-4.73l1.563-1.563c0.391-0.391,0.391-1.023,0-1.414l-2.165-2.165  l5.606-4.004L62,56.693V62z"/>
<path style="fill:#1F2833;" d="M61,36H47c-0.384,0-0.735,0.22-0.901,0.567c-0.167,0.346-0.12,0.758,0.121,1.058L48,39.851V43  c0,1.654,1.346,3,3,3h10c1.654,0,3-1.346,3-3v-4C64,37.346,62.654,36,61,36z M62,43c0,0.551-0.449,1-1,1H51c-0.551,0-1-0.449-1-1  v-3.5c0-0.227-0.077-0.447-0.219-0.625L49.081,38H61c0.551,0,1,0.449,1,1V43z"/>
<rect x="9" y="41" style="fill:#1F2833;" width="2" height="2"/>
<rect x="13" y="41" style="fill:#1F2833;" width="2" height="2"/>
<rect x="17" y="41" style="fill:#1F2833;" width="2" height="2"/>
<rect x="52" y="40" style="fill:#1F2833;" width="8" height="2"/>
<path style="fill:#1F2833;" d="M31,25h2c0,1.654,1.346,3,3,3h3c1.654,0,3-1.346,3-3v-1c0-1.654-1.346-3-3-3h-3  c-1.302,0-2.402,0.839-2.816,2h-2.369c-0.414-1.161-1.514-2-2.816-2h-3c-1.654,0-3,1.346-3,3v1c0,1.654,1.346,3,3,3h3  C29.654,28,31,26.654,31,25z M35,24c0-0.551,0.449-1,1-1h3c0.551,0,1,0.449,1,1v1c0,0.551-0.449,1-1,1h-3c-0.551,0-1-0.449-1-1V24z   M29,25c0,0.551-0.449,1-1,1h-3c-0.551,0-1-0.449-1-1v-1c0-0.551,0.449-1,1-1h3c0.551,0,1,0.449,1,1V25z"/>
<path style="fill:#1F2833;" d="M34,32h-2v-3h-2v4c0,0.552,0.448,1,1,1h3V32z"/>
</svg>
