<?xml version="1.0" encoding="iso-8859-1"?>
<!-- Generator: Adobe Illustrator 19.0.0, SVG Export Plug-In . SVG Version: 6.00 Build 0)  -->
<svg version="1.1" id="Capa_1" xmlns="http://www.w3.org/2000/svg" xmlns:xlink="http://www.w3.org/1999/xlink" x="0px" y="0px"
	 viewBox="0 0 480 480" style="enable-background:new 0 0 480 480;" xml:space="preserve">
<g>
	<path style="fill:#79ACC6;" d="M200,104c0-17.672-14.328-32-32-32H40C22.328,72,8,86.328,8,104v16h192V104z"/>
	<path style="fill:#79ACC6;" d="M40,408h128c17.672,0,32-14.328,32-32v-16H8v16C8,393.672,22.328,408,40,408z"/>
</g>
<path style="fill:#DFF3E3;" d="M200,320v-80v-72v-48H8v240h192V320z M104,296c-30.928,0-56-25.072-56-56s25.072-56,56-56
	c19.56,0,36.752,10.04,46.768,25.232c5.824,8.832,9.232,19.4,9.232,30.768C160,270.928,134.928,296,104,296z"/>
<path style="fill:#BEE5BF;" d="M104,184c-30.928,0-56,25.072-56,56s25.072,56,56,56s56-25.072,56-56
	c0-11.368-3.408-21.936-9.232-30.768C140.752,194.04,123.56,184,104,184z"/>
<g>
	<path style="fill:#CE7DA5;" d="M456,184H312c-8.84,0-16,7.16-16,16v24v16v40c0,8.84,7.16,16,16,16h144c8.84,0,16-7.16,16-16v-56
		v-24C472,191.16,464.84,184,456,184z"/>
	<circle style="fill:#CE7DA5;" cx="384" cy="80" r="72"/>
	<path style="fill:#CE7DA5;" d="M296,408v32c0,17.672,14.328,32,32,32h112c17.672,0,32-14.328,32-32v-96H296V408z"/>
</g>
<g>
	<path style="fill:#493657;" d="M104,304c35.288,0,64-28.712,64-64c0-10.624-2.64-20.624-7.24-29.448l12.896-12.896l-11.312-11.312
		l-10.88,10.88C139.744,184.232,122.832,176,104,176c-35.288,0-64,28.712-64,64S68.712,304,104,304z M104,192
		c14.424,0,27.352,6.424,36.16,16.528L104,244.688l-18.344-18.344l-11.312,11.312l24,24c1.56,1.56,3.608,2.344,5.656,2.344
		s4.096-0.784,5.656-2.344l39.04-39.04C150.8,228.016,152,233.864,152,240c0,26.472-21.528,48-48,48s-48-21.528-48-48
		S77.528,192,104,192z"/>
	<path style="fill:#493657;" d="M456,176H312c-13.232,0-24,10.768-24,24v32h-80v-56h48c4.416,0,8-3.584,8-8V88h40.408
		c4.024,40.368,38.184,72,79.592,72c44.112,0,80-35.888,80-80S428.112,0,384,0c-41.416,0-75.568,31.632-79.592,72H256
		c-4.416,0-8,3.584-8,8v80h-40v-40v-16c0-22.056-17.944-40-40-40H40C17.944,64,0,81.944,0,104v16v240v16c0,22.056,17.944,40,40,40
		h128c22.056,0,40-17.944,40-40v-16v-32h40v80c0,4.416,3.584,8,8,8h32v24c0,22.056,17.944,40,40,40h112c22.056,0,40-17.944,40-40
		v-96c0-0.04-0.024-0.072-0.024-0.104c-0.008-0.864-0.144-1.736-0.44-2.584c-0.032-0.088-0.096-0.144-0.128-0.232
		c-0.096-0.248-0.256-0.456-0.376-0.696c-0.32-0.616-0.688-1.184-1.144-1.688c-0.208-0.232-0.432-0.432-0.664-0.64
		c-0.496-0.44-1.032-0.792-1.624-1.096c-0.264-0.136-0.504-0.28-0.784-0.392C473.928,336.232,472.992,336,472,336H296
		c-0.992,0-1.928,0.232-2.824,0.568c-0.28,0.104-0.52,0.256-0.784,0.392c-0.592,0.304-1.128,0.656-1.624,1.096
		c-0.232,0.208-0.456,0.408-0.664,0.64c-0.456,0.504-0.824,1.072-1.144,1.688c-0.12,0.24-0.28,0.44-0.376,0.696
		c-0.032,0.08-0.096,0.144-0.128,0.232c-0.304,0.848-0.432,1.72-0.44,2.584C288.024,343.928,288,343.96,288,344v56h-24v-80
		c0-4.416-3.584-8-8-8h-48v-64h80v32c0,13.232,10.768,24,24,24h144c13.232,0,24-10.768,24-24v-80C480,186.768,469.232,176,456,176z
		 M384,16c35.288,0,64,28.712,64,64s-28.712,64-64,64s-64-28.712-64-64S348.712,16,384,16z M440,464H328c-13.232,0-24-10.768-24-24
		v-79.12l74.936,61.312C380.408,423.4,382.2,424,384,424s3.592-0.6,5.064-1.808L464,360.88V440C464,453.232,453.232,464,440,464z
		 M449.592,352L384,405.664L318.408,352H449.592z M40,80h128c13.232,0,24,10.768,24,24v8H16v-8C16,90.768,26.768,80,40,80z M192,352
		H16V128h176V352z M168,400H40c-13.232,0-24-10.768-24-24v-8h176v8C192,389.232,181.232,400,168,400z M312,192h144
		c4.408,0,8,3.592,8,8v16H304v-16C304,195.592,307.592,192,312,192z M456,288H312c-4.408,0-8-3.592-8-8v-48h160v48
		C464,284.408,460.408,288,456,288z"/>
	<path style="fill:#493657;" d="M384,104c-4.408,0-8-3.592-8-8h-16c0,10.416,6.712,19.216,16,22.528V128h16v-9.472
		c9.288-3.312,16-12.112,16-22.528c0-2.12-0.84-4.16-2.344-5.656l-29.152-29.152C377.648,58.168,380.576,56,384,56
		c4.408,0,8,3.592,8,8h16c0-10.416-6.712-19.216-16-22.528V32h-16v9.472c-9.288,3.312-16,12.112-16,22.528
		c0,2.12,0.84,4.16,2.344,5.656l29.152,29.152C390.352,101.832,387.424,104,384,104z"/>
</g>
<g>
</g>
<g>
</g>
<g>
</g>
<g>
</g>
<g>
</g>
<g>
</g>
<g>
</g>
<g>
</g>
<g>
</g>
<g>
</g>
<g>
</g>
<g>
</g>
<g>
</g>
<g>
</g>
<g>
</g>
</svg>
