<?xml version="1.0" encoding="iso-8859-1"?>
<!-- Generator: Adobe Illustrator 19.0.0, SVG Export Plug-In . SVG Version: 6.00 Build 0)  -->
<svg version="1.1" id="Capa_1" xmlns="http://www.w3.org/2000/svg" xmlns:xlink="http://www.w3.org/1999/xlink" x="0px" y="0px"
	 viewBox="0 0 480 480" style="enable-background:new 0 0 480 480;" xml:space="preserve">
<path style="fill:#FF9F1C;" d="M268.736,150.864C280.768,135.816,288,116.76,288,96s-7.232-39.816-19.264-54.864
	c-11.144,2.28-21.072,7.88-28.736,15.712c9.888,10.096,16,23.904,16,39.152s-6.112,29.056-16,39.152
	c-7.664,7.832-17.584,13.432-28.736,15.712C207.624,151.608,203.856,152,200,152H96c-30.928,0-56-25.072-56-56s25.072-56,56-56h104
	c3.856,0,7.624,0.392,11.264,1.136c7.768-9.72,17.56-17.728,28.736-23.448c-12.008-6.144-25.584-9.68-40-9.68H96
	c-48.6,0-88,39.4-88,88s39.4,88,88,88h24h80c14.416,0,27.992-3.536,40-9.68C251.176,168.6,260.96,160.592,268.736,150.864z"/>
<path style="fill:#60C4C2;" d="M384,8H280c-14.416,0-27.992,3.536-40,9.68c-11.176,5.72-20.96,13.728-28.736,23.448
	C199.232,56.184,192,75.232,192,96s7.232,39.816,19.264,54.864c11.144-2.28,21.072-7.88,28.736-15.712
	c-9.888-10.096-16-23.904-16-39.152s6.112-29.056,16-39.152c7.664-7.832,17.584-13.432,28.736-15.712
	C272.376,40.392,276.144,40,280,40h104c30.928,0,56,25.072,56,56s-25.072,56-56,56H280c-3.856,0-7.624-0.392-11.264-1.136
	c-7.768,9.72-17.56,17.728-28.736,23.448c12.008,6.144,25.584,9.68,40,9.68h80h24c48.6,0,88-39.4,88-88S432.6,8,384,8z"/>
<path style="fill:#FFBF69;" d="M184,312h-8H64h-8c-17.672,0-32,14.328-32,32v96c0,17.672,14.328,32,32,32h128
	c17.672,0,32-14.328,32-32v-96C216,326.328,201.672,312,184,312z M136,403.56V440h-32v-36.44c-9.528-5.544-16-15.744-16-27.56
	c0-17.672,14.328-32,32-32s32,14.328,32,32C152,387.816,145.528,398.016,136,403.56z"/>
<path style="fill:#E8EDED;" d="M104,403.56V440h32v-36.44c9.528-5.544,16-15.744,16-27.56c0-17.672-14.328-32-32-32
	s-32,14.328-32,32C88,387.816,94.472,398.016,104,403.56z"/>
<path style="fill:#FFBF69;" d="M424,312h-8H304h-8c-17.672,0-32,14.328-32,32v96c0,17.672,14.328,32,32,32h128
	c17.672,0,32-14.328,32-32v-96C456,326.328,441.672,312,424,312z M376,403.56V440h-32v-36.44c-9.528-5.544-16-15.744-16-27.56
	c0-17.672,14.328-32,32-32s32,14.328,32,32C392,387.816,385.528,398.016,376,403.56z"/>
<path style="fill:#E8EDED;" d="M344,403.56V440h32v-36.44c9.528-5.544,16-15.744,16-27.56c0-17.672-14.328-32-32-32
	s-32,14.328-32,32C328,387.816,334.472,398.016,344,403.56z"/>
<g>
	<path style="fill:#3F3F3F;" d="M384,0H280c-13.936,0-27.352,3.112-40,8.952C227.352,3.104,213.936,0,200,0H96
		C43.064,0,0,43.064,0,96s43.064,96,96,96h16v24.552c-31.52,3.96-56,30.872-56,63.448v24c-22.056,0-40,17.944-40,40v96
		c0,22.056,17.944,40,40,40h128c22.056,0,40-17.944,40-40v-96c0-22.056-17.944-40-40-40v-24c0-32.576-24.48-59.488-56-63.448V192h72
		c13.936,0,27.352-3.112,40-8.952c12.648,5.848,26.064,8.952,40,8.952h72v24.552c-31.52,3.96-56,30.872-56,63.448v24
		c-22.056,0-40,17.944-40,40v96c0,22.056,17.944,40,40,40h128c22.056,0,40-17.944,40-40v-96c0-22.056-17.944-40-40-40v-24
		c0-32.576-24.48-59.488-56-63.448V192h16c52.936,0,96-43.064,96-96S436.936,0,384,0z M208,344v96c0,13.232-10.768,24-24,24H56
		c-13.232,0-24-10.768-24-24v-96c0-13.232,10.768-24,24-24h128C197.232,320,208,330.768,208,344z M168,280v24H72v-24
		c0-26.472,21.528-48,48-48S168,253.528,168,280z M448,344v96c0,13.232-10.768,24-24,24H296c-13.232,0-24-10.768-24-24v-96
		c0-13.232,10.768-24,24-24h128C437.232,320,448,330.768,448,344z M408,280v24h-96v-24c0-26.472,21.528-48,48-48
		S408,253.528,408,280z M236.352,167.192C224.944,173.04,212.712,176,200,176H96c-44.112,0-80-35.888-80-80s35.888-80,80-80h104
		c7.688,0,15.184,1.08,22.448,3.224c-5.216,3.912-10.024,8.344-14.376,13.28C205.4,32.168,202.696,32,200,32H96
		c-35.288,0-64,28.712-64,64s28.712,64,64,64h104c4.32,0,8.648-0.432,12.864-1.296c12.496-2.552,23.848-8.76,32.848-17.952
		c11.792-12.04,18.28-27.936,18.28-44.752c0-3.152-0.304-6.264-0.752-9.328c-0.08-0.568-0.152-1.128-0.248-1.688
		c-0.512-2.944-1.224-5.824-2.128-8.64c-0.168-0.528-0.368-1.04-0.552-1.56c-2.048-5.808-4.928-11.296-8.592-16.32
		c-0.192-0.264-0.328-0.568-0.528-0.832c4.344-3.28,9.184-5.776,14.352-7.408c9.48,13.48,14.456,29.2,14.456,45.792
		c0,18.296-6.056,35.536-17.512,49.872C255.352,154.8,246.552,161.976,236.352,167.192z M196.944,144H96c-26.472,0-48-21.528-48-48
		s21.528-48,48-48h100.944C188.472,62.536,184,78.872,184,96S188.48,129.464,196.944,144z M232.464,89.696
		c0.064-0.504,0.136-1.008,0.224-1.504c0.336-2.048,0.76-4.08,1.352-6.056c0.024-0.088,0.064-0.168,0.088-0.256
		c0.584-1.904,1.32-3.752,2.144-5.56c0.208-0.456,0.416-0.912,0.632-1.36c0.904-1.848,1.896-3.648,3.04-5.376
		c0.016-0.024,0.04-0.056,0.056-0.08c0.016,0.024,0.04,0.056,0.056,0.08c1.144,1.72,2.136,3.528,3.04,5.368
		c0.224,0.456,0.432,0.912,0.64,1.368c0.816,1.808,1.552,3.656,2.136,5.552c0.024,0.088,0.064,0.168,0.088,0.256
		c0.592,1.976,1.016,4,1.352,6.056c0.08,0.504,0.152,1.008,0.224,1.52C247.808,91.776,248,93.872,248,96
		c0,2.12-0.192,4.216-0.464,6.288c-0.064,0.512-0.144,1.016-0.224,1.528c-0.336,2.04-0.76,4.064-1.352,6.04
		c-0.032,0.104-0.08,0.208-0.112,0.312c-0.576,1.88-1.304,3.704-2.112,5.488c-0.216,0.472-0.424,0.936-0.656,1.4
		c-0.904,1.832-1.888,3.632-3.024,5.352c-0.016,0.024-0.04,0.056-0.064,0.08c-0.016-0.032-0.04-0.056-0.064-0.08
		c-1.136-1.72-2.128-3.52-3.024-5.352c-0.224-0.464-0.44-0.928-0.648-1.392c-0.808-1.792-1.536-3.616-2.12-5.496
		c-0.032-0.104-0.08-0.208-0.112-0.312c-0.592-1.968-1.016-4-1.352-6.04c-0.08-0.504-0.152-1.008-0.224-1.512
		C232.192,100.224,232,98.128,232,96S232.192,91.776,232.464,89.696z M283.056,48H384c26.472,0,48,21.528,48,48s-21.528,48-48,48
		H283.056C291.528,129.464,296,113.128,296,96S291.52,62.536,283.056,48z M384,176H280c-7.688,0-15.184-1.08-22.448-3.224
		c5.216-3.912,10.024-8.344,14.376-13.28C274.6,159.832,277.304,160,280,160h104c35.288,0,64-28.712,64-64s-28.712-64-64-64H280
		c-4.32,0-8.648,0.432-12.864,1.296c-12.496,2.552-23.848,8.76-32.848,17.952C222.496,63.288,216,79.176,216,96
		c0,3.152,0.304,6.256,0.752,9.328c0.08,0.568,0.152,1.128,0.248,1.688c0.512,2.944,1.224,5.824,2.136,8.64
		c0.168,0.528,0.368,1.04,0.552,1.56c2.04,5.808,4.92,11.288,8.592,16.312c0.2,0.272,0.336,0.576,0.536,0.848
		c-4.344,3.28-9.184,5.776-14.352,7.408c-9.48-13.48-14.456-29.2-14.456-45.792c0-18.296,6.056-35.536,17.512-49.872
		c7.136-8.928,15.928-16.104,26.136-21.328c11.408-5.84,23.64-8.808,36.352-8.808h104c44.112,0,80,35.888,80,80S428.112,176,384,176
		z"/>
	<path style="fill:#3F3F3F;" d="M120,336c-22.056,0-40,17.944-40,40c0,12.504,6.032,24.328,16,31.832V440c0,4.416,3.576,8,8,8h32
		c4.424,0,8-3.584,8-8v-32.168c9.968-7.512,16-19.328,16-31.832C160,353.944,142.056,336,120,336z M131.976,396.648
		c-2.464,1.432-3.976,4.064-3.976,6.912V432h-16v-28.44c0-2.848-1.512-5.48-3.976-6.912C100.496,392.264,96,384.544,96,376
		c0-13.232,10.768-24,24-24s24,10.768,24,24C144,384.544,139.504,392.264,131.976,396.648z"/>
	<path style="fill:#3F3F3F;" d="M360,336c-22.056,0-40,17.944-40,40c0,12.504,6.032,24.328,16,31.832V440c0,4.416,3.576,8,8,8h32
		c4.424,0,8-3.584,8-8v-32.168c9.968-7.512,16-19.328,16-31.832C400,353.944,382.056,336,360,336z M371.976,396.648
		c-2.464,1.432-3.976,4.064-3.976,6.912V432h-16v-28.44c0-2.848-1.512-5.48-3.976-6.912C340.496,392.264,336,384.544,336,376
		c0-13.232,10.768-24,24-24s24,10.768,24,24C384,384.544,379.504,392.264,371.976,396.648z"/>
	<rect x="176" y="432" style="fill:#3F3F3F;" width="16" height="16"/>
	<rect x="416" y="432" style="fill:#3F3F3F;" width="16" height="16"/>
</g>
<g>
</g>
<g>
</g>
<g>
</g>
<g>
</g>
<g>
</g>
<g>
</g>
<g>
</g>
<g>
</g>
<g>
</g>
<g>
</g>
<g>
</g>
<g>
</g>
<g>
</g>
<g>
</g>
<g>
</g>
</svg>
