<?xml version="1.0" encoding="iso-8859-1"?>
<!-- Generator: Adobe Illustrator 19.0.0, SVG Export Plug-In . SVG Version: 6.00 Build 0)  -->
<svg version="1.1" id="Capa_1" xmlns="http://www.w3.org/2000/svg" xmlns:xlink="http://www.w3.org/1999/xlink" x="0px" y="0px"
	 viewBox="0 0 480.003 480.003" style="enable-background:new 0 0 480.003 480.003;" xml:space="preserve">
<path style="fill:#94D8E3;" d="M8.002,8h464v64h-464V8z"/>
<path style="fill:#689CB0;" d="M240.001,8h232v64h-232V8z"/>
<path style="fill:#F4EFEF;" d="M8.002,72v400l72-16l80,16l80-16l80,16l80-16l72,16V72H8.002z"/>
<path style="fill:#D9D4D4;" d="M240.001,456l80,16l80-16l72,16V72h-232V456z"/>
<g>
	<path style="fill:#F2CF77;" d="M136.001,112h208v128h-208V112z"/>
	<path style="fill:#F2CF77;" d="M48.001,304h96v64h-96V304z"/>
	<path style="fill:#F2CF77;" d="M192.001,304h96v64h-96V304z"/>
	<path style="fill:#F2CF77;" d="M336.001,304h96v64h-96V304z"/>
</g>
<g>
	<path style="fill:#474747;" d="M472.001,0h-464c-4.416,0-8,3.584-8,8v464c0,2.424,1.104,4.72,3,6.24
		c1.888,1.52,4.384,2.104,6.736,1.568l70.352-15.632l78.344,15.664c1.04,0.208,2.104,0.208,3.144,0l78.432-15.68l78.432,15.68
		c1.04,0.208,2.104,0.208,3.144,0l78.344-15.664l70.352,15.632c0.56,0.128,1.144,0.192,1.72,0.192c1.808,0,3.576-0.608,5-1.76
		c1.896-1.52,3-3.816,3-6.24V8C480.001,3.584,476.417,0,472.001,0L472.001,0z M464.001,16v48h-448V16H464.001z M401.737,448.192
		c-1.088-0.248-2.208-0.256-3.304-0.032l-78.432,15.68l-78.432-15.68c-0.52-0.104-1.04-0.16-1.568-0.16s-1.048,0.048-1.568,0.16
		l-78.432,15.68L81.57,448.16c-1.096-0.224-2.216-0.216-3.304,0.032l-62.264,13.832V80h448v382.024L401.737,448.192z"/>
	<path style="fill:#474747;" d="M32.001,32h16v16h-16V32z"/>
	<path style="fill:#474747;" d="M64.002,32h16v16h-16V32z"/>
	<path style="fill:#474747;" d="M96.002,32h16v16h-16V32z"/>
	<path style="fill:#474747;" d="M152.001,32h184v16h-184V32z"/>
	<path style="fill:#474747;" d="M432.001,32h16v16h-16V32z"/>
	<path style="fill:#474747;" d="M352.001,240V112c0-4.416-3.584-8-8-8h-208c-4.416,0-8,3.584-8,8v128c0,4.416,3.584,8,8,8h208
		C348.417,248,352.001,244.416,352.001,240z M224.737,176l-80.736,49.688V126.32L224.737,176z M164.265,120h151.48l-75.736,46.608
		L164.265,120z M240.001,185.392L315.737,232h-151.48L240.001,185.392z M255.266,176l80.736-49.688v99.368L255.266,176z"/>
	<path style="fill:#474747;" d="M405.658,205.656l24-24c3.128-3.128,3.128-8.184,0-11.312l-24-24l-11.312,11.312L412.689,176
		l-18.344,18.344L405.658,205.656z"/>
	<path style="fill:#474747;" d="M74.346,205.656l11.312-11.312L67.314,176l18.344-18.344l-11.312-11.312l-24,24
		c-3.128,3.128-3.128,8.184,0,11.312L74.346,205.656z"/>
	<path style="fill:#474747;" d="M168.001,264h16v16h-16V264z"/>
	<path style="fill:#474747;" d="M200.001,264h16v16h-16V264z"/>
	<path style="fill:#474747;" d="M232.001,264h16v16h-16V264z"/>
	<path style="fill:#474747;" d="M264.001,264h16v16h-16V264z"/>
	<path style="fill:#474747;" d="M296.001,264h16v16h-16V264z"/>
	<path style="fill:#474747;" d="M144.001,296h-96c-4.416,0-8,3.584-8,8v64c0,4.416,3.584,8,8,8h96c4.416,0,8-3.584,8-8v-64
		C152.001,299.584,148.417,296,144.001,296z M81.578,336l-25.576,17.056v-34.104L81.578,336z M74.426,312h43.16l-21.576,14.384
		L74.426,312z M96.002,345.616L117.578,360h-43.16L96.002,345.616z M110.425,336l25.576-17.056v34.104L110.425,336z"/>
	<path style="fill:#474747;" d="M288.001,296h-96c-4.416,0-8,3.584-8,8v64c0,4.416,3.584,8,8,8h96c4.416,0,8-3.584,8-8v-64
		C296.001,299.584,292.417,296,288.001,296z M225.577,336l-25.576,17.056v-34.104L225.577,336z M218.426,312h43.16l-21.576,14.384
		L218.426,312z M240.001,345.616L261.577,360h-43.16L240.001,345.616z M254.426,336l25.576-17.056v34.104L254.426,336z"/>
	<path style="fill:#474747;" d="M432.001,296h-96c-4.416,0-8,3.584-8,8v64c0,4.416,3.584,8,8,8h96c4.416,0,8-3.584,8-8v-64
		C440.001,299.584,436.417,296,432.001,296z M369.577,336l-25.576,17.056v-34.104L369.577,336z M362.425,312h43.16l-21.584,14.384
		L362.425,312z M384.001,345.616L405.577,360h-43.16L384.001,345.616z M398.425,336l25.576-17.056v34.104L398.425,336z"/>
	<path style="fill:#474747;" d="M56.001,392h80v16h-80V392z"/>
	<path style="fill:#474747;" d="M200.001,392h80v16h-80V392z"/>
	<path style="fill:#474747;" d="M344.001,392h80v16h-80V392z"/>
</g>
<g>
</g>
<g>
</g>
<g>
</g>
<g>
</g>
<g>
</g>
<g>
</g>
<g>
</g>
<g>
</g>
<g>
</g>
<g>
</g>
<g>
</g>
<g>
</g>
<g>
</g>
<g>
</g>
<g>
</g>
</svg>
